<?xml version="1.0" encoding="utf-8" standalone="no"?>
<!DOCTYPE svg PUBLIC "-//W3C//DTD SVG 1.1//EN"
  "http://www.w3.org/Graphics/SVG/1.1/DTD/svg11.dtd">
<svg xmlns:xlink="http://www.w3.org/1999/xlink" width="568.489509pt" height="497.035179pt" viewBox="0 0 568.489509 497.035179" xmlns="http://www.w3.org/2000/svg" version="1.1">
 <metadata>
  <rdf:RDF xmlns:dc="http://purl.org/dc/elements/1.1/" xmlns:cc="http://creativecommons.org/ns#" xmlns:rdf="http://www.w3.org/1999/02/22-rdf-syntax-ns#">
   <cc:Work>
    <dc:type rdf:resource="http://purl.org/dc/dcmitype/StillImage"/>
    <dc:date>2026-04-26T15:22:59.071856</dc:date>
    <dc:format>image/svg+xml</dc:format>
    <dc:creator>
     <cc:Agent>
      <dc:title>Matplotlib v3.10.8, https://matplotlib.org/</dc:title>
     </cc:Agent>
    </dc:creator>
   </cc:Work>
  </rdf:RDF>
 </metadata>
 <defs>
  <style type="text/css">*{stroke-linejoin: round; stroke-linecap: butt}</style>
 </defs>
 <g id="figure_1">
  <g id="patch_1">
   <path d="M 0 497.035179 
L 568.489509 497.035179 
L 568.489509 0 
L 0 0 
z
" style="fill: #ffffff"/>
  </g>
  <g id="axes_1">
   <g id="patch_2">
    <path d="M 95.760938 464.044554 
L 561.289509 464.044554 
L 561.289509 21.935625 
L 95.760938 21.935625 
z
" style="fill: #ffffff"/>
   </g>
   <g id="matplotlib.axis_1">
    <g id="xtick_1">
     <g id="line2d_1">
      <path d="M 114.752197 464.044554 
L 114.752197 21.935625 
" clip-path="url(#p3e4cc8b06a)" style="fill: none; stroke: #cccccc; stroke-width: 0.8; stroke-linecap: round"/>
     </g>
     <g id="line2d_2"/>
     <g id="text_1">
      <!-- −0.6 -->
      <g style="fill: #262626" transform="translate(104.881884 474.702366) scale(0.1 -0.1)">
       <defs>
        <path id="ArialMT-2212" d="M 3381 1997 
L 356 1997 
L 356 2522 
L 3381 2522 
L 3381 1997 
z
" transform="scale(0.015625)"/>
        <path id="ArialMT-30" d="M 266 2259 
Q 266 3072 433 3567 
Q 600 4063 929 4331 
Q 1259 4600 1759 4600 
Q 2128 4600 2406 4451 
Q 2684 4303 2865 4023 
Q 3047 3744 3150 3342 
Q 3253 2941 3253 2259 
Q 3253 1453 3087 958 
Q 2922 463 2592 192 
Q 2263 -78 1759 -78 
Q 1097 -78 719 397 
Q 266 969 266 2259 
z
M 844 2259 
Q 844 1131 1108 757 
Q 1372 384 1759 384 
Q 2147 384 2411 759 
Q 2675 1134 2675 2259 
Q 2675 3391 2411 3762 
Q 2147 4134 1753 4134 
Q 1366 4134 1134 3806 
Q 844 3388 844 2259 
z
" transform="scale(0.015625)"/>
        <path id="ArialMT-2e" d="M 581 0 
L 581 641 
L 1222 641 
L 1222 0 
L 581 0 
z
" transform="scale(0.015625)"/>
        <path id="ArialMT-36" d="M 3184 3459 
L 2625 3416 
Q 2550 3747 2413 3897 
Q 2184 4138 1850 4138 
Q 1581 4138 1378 3988 
Q 1113 3794 959 3422 
Q 806 3050 800 2363 
Q 1003 2672 1297 2822 
Q 1591 2972 1913 2972 
Q 2475 2972 2870 2558 
Q 3266 2144 3266 1488 
Q 3266 1056 3080 686 
Q 2894 316 2569 119 
Q 2244 -78 1831 -78 
Q 1128 -78 684 439 
Q 241 956 241 2144 
Q 241 3472 731 4075 
Q 1159 4600 1884 4600 
Q 2425 4600 2770 4297 
Q 3116 3994 3184 3459 
z
M 888 1484 
Q 888 1194 1011 928 
Q 1134 663 1356 523 
Q 1578 384 1822 384 
Q 2178 384 2434 671 
Q 2691 959 2691 1453 
Q 2691 1928 2437 2201 
Q 2184 2475 1800 2475 
Q 1419 2475 1153 2201 
Q 888 1928 888 1484 
z
" transform="scale(0.015625)"/>
       </defs>
       <use xlink:href="#ArialMT-2212"/>
       <use xlink:href="#ArialMT-30" transform="translate(58.398438 0)"/>
       <use xlink:href="#ArialMT-2e" transform="translate(114.013672 0)"/>
       <use xlink:href="#ArialMT-36" transform="translate(141.796875 0)"/>
      </g>
     </g>
    </g>
    <g id="xtick_2">
     <g id="line2d_3">
      <path d="M 190.167758 464.044554 
L 190.167758 21.935625 
" clip-path="url(#p3e4cc8b06a)" style="fill: none; stroke: #cccccc; stroke-width: 0.8; stroke-linecap: round"/>
     </g>
     <g id="line2d_4"/>
     <g id="text_2">
      <!-- −0.4 -->
      <g style="fill: #262626" transform="translate(180.297446 474.702366) scale(0.1 -0.1)">
       <defs>
        <path id="ArialMT-34" d="M 2069 0 
L 2069 1097 
L 81 1097 
L 81 1613 
L 2172 4581 
L 2631 4581 
L 2631 1613 
L 3250 1613 
L 3250 1097 
L 2631 1097 
L 2631 0 
L 2069 0 
z
M 2069 1613 
L 2069 3678 
L 634 1613 
L 2069 1613 
z
" transform="scale(0.015625)"/>
       </defs>
       <use xlink:href="#ArialMT-2212"/>
       <use xlink:href="#ArialMT-30" transform="translate(58.398438 0)"/>
       <use xlink:href="#ArialMT-2e" transform="translate(114.013672 0)"/>
       <use xlink:href="#ArialMT-34" transform="translate(141.796875 0)"/>
      </g>
     </g>
    </g>
    <g id="xtick_3">
     <g id="line2d_5">
      <path d="M 265.58332 464.044554 
L 265.58332 21.935625 
" clip-path="url(#p3e4cc8b06a)" style="fill: none; stroke: #cccccc; stroke-width: 0.8; stroke-linecap: round"/>
     </g>
     <g id="line2d_6"/>
     <g id="text_3">
      <!-- −0.2 -->
      <g style="fill: #262626" transform="translate(255.713007 474.702366) scale(0.1 -0.1)">
       <defs>
        <path id="ArialMT-32" d="M 3222 541 
L 3222 0 
L 194 0 
Q 188 203 259 391 
Q 375 700 629 1000 
Q 884 1300 1366 1694 
Q 2113 2306 2375 2664 
Q 2638 3022 2638 3341 
Q 2638 3675 2398 3904 
Q 2159 4134 1775 4134 
Q 1369 4134 1125 3890 
Q 881 3647 878 3216 
L 300 3275 
Q 359 3922 746 4261 
Q 1134 4600 1788 4600 
Q 2447 4600 2831 4234 
Q 3216 3869 3216 3328 
Q 3216 3053 3103 2787 
Q 2991 2522 2730 2228 
Q 2469 1934 1863 1422 
Q 1356 997 1212 845 
Q 1069 694 975 541 
L 3222 541 
z
" transform="scale(0.015625)"/>
       </defs>
       <use xlink:href="#ArialMT-2212"/>
       <use xlink:href="#ArialMT-30" transform="translate(58.398438 0)"/>
       <use xlink:href="#ArialMT-2e" transform="translate(114.013672 0)"/>
       <use xlink:href="#ArialMT-32" transform="translate(141.796875 0)"/>
      </g>
     </g>
    </g>
    <g id="xtick_4">
     <g id="line2d_7">
      <path d="M 340.998881 464.044554 
L 340.998881 21.935625 
" clip-path="url(#p3e4cc8b06a)" style="fill: none; stroke: #cccccc; stroke-width: 0.8; stroke-linecap: round"/>
     </g>
     <g id="line2d_8"/>
     <g id="text_4">
      <!-- 0.0 -->
      <g style="fill: #262626" transform="translate(334.048881 474.702366) scale(0.1 -0.1)">
       <use xlink:href="#ArialMT-30"/>
       <use xlink:href="#ArialMT-2e" transform="translate(55.615234 0)"/>
       <use xlink:href="#ArialMT-30" transform="translate(83.398438 0)"/>
      </g>
     </g>
    </g>
    <g id="xtick_5">
     <g id="line2d_9">
      <path d="M 416.414443 464.044554 
L 416.414443 21.935625 
" clip-path="url(#p3e4cc8b06a)" style="fill: none; stroke: #cccccc; stroke-width: 0.8; stroke-linecap: round"/>
     </g>
     <g id="line2d_10"/>
     <g id="text_5">
      <!-- 0.2 -->
      <g style="fill: #262626" transform="translate(409.464443 474.702366) scale(0.1 -0.1)">
       <use xlink:href="#ArialMT-30"/>
       <use xlink:href="#ArialMT-2e" transform="translate(55.615234 0)"/>
       <use xlink:href="#ArialMT-32" transform="translate(83.398438 0)"/>
      </g>
     </g>
    </g>
    <g id="xtick_6">
     <g id="line2d_11">
      <path d="M 491.830004 464.044554 
L 491.830004 21.935625 
" clip-path="url(#p3e4cc8b06a)" style="fill: none; stroke: #cccccc; stroke-width: 0.8; stroke-linecap: round"/>
     </g>
     <g id="line2d_12"/>
     <g id="text_6">
      <!-- 0.4 -->
      <g style="fill: #262626" transform="translate(484.880004 474.702366) scale(0.1 -0.1)">
       <use xlink:href="#ArialMT-30"/>
       <use xlink:href="#ArialMT-2e" transform="translate(55.615234 0)"/>
       <use xlink:href="#ArialMT-34" transform="translate(83.398438 0)"/>
      </g>
     </g>
    </g>
    <g id="text_7">
     <!-- Coefficient -->
     <g style="fill: #262626" transform="translate(304.990848 487.847679) scale(0.1 -0.1)">
      <defs>
       <path id="ArialMT-43" d="M 3763 1606 
L 4369 1453 
Q 4178 706 3683 314 
Q 3188 -78 2472 -78 
Q 1731 -78 1267 223 
Q 803 525 561 1097 
Q 319 1669 319 2325 
Q 319 3041 592 3573 
Q 866 4106 1370 4382 
Q 1875 4659 2481 4659 
Q 3169 4659 3637 4309 
Q 4106 3959 4291 3325 
L 3694 3184 
Q 3534 3684 3231 3912 
Q 2928 4141 2469 4141 
Q 1941 4141 1586 3887 
Q 1231 3634 1087 3207 
Q 944 2781 944 2328 
Q 944 1744 1114 1308 
Q 1284 872 1643 656 
Q 2003 441 2422 441 
Q 2931 441 3284 734 
Q 3638 1028 3763 1606 
z
" transform="scale(0.015625)"/>
       <path id="ArialMT-6f" d="M 213 1659 
Q 213 2581 725 3025 
Q 1153 3394 1769 3394 
Q 2453 3394 2887 2945 
Q 3322 2497 3322 1706 
Q 3322 1066 3130 698 
Q 2938 331 2570 128 
Q 2203 -75 1769 -75 
Q 1072 -75 642 372 
Q 213 819 213 1659 
z
M 791 1659 
Q 791 1022 1069 705 
Q 1347 388 1769 388 
Q 2188 388 2466 706 
Q 2744 1025 2744 1678 
Q 2744 2294 2464 2611 
Q 2184 2928 1769 2928 
Q 1347 2928 1069 2612 
Q 791 2297 791 1659 
z
" transform="scale(0.015625)"/>
       <path id="ArialMT-65" d="M 2694 1069 
L 3275 997 
Q 3138 488 2766 206 
Q 2394 -75 1816 -75 
Q 1088 -75 661 373 
Q 234 822 234 1631 
Q 234 2469 665 2931 
Q 1097 3394 1784 3394 
Q 2450 3394 2872 2941 
Q 3294 2488 3294 1666 
Q 3294 1616 3291 1516 
L 816 1516 
Q 847 969 1125 678 
Q 1403 388 1819 388 
Q 2128 388 2347 550 
Q 2566 713 2694 1069 
z
M 847 1978 
L 2700 1978 
Q 2663 2397 2488 2606 
Q 2219 2931 1791 2931 
Q 1403 2931 1139 2672 
Q 875 2413 847 1978 
z
" transform="scale(0.015625)"/>
       <path id="ArialMT-66" d="M 556 0 
L 556 2881 
L 59 2881 
L 59 3319 
L 556 3319 
L 556 3672 
Q 556 4006 616 4169 
Q 697 4388 901 4523 
Q 1106 4659 1475 4659 
Q 1713 4659 2000 4603 
L 1916 4113 
Q 1741 4144 1584 4144 
Q 1328 4144 1222 4034 
Q 1116 3925 1116 3625 
L 1116 3319 
L 1763 3319 
L 1763 2881 
L 1116 2881 
L 1116 0 
L 556 0 
z
" transform="scale(0.015625)"/>
       <path id="ArialMT-69" d="M 425 3934 
L 425 4581 
L 988 4581 
L 988 3934 
L 425 3934 
z
M 425 0 
L 425 3319 
L 988 3319 
L 988 0 
L 425 0 
z
" transform="scale(0.015625)"/>
       <path id="ArialMT-63" d="M 2588 1216 
L 3141 1144 
Q 3050 572 2676 248 
Q 2303 -75 1759 -75 
Q 1078 -75 664 370 
Q 250 816 250 1647 
Q 250 2184 428 2587 
Q 606 2991 970 3192 
Q 1334 3394 1763 3394 
Q 2303 3394 2647 3120 
Q 2991 2847 3088 2344 
L 2541 2259 
Q 2463 2594 2264 2762 
Q 2066 2931 1784 2931 
Q 1359 2931 1093 2626 
Q 828 2322 828 1663 
Q 828 994 1084 691 
Q 1341 388 1753 388 
Q 2084 388 2306 591 
Q 2528 794 2588 1216 
z
" transform="scale(0.015625)"/>
       <path id="ArialMT-6e" d="M 422 0 
L 422 3319 
L 928 3319 
L 928 2847 
Q 1294 3394 1984 3394 
Q 2284 3394 2536 3286 
Q 2788 3178 2913 3003 
Q 3038 2828 3088 2588 
Q 3119 2431 3119 2041 
L 3119 0 
L 2556 0 
L 2556 2019 
Q 2556 2363 2490 2533 
Q 2425 2703 2258 2804 
Q 2091 2906 1866 2906 
Q 1506 2906 1245 2678 
Q 984 2450 984 1813 
L 984 0 
L 422 0 
z
" transform="scale(0.015625)"/>
       <path id="ArialMT-74" d="M 1650 503 
L 1731 6 
Q 1494 -44 1306 -44 
Q 1000 -44 831 53 
Q 663 150 594 308 
Q 525 466 525 972 
L 525 2881 
L 113 2881 
L 113 3319 
L 525 3319 
L 525 4141 
L 1084 4478 
L 1084 3319 
L 1650 3319 
L 1650 2881 
L 1084 2881 
L 1084 941 
Q 1084 700 1114 631 
Q 1144 563 1211 522 
Q 1278 481 1403 481 
Q 1497 481 1650 503 
z
" transform="scale(0.015625)"/>
      </defs>
      <use xlink:href="#ArialMT-43"/>
      <use xlink:href="#ArialMT-6f" transform="translate(72.216797 0)"/>
      <use xlink:href="#ArialMT-65" transform="translate(127.832031 0)"/>
      <use xlink:href="#ArialMT-66" transform="translate(183.447266 0)"/>
      <use xlink:href="#ArialMT-66" transform="translate(209.480469 0)"/>
      <use xlink:href="#ArialMT-69" transform="translate(237.263672 0)"/>
      <use xlink:href="#ArialMT-63" transform="translate(259.480469 0)"/>
      <use xlink:href="#ArialMT-69" transform="translate(309.480469 0)"/>
      <use xlink:href="#ArialMT-65" transform="translate(331.697266 0)"/>
      <use xlink:href="#ArialMT-6e" transform="translate(387.3125 0)"/>
      <use xlink:href="#ArialMT-74" transform="translate(442.927734 0)"/>
     </g>
    </g>
   </g>
   <g id="matplotlib.axis_2">
    <g id="ytick_1">
     <g id="line2d_13">
      <path d="M 95.760938 438.553831 
L 561.289509 438.553831 
" clip-path="url(#p3e4cc8b06a)" style="fill: none; stroke: #cccccc; stroke-width: 0.8; stroke-linecap: round"/>
     </g>
     <g id="line2d_14"/>
     <g id="text_8">
      <!-- bb_lower_20 -->
      <g style="fill: #262626" transform="translate(35 442.147581) scale(0.1 -0.1)">
       <defs>
        <path id="ArialMT-62" d="M 941 0 
L 419 0 
L 419 4581 
L 981 4581 
L 981 2947 
Q 1338 3394 1891 3394 
Q 2197 3394 2470 3270 
Q 2744 3147 2920 2923 
Q 3097 2700 3197 2384 
Q 3297 2069 3297 1709 
Q 3297 856 2875 390 
Q 2453 -75 1863 -75 
Q 1275 -75 941 416 
L 941 0 
z
M 934 1684 
Q 934 1088 1097 822 
Q 1363 388 1816 388 
Q 2184 388 2453 708 
Q 2722 1028 2722 1663 
Q 2722 2313 2464 2622 
Q 2206 2931 1841 2931 
Q 1472 2931 1203 2611 
Q 934 2291 934 1684 
z
" transform="scale(0.015625)"/>
        <path id="ArialMT-5f" d="M -97 -1272 
L -97 -866 
L 3631 -866 
L 3631 -1272 
L -97 -1272 
z
" transform="scale(0.015625)"/>
        <path id="ArialMT-6c" d="M 409 0 
L 409 4581 
L 972 4581 
L 972 0 
L 409 0 
z
" transform="scale(0.015625)"/>
        <path id="ArialMT-77" d="M 1034 0 
L 19 3319 
L 600 3319 
L 1128 1403 
L 1325 691 
Q 1338 744 1497 1375 
L 2025 3319 
L 2603 3319 
L 3100 1394 
L 3266 759 
L 3456 1400 
L 4025 3319 
L 4572 3319 
L 3534 0 
L 2950 0 
L 2422 1988 
L 2294 2553 
L 1622 0 
L 1034 0 
z
" transform="scale(0.015625)"/>
        <path id="ArialMT-72" d="M 416 0 
L 416 3319 
L 922 3319 
L 922 2816 
Q 1116 3169 1280 3281 
Q 1444 3394 1641 3394 
Q 1925 3394 2219 3213 
L 2025 2691 
Q 1819 2813 1613 2813 
Q 1428 2813 1281 2702 
Q 1134 2591 1072 2394 
Q 978 2094 978 1738 
L 978 0 
L 416 0 
z
" transform="scale(0.015625)"/>
       </defs>
       <use xlink:href="#ArialMT-62"/>
       <use xlink:href="#ArialMT-62" transform="translate(55.615234 0)"/>
       <use xlink:href="#ArialMT-5f" transform="translate(111.230469 0)"/>
       <use xlink:href="#ArialMT-6c" transform="translate(166.845703 0)"/>
       <use xlink:href="#ArialMT-6f" transform="translate(189.0625 0)"/>
       <use xlink:href="#ArialMT-77" transform="translate(244.677734 0)"/>
       <use xlink:href="#ArialMT-65" transform="translate(316.894531 0)"/>
       <use xlink:href="#ArialMT-72" transform="translate(372.509766 0)"/>
       <use xlink:href="#ArialMT-5f" transform="translate(405.810547 0)"/>
       <use xlink:href="#ArialMT-32" transform="translate(461.425781 0)"/>
       <use xlink:href="#ArialMT-30" transform="translate(517.041016 0)"/>
      </g>
     </g>
    </g>
    <g id="ytick_2">
     <g id="line2d_15">
      <path d="M 95.760938 425.066677 
L 561.289509 425.066677 
" clip-path="url(#p3e4cc8b06a)" style="fill: none; stroke: #cccccc; stroke-width: 0.8; stroke-linecap: round"/>
     </g>
     <g id="line2d_16"/>
     <g id="text_9">
      <!-- close_over_ma_20 -->
      <g style="fill: #262626" transform="translate(7.770313 428.660427) scale(0.1 -0.1)">
       <defs>
        <path id="ArialMT-73" d="M 197 991 
L 753 1078 
Q 800 744 1014 566 
Q 1228 388 1613 388 
Q 2000 388 2187 545 
Q 2375 703 2375 916 
Q 2375 1106 2209 1216 
Q 2094 1291 1634 1406 
Q 1016 1563 777 1677 
Q 538 1791 414 1992 
Q 291 2194 291 2438 
Q 291 2659 392 2848 
Q 494 3038 669 3163 
Q 800 3259 1026 3326 
Q 1253 3394 1513 3394 
Q 1903 3394 2198 3281 
Q 2494 3169 2634 2976 
Q 2775 2784 2828 2463 
L 2278 2388 
Q 2241 2644 2061 2787 
Q 1881 2931 1553 2931 
Q 1166 2931 1000 2803 
Q 834 2675 834 2503 
Q 834 2394 903 2306 
Q 972 2216 1119 2156 
Q 1203 2125 1616 2013 
Q 2213 1853 2448 1751 
Q 2684 1650 2818 1456 
Q 2953 1263 2953 975 
Q 2953 694 2789 445 
Q 2625 197 2315 61 
Q 2006 -75 1616 -75 
Q 969 -75 630 194 
Q 291 463 197 991 
z
" transform="scale(0.015625)"/>
        <path id="ArialMT-76" d="M 1344 0 
L 81 3319 
L 675 3319 
L 1388 1331 
Q 1503 1009 1600 663 
Q 1675 925 1809 1294 
L 2547 3319 
L 3125 3319 
L 1869 0 
L 1344 0 
z
" transform="scale(0.015625)"/>
        <path id="ArialMT-6d" d="M 422 0 
L 422 3319 
L 925 3319 
L 925 2853 
Q 1081 3097 1340 3245 
Q 1600 3394 1931 3394 
Q 2300 3394 2536 3241 
Q 2772 3088 2869 2813 
Q 3263 3394 3894 3394 
Q 4388 3394 4653 3120 
Q 4919 2847 4919 2278 
L 4919 0 
L 4359 0 
L 4359 2091 
Q 4359 2428 4304 2576 
Q 4250 2725 4106 2815 
Q 3963 2906 3769 2906 
Q 3419 2906 3187 2673 
Q 2956 2441 2956 1928 
L 2956 0 
L 2394 0 
L 2394 2156 
Q 2394 2531 2256 2718 
Q 2119 2906 1806 2906 
Q 1569 2906 1367 2781 
Q 1166 2656 1075 2415 
Q 984 2175 984 1722 
L 984 0 
L 422 0 
z
" transform="scale(0.015625)"/>
        <path id="ArialMT-61" d="M 2588 409 
Q 2275 144 1986 34 
Q 1697 -75 1366 -75 
Q 819 -75 525 192 
Q 231 459 231 875 
Q 231 1119 342 1320 
Q 453 1522 633 1644 
Q 813 1766 1038 1828 
Q 1203 1872 1538 1913 
Q 2219 1994 2541 2106 
Q 2544 2222 2544 2253 
Q 2544 2597 2384 2738 
Q 2169 2928 1744 2928 
Q 1347 2928 1158 2789 
Q 969 2650 878 2297 
L 328 2372 
Q 403 2725 575 2942 
Q 747 3159 1072 3276 
Q 1397 3394 1825 3394 
Q 2250 3394 2515 3294 
Q 2781 3194 2906 3042 
Q 3031 2891 3081 2659 
Q 3109 2516 3109 2141 
L 3109 1391 
Q 3109 606 3145 398 
Q 3181 191 3288 0 
L 2700 0 
Q 2613 175 2588 409 
z
M 2541 1666 
Q 2234 1541 1622 1453 
Q 1275 1403 1131 1340 
Q 988 1278 909 1158 
Q 831 1038 831 891 
Q 831 666 1001 516 
Q 1172 366 1500 366 
Q 1825 366 2078 508 
Q 2331 650 2450 897 
Q 2541 1088 2541 1459 
L 2541 1666 
z
" transform="scale(0.015625)"/>
       </defs>
       <use xlink:href="#ArialMT-63"/>
       <use xlink:href="#ArialMT-6c" transform="translate(50 0)"/>
       <use xlink:href="#ArialMT-6f" transform="translate(72.216797 0)"/>
       <use xlink:href="#ArialMT-73" transform="translate(127.832031 0)"/>
       <use xlink:href="#ArialMT-65" transform="translate(177.832031 0)"/>
       <use xlink:href="#ArialMT-5f" transform="translate(233.447266 0)"/>
       <use xlink:href="#ArialMT-6f" transform="translate(289.0625 0)"/>
       <use xlink:href="#ArialMT-76" transform="translate(344.677734 0)"/>
       <use xlink:href="#ArialMT-65" transform="translate(394.677734 0)"/>
       <use xlink:href="#ArialMT-72" transform="translate(450.292969 0)"/>
       <use xlink:href="#ArialMT-5f" transform="translate(483.59375 0)"/>
       <use xlink:href="#ArialMT-6d" transform="translate(539.208984 0)"/>
       <use xlink:href="#ArialMT-61" transform="translate(622.509766 0)"/>
       <use xlink:href="#ArialMT-5f" transform="translate(678.125 0)"/>
       <use xlink:href="#ArialMT-32" transform="translate(733.740234 0)"/>
       <use xlink:href="#ArialMT-30" transform="translate(789.355469 0)"/>
      </g>
     </g>
    </g>
    <g id="ytick_3">
     <g id="line2d_17">
      <path d="M 95.760938 411.579522 
L 561.289509 411.579522 
" clip-path="url(#p3e4cc8b06a)" style="fill: none; stroke: #cccccc; stroke-width: 0.8; stroke-linecap: round"/>
     </g>
     <g id="line2d_18"/>
     <g id="text_10">
      <!-- close -->
      <g style="fill: #262626" transform="translate(68.917188 415.158428) scale(0.1 -0.1)">
       <use xlink:href="#ArialMT-63"/>
       <use xlink:href="#ArialMT-6c" transform="translate(50 0)"/>
       <use xlink:href="#ArialMT-6f" transform="translate(72.216797 0)"/>
       <use xlink:href="#ArialMT-73" transform="translate(127.832031 0)"/>
       <use xlink:href="#ArialMT-65" transform="translate(177.832031 0)"/>
      </g>
     </g>
    </g>
    <g id="ytick_4">
     <g id="line2d_19">
      <path d="M 95.760938 398.092367 
L 561.289509 398.092367 
" clip-path="url(#p3e4cc8b06a)" style="fill: none; stroke: #cccccc; stroke-width: 0.8; stroke-linecap: round"/>
     </g>
     <g id="line2d_20"/>
     <g id="text_11">
      <!-- low -->
      <g style="fill: #262626" transform="translate(77.25625 401.671274) scale(0.1 -0.1)">
       <use xlink:href="#ArialMT-6c"/>
       <use xlink:href="#ArialMT-6f" transform="translate(22.216797 0)"/>
       <use xlink:href="#ArialMT-77" transform="translate(77.832031 0)"/>
      </g>
     </g>
    </g>
    <g id="ytick_5">
     <g id="line2d_21">
      <path d="M 95.760938 384.605213 
L 561.289509 384.605213 
" clip-path="url(#p3e4cc8b06a)" style="fill: none; stroke: #cccccc; stroke-width: 0.8; stroke-linecap: round"/>
     </g>
     <g id="line2d_22"/>
     <g id="text_12">
      <!-- high -->
      <g style="fill: #262626" transform="translate(73.35625 388.184119) scale(0.1 -0.1)">
       <defs>
        <path id="ArialMT-68" d="M 422 0 
L 422 4581 
L 984 4581 
L 984 2938 
Q 1378 3394 1978 3394 
Q 2347 3394 2619 3248 
Q 2891 3103 3008 2847 
Q 3125 2591 3125 2103 
L 3125 0 
L 2563 0 
L 2563 2103 
Q 2563 2525 2380 2717 
Q 2197 2909 1863 2909 
Q 1613 2909 1392 2779 
Q 1172 2650 1078 2428 
Q 984 2206 984 1816 
L 984 0 
L 422 0 
z
" transform="scale(0.015625)"/>
        <path id="ArialMT-67" d="M 319 -275 
L 866 -356 
Q 900 -609 1056 -725 
Q 1266 -881 1628 -881 
Q 2019 -881 2231 -725 
Q 2444 -569 2519 -288 
Q 2563 -116 2559 434 
Q 2191 0 1641 0 
Q 956 0 581 494 
Q 206 988 206 1678 
Q 206 2153 378 2554 
Q 550 2956 876 3175 
Q 1203 3394 1644 3394 
Q 2231 3394 2613 2919 
L 2613 3319 
L 3131 3319 
L 3131 450 
Q 3131 -325 2973 -648 
Q 2816 -972 2473 -1159 
Q 2131 -1347 1631 -1347 
Q 1038 -1347 672 -1080 
Q 306 -813 319 -275 
z
M 784 1719 
Q 784 1066 1043 766 
Q 1303 466 1694 466 
Q 2081 466 2343 764 
Q 2606 1063 2606 1700 
Q 2606 2309 2336 2618 
Q 2066 2928 1684 2928 
Q 1309 2928 1046 2623 
Q 784 2319 784 1719 
z
" transform="scale(0.015625)"/>
       </defs>
       <use xlink:href="#ArialMT-68"/>
       <use xlink:href="#ArialMT-69" transform="translate(55.615234 0)"/>
       <use xlink:href="#ArialMT-67" transform="translate(77.832031 0)"/>
       <use xlink:href="#ArialMT-68" transform="translate(133.447266 0)"/>
      </g>
     </g>
    </g>
    <g id="ytick_6">
     <g id="line2d_23">
      <path d="M 95.760938 371.118058 
L 561.289509 371.118058 
" clip-path="url(#p3e4cc8b06a)" style="fill: none; stroke: #cccccc; stroke-width: 0.8; stroke-linecap: round"/>
     </g>
     <g id="line2d_24"/>
     <g id="text_13">
      <!-- volume -->
      <g style="fill: #262626" transform="translate(60.026563 374.696964) scale(0.1 -0.1)">
       <defs>
        <path id="ArialMT-75" d="M 2597 0 
L 2597 488 
Q 2209 -75 1544 -75 
Q 1250 -75 995 37 
Q 741 150 617 320 
Q 494 491 444 738 
Q 409 903 409 1263 
L 409 3319 
L 972 3319 
L 972 1478 
Q 972 1038 1006 884 
Q 1059 663 1231 536 
Q 1403 409 1656 409 
Q 1909 409 2131 539 
Q 2353 669 2445 892 
Q 2538 1116 2538 1541 
L 2538 3319 
L 3100 3319 
L 3100 0 
L 2597 0 
z
" transform="scale(0.015625)"/>
       </defs>
       <use xlink:href="#ArialMT-76"/>
       <use xlink:href="#ArialMT-6f" transform="translate(50 0)"/>
       <use xlink:href="#ArialMT-6c" transform="translate(105.615234 0)"/>
       <use xlink:href="#ArialMT-75" transform="translate(127.832031 0)"/>
       <use xlink:href="#ArialMT-6d" transform="translate(183.447266 0)"/>
       <use xlink:href="#ArialMT-65" transform="translate(266.748047 0)"/>
      </g>
     </g>
    </g>
    <g id="ytick_7">
     <g id="line2d_25">
      <path d="M 95.760938 357.630904 
L 561.289509 357.630904 
" clip-path="url(#p3e4cc8b06a)" style="fill: none; stroke: #cccccc; stroke-width: 0.8; stroke-linecap: round"/>
     </g>
     <g id="line2d_26"/>
     <g id="text_14">
      <!-- volatility_20 -->
      <g style="fill: #262626" transform="translate(40.0125 361.224654) scale(0.1 -0.1)">
       <defs>
        <path id="ArialMT-79" d="M 397 -1278 
L 334 -750 
Q 519 -800 656 -800 
Q 844 -800 956 -737 
Q 1069 -675 1141 -563 
Q 1194 -478 1313 -144 
Q 1328 -97 1363 -6 
L 103 3319 
L 709 3319 
L 1400 1397 
Q 1534 1031 1641 628 
Q 1738 1016 1872 1384 
L 2581 3319 
L 3144 3319 
L 1881 -56 
Q 1678 -603 1566 -809 
Q 1416 -1088 1222 -1217 
Q 1028 -1347 759 -1347 
Q 597 -1347 397 -1278 
z
" transform="scale(0.015625)"/>
       </defs>
       <use xlink:href="#ArialMT-76"/>
       <use xlink:href="#ArialMT-6f" transform="translate(50 0)"/>
       <use xlink:href="#ArialMT-6c" transform="translate(105.615234 0)"/>
       <use xlink:href="#ArialMT-61" transform="translate(127.832031 0)"/>
       <use xlink:href="#ArialMT-74" transform="translate(183.447266 0)"/>
       <use xlink:href="#ArialMT-69" transform="translate(211.230469 0)"/>
       <use xlink:href="#ArialMT-6c" transform="translate(233.447266 0)"/>
       <use xlink:href="#ArialMT-69" transform="translate(255.664062 0)"/>
       <use xlink:href="#ArialMT-74" transform="translate(277.880859 0)"/>
       <use xlink:href="#ArialMT-79" transform="translate(305.664062 0)"/>
       <use xlink:href="#ArialMT-5f" transform="translate(355.664062 0)"/>
       <use xlink:href="#ArialMT-32" transform="translate(411.279297 0)"/>
       <use xlink:href="#ArialMT-30" transform="translate(466.894531 0)"/>
      </g>
     </g>
    </g>
    <g id="ytick_8">
     <g id="line2d_27">
      <path d="M 95.760938 344.143749 
L 561.289509 344.143749 
" clip-path="url(#p3e4cc8b06a)" style="fill: none; stroke: #cccccc; stroke-width: 0.8; stroke-linecap: round"/>
     </g>
     <g id="line2d_28"/>
     <g id="text_15">
      <!-- low_close_ratio -->
      <g style="fill: #262626" transform="translate(23.339063 347.722655) scale(0.1 -0.1)">
       <use xlink:href="#ArialMT-6c"/>
       <use xlink:href="#ArialMT-6f" transform="translate(22.216797 0)"/>
       <use xlink:href="#ArialMT-77" transform="translate(77.832031 0)"/>
       <use xlink:href="#ArialMT-5f" transform="translate(150.048828 0)"/>
       <use xlink:href="#ArialMT-63" transform="translate(205.664062 0)"/>
       <use xlink:href="#ArialMT-6c" transform="translate(255.664062 0)"/>
       <use xlink:href="#ArialMT-6f" transform="translate(277.880859 0)"/>
       <use xlink:href="#ArialMT-73" transform="translate(333.496094 0)"/>
       <use xlink:href="#ArialMT-65" transform="translate(383.496094 0)"/>
       <use xlink:href="#ArialMT-5f" transform="translate(439.111328 0)"/>
       <use xlink:href="#ArialMT-72" transform="translate(494.726562 0)"/>
       <use xlink:href="#ArialMT-61" transform="translate(528.027344 0)"/>
       <use xlink:href="#ArialMT-74" transform="translate(583.642578 0)"/>
       <use xlink:href="#ArialMT-69" transform="translate(611.425781 0)"/>
       <use xlink:href="#ArialMT-6f" transform="translate(633.642578 0)"/>
      </g>
     </g>
    </g>
    <g id="ytick_9">
     <g id="line2d_29">
      <path d="M 95.760938 330.656594 
L 561.289509 330.656594 
" clip-path="url(#p3e4cc8b06a)" style="fill: none; stroke: #cccccc; stroke-width: 0.8; stroke-linecap: round"/>
     </g>
     <g id="line2d_30"/>
     <g id="text_16">
      <!-- volatility_5 -->
      <g style="fill: #262626" transform="translate(45.573438 334.235501) scale(0.1 -0.1)">
       <defs>
        <path id="ArialMT-35" d="M 266 1200 
L 856 1250 
Q 922 819 1161 601 
Q 1400 384 1738 384 
Q 2144 384 2425 690 
Q 2706 997 2706 1503 
Q 2706 1984 2436 2262 
Q 2166 2541 1728 2541 
Q 1456 2541 1237 2417 
Q 1019 2294 894 2097 
L 366 2166 
L 809 4519 
L 3088 4519 
L 3088 3981 
L 1259 3981 
L 1013 2750 
Q 1425 3038 1878 3038 
Q 2478 3038 2890 2622 
Q 3303 2206 3303 1553 
Q 3303 931 2941 478 
Q 2500 -78 1738 -78 
Q 1113 -78 717 272 
Q 322 622 266 1200 
z
" transform="scale(0.015625)"/>
       </defs>
       <use xlink:href="#ArialMT-76"/>
       <use xlink:href="#ArialMT-6f" transform="translate(50 0)"/>
       <use xlink:href="#ArialMT-6c" transform="translate(105.615234 0)"/>
       <use xlink:href="#ArialMT-61" transform="translate(127.832031 0)"/>
       <use xlink:href="#ArialMT-74" transform="translate(183.447266 0)"/>
       <use xlink:href="#ArialMT-69" transform="translate(211.230469 0)"/>
       <use xlink:href="#ArialMT-6c" transform="translate(233.447266 0)"/>
       <use xlink:href="#ArialMT-69" transform="translate(255.664062 0)"/>
       <use xlink:href="#ArialMT-74" transform="translate(277.880859 0)"/>
       <use xlink:href="#ArialMT-79" transform="translate(305.664062 0)"/>
       <use xlink:href="#ArialMT-5f" transform="translate(355.664062 0)"/>
       <use xlink:href="#ArialMT-35" transform="translate(411.279297 0)"/>
      </g>
     </g>
    </g>
    <g id="ytick_10">
     <g id="line2d_31">
      <path d="M 95.760938 317.16944 
L 561.289509 317.16944 
" clip-path="url(#p3e4cc8b06a)" style="fill: none; stroke: #cccccc; stroke-width: 0.8; stroke-linecap: round"/>
     </g>
     <g id="line2d_32"/>
     <g id="text_17">
      <!-- close_to_bb_lower -->
      <g style="fill: #262626" transform="translate(8.878125 320.748346) scale(0.1 -0.1)">
       <use xlink:href="#ArialMT-63"/>
       <use xlink:href="#ArialMT-6c" transform="translate(50 0)"/>
       <use xlink:href="#ArialMT-6f" transform="translate(72.216797 0)"/>
       <use xlink:href="#ArialMT-73" transform="translate(127.832031 0)"/>
       <use xlink:href="#ArialMT-65" transform="translate(177.832031 0)"/>
       <use xlink:href="#ArialMT-5f" transform="translate(233.447266 0)"/>
       <use xlink:href="#ArialMT-74" transform="translate(289.0625 0)"/>
       <use xlink:href="#ArialMT-6f" transform="translate(316.845703 0)"/>
       <use xlink:href="#ArialMT-5f" transform="translate(372.460938 0)"/>
       <use xlink:href="#ArialMT-62" transform="translate(428.076172 0)"/>
       <use xlink:href="#ArialMT-62" transform="translate(483.691406 0)"/>
       <use xlink:href="#ArialMT-5f" transform="translate(539.306641 0)"/>
       <use xlink:href="#ArialMT-6c" transform="translate(594.921875 0)"/>
       <use xlink:href="#ArialMT-6f" transform="translate(617.138672 0)"/>
       <use xlink:href="#ArialMT-77" transform="translate(672.753906 0)"/>
       <use xlink:href="#ArialMT-65" transform="translate(744.970703 0)"/>
       <use xlink:href="#ArialMT-72" transform="translate(800.585938 0)"/>
      </g>
     </g>
    </g>
    <g id="ytick_11">
     <g id="line2d_33">
      <path d="M 95.760938 303.682285 
L 561.289509 303.682285 
" clip-path="url(#p3e4cc8b06a)" style="fill: none; stroke: #cccccc; stroke-width: 0.8; stroke-linecap: round"/>
     </g>
     <g id="line2d_34"/>
     <g id="text_18">
      <!-- close_lag_1 -->
      <g style="fill: #262626" transform="translate(38.890625 307.276035) scale(0.1 -0.1)">
       <defs>
        <path id="ArialMT-31" d="M 2384 0 
L 1822 0 
L 1822 3584 
Q 1619 3391 1289 3197 
Q 959 3003 697 2906 
L 697 3450 
Q 1169 3672 1522 3987 
Q 1875 4303 2022 4600 
L 2384 4600 
L 2384 0 
z
" transform="scale(0.015625)"/>
       </defs>
       <use xlink:href="#ArialMT-63"/>
       <use xlink:href="#ArialMT-6c" transform="translate(50 0)"/>
       <use xlink:href="#ArialMT-6f" transform="translate(72.216797 0)"/>
       <use xlink:href="#ArialMT-73" transform="translate(127.832031 0)"/>
       <use xlink:href="#ArialMT-65" transform="translate(177.832031 0)"/>
       <use xlink:href="#ArialMT-5f" transform="translate(233.447266 0)"/>
       <use xlink:href="#ArialMT-6c" transform="translate(289.0625 0)"/>
       <use xlink:href="#ArialMT-61" transform="translate(311.279297 0)"/>
       <use xlink:href="#ArialMT-67" transform="translate(366.894531 0)"/>
       <use xlink:href="#ArialMT-5f" transform="translate(422.509766 0)"/>
       <use xlink:href="#ArialMT-31" transform="translate(478.125 0)"/>
      </g>
     </g>
    </g>
    <g id="ytick_12">
     <g id="line2d_35">
      <path d="M 95.760938 290.19513 
L 561.289509 290.19513 
" clip-path="url(#p3e4cc8b06a)" style="fill: none; stroke: #cccccc; stroke-width: 0.8; stroke-linecap: round"/>
     </g>
     <g id="line2d_36"/>
     <g id="text_19">
      <!-- close_lag_2 -->
      <g style="fill: #262626" transform="translate(38.890625 293.78888) scale(0.1 -0.1)">
       <use xlink:href="#ArialMT-63"/>
       <use xlink:href="#ArialMT-6c" transform="translate(50 0)"/>
       <use xlink:href="#ArialMT-6f" transform="translate(72.216797 0)"/>
       <use xlink:href="#ArialMT-73" transform="translate(127.832031 0)"/>
       <use xlink:href="#ArialMT-65" transform="translate(177.832031 0)"/>
       <use xlink:href="#ArialMT-5f" transform="translate(233.447266 0)"/>
       <use xlink:href="#ArialMT-6c" transform="translate(289.0625 0)"/>
       <use xlink:href="#ArialMT-61" transform="translate(311.279297 0)"/>
       <use xlink:href="#ArialMT-67" transform="translate(366.894531 0)"/>
       <use xlink:href="#ArialMT-5f" transform="translate(422.509766 0)"/>
       <use xlink:href="#ArialMT-32" transform="translate(478.125 0)"/>
      </g>
     </g>
    </g>
    <g id="ytick_13">
     <g id="line2d_37">
      <path d="M 95.760938 276.707976 
L 561.289509 276.707976 
" clip-path="url(#p3e4cc8b06a)" style="fill: none; stroke: #cccccc; stroke-width: 0.8; stroke-linecap: round"/>
     </g>
     <g id="line2d_38"/>
     <g id="text_20">
      <!-- log_return_1d -->
      <g style="fill: #262626" transform="translate(30.553125 280.301726) scale(0.1 -0.1)">
       <defs>
        <path id="ArialMT-64" d="M 2575 0 
L 2575 419 
Q 2259 -75 1647 -75 
Q 1250 -75 917 144 
Q 584 363 401 755 
Q 219 1147 219 1656 
Q 219 2153 384 2558 
Q 550 2963 881 3178 
Q 1213 3394 1622 3394 
Q 1922 3394 2156 3267 
Q 2391 3141 2538 2938 
L 2538 4581 
L 3097 4581 
L 3097 0 
L 2575 0 
z
M 797 1656 
Q 797 1019 1065 703 
Q 1334 388 1700 388 
Q 2069 388 2326 689 
Q 2584 991 2584 1609 
Q 2584 2291 2321 2609 
Q 2059 2928 1675 2928 
Q 1300 2928 1048 2622 
Q 797 2316 797 1656 
z
" transform="scale(0.015625)"/>
       </defs>
       <use xlink:href="#ArialMT-6c"/>
       <use xlink:href="#ArialMT-6f" transform="translate(22.216797 0)"/>
       <use xlink:href="#ArialMT-67" transform="translate(77.832031 0)"/>
       <use xlink:href="#ArialMT-5f" transform="translate(133.447266 0)"/>
       <use xlink:href="#ArialMT-72" transform="translate(189.0625 0)"/>
       <use xlink:href="#ArialMT-65" transform="translate(222.363281 0)"/>
       <use xlink:href="#ArialMT-74" transform="translate(277.978516 0)"/>
       <use xlink:href="#ArialMT-75" transform="translate(305.761719 0)"/>
       <use xlink:href="#ArialMT-72" transform="translate(361.376953 0)"/>
       <use xlink:href="#ArialMT-6e" transform="translate(394.677734 0)"/>
       <use xlink:href="#ArialMT-5f" transform="translate(450.292969 0)"/>
       <use xlink:href="#ArialMT-31" transform="translate(505.908203 0)"/>
       <use xlink:href="#ArialMT-64" transform="translate(561.523438 0)"/>
      </g>
     </g>
    </g>
    <g id="ytick_14">
     <g id="line2d_39">
      <path d="M 95.760938 263.220821 
L 561.289509 263.220821 
" clip-path="url(#p3e4cc8b06a)" style="fill: none; stroke: #cccccc; stroke-width: 0.8; stroke-linecap: round"/>
     </g>
     <g id="line2d_40"/>
     <g id="text_21">
      <!-- AAPL_return_1d -->
      <g style="fill: #262626" transform="translate(18.325 266.814571) scale(0.1 -0.1)">
       <defs>
        <path id="ArialMT-41" d="M -9 0 
L 1750 4581 
L 2403 4581 
L 4278 0 
L 3588 0 
L 3053 1388 
L 1138 1388 
L 634 0 
L -9 0 
z
M 1313 1881 
L 2866 1881 
L 2388 3150 
Q 2169 3728 2063 4100 
Q 1975 3659 1816 3225 
L 1313 1881 
z
" transform="scale(0.015625)"/>
        <path id="ArialMT-50" d="M 494 0 
L 494 4581 
L 2222 4581 
Q 2678 4581 2919 4538 
Q 3256 4481 3484 4323 
Q 3713 4166 3852 3881 
Q 3991 3597 3991 3256 
Q 3991 2672 3619 2267 
Q 3247 1863 2275 1863 
L 1100 1863 
L 1100 0 
L 494 0 
z
M 1100 2403 
L 2284 2403 
Q 2872 2403 3119 2622 
Q 3366 2841 3366 3238 
Q 3366 3525 3220 3729 
Q 3075 3934 2838 4000 
Q 2684 4041 2272 4041 
L 1100 4041 
L 1100 2403 
z
" transform="scale(0.015625)"/>
        <path id="ArialMT-4c" d="M 469 0 
L 469 4581 
L 1075 4581 
L 1075 541 
L 3331 541 
L 3331 0 
L 469 0 
z
" transform="scale(0.015625)"/>
       </defs>
       <use xlink:href="#ArialMT-41"/>
       <use xlink:href="#ArialMT-41" transform="translate(66.699219 0)"/>
       <use xlink:href="#ArialMT-50" transform="translate(133.398438 0)"/>
       <use xlink:href="#ArialMT-4c" transform="translate(200.097656 0)"/>
       <use xlink:href="#ArialMT-5f" transform="translate(255.712891 0)"/>
       <use xlink:href="#ArialMT-72" transform="translate(311.328125 0)"/>
       <use xlink:href="#ArialMT-65" transform="translate(344.628906 0)"/>
       <use xlink:href="#ArialMT-74" transform="translate(400.244141 0)"/>
       <use xlink:href="#ArialMT-75" transform="translate(428.027344 0)"/>
       <use xlink:href="#ArialMT-72" transform="translate(483.642578 0)"/>
       <use xlink:href="#ArialMT-6e" transform="translate(516.943359 0)"/>
       <use xlink:href="#ArialMT-5f" transform="translate(572.558594 0)"/>
       <use xlink:href="#ArialMT-31" transform="translate(628.173828 0)"/>
       <use xlink:href="#ArialMT-64" transform="translate(683.789062 0)"/>
      </g>
     </g>
    </g>
    <g id="ytick_15">
     <g id="line2d_41">
      <path d="M 95.760938 249.733667 
L 561.289509 249.733667 
" clip-path="url(#p3e4cc8b06a)" style="fill: none; stroke: #cccccc; stroke-width: 0.8; stroke-linecap: round"/>
     </g>
     <g id="line2d_42"/>
     <g id="text_22">
      <!-- USO_return_1d -->
      <g style="fill: #262626" transform="translate(22.226563 253.376635) scale(0.1 -0.1)">
       <defs>
        <path id="ArialMT-55" d="M 3500 4581 
L 4106 4581 
L 4106 1934 
Q 4106 1244 3950 837 
Q 3794 431 3386 176 
Q 2978 -78 2316 -78 
Q 1672 -78 1262 144 
Q 853 366 678 786 
Q 503 1206 503 1934 
L 503 4581 
L 1109 4581 
L 1109 1938 
Q 1109 1341 1220 1058 
Q 1331 775 1601 622 
Q 1872 469 2263 469 
Q 2931 469 3215 772 
Q 3500 1075 3500 1938 
L 3500 4581 
z
" transform="scale(0.015625)"/>
        <path id="ArialMT-53" d="M 288 1472 
L 859 1522 
Q 900 1178 1048 958 
Q 1197 738 1509 602 
Q 1822 466 2213 466 
Q 2559 466 2825 569 
Q 3091 672 3220 851 
Q 3350 1031 3350 1244 
Q 3350 1459 3225 1620 
Q 3100 1781 2813 1891 
Q 2628 1963 1997 2114 
Q 1366 2266 1113 2400 
Q 784 2572 623 2826 
Q 463 3081 463 3397 
Q 463 3744 659 4045 
Q 856 4347 1234 4503 
Q 1613 4659 2075 4659 
Q 2584 4659 2973 4495 
Q 3363 4331 3572 4012 
Q 3781 3694 3797 3291 
L 3216 3247 
Q 3169 3681 2898 3903 
Q 2628 4125 2100 4125 
Q 1550 4125 1298 3923 
Q 1047 3722 1047 3438 
Q 1047 3191 1225 3031 
Q 1400 2872 2139 2705 
Q 2878 2538 3153 2413 
Q 3553 2228 3743 1945 
Q 3934 1663 3934 1294 
Q 3934 928 3725 604 
Q 3516 281 3123 101 
Q 2731 -78 2241 -78 
Q 1619 -78 1198 103 
Q 778 284 539 648 
Q 300 1013 288 1472 
z
" transform="scale(0.015625)"/>
        <path id="ArialMT-4f" d="M 309 2231 
Q 309 3372 921 4017 
Q 1534 4663 2503 4663 
Q 3138 4663 3647 4359 
Q 4156 4056 4423 3514 
Q 4691 2972 4691 2284 
Q 4691 1588 4409 1038 
Q 4128 488 3612 205 
Q 3097 -78 2500 -78 
Q 1853 -78 1343 234 
Q 834 547 571 1087 
Q 309 1628 309 2231 
z
M 934 2222 
Q 934 1394 1379 917 
Q 1825 441 2497 441 
Q 3181 441 3623 922 
Q 4066 1403 4066 2288 
Q 4066 2847 3877 3264 
Q 3688 3681 3323 3911 
Q 2959 4141 2506 4141 
Q 1863 4141 1398 3698 
Q 934 3256 934 2222 
z
" transform="scale(0.015625)"/>
       </defs>
       <use xlink:href="#ArialMT-55"/>
       <use xlink:href="#ArialMT-53" transform="translate(72.216797 0)"/>
       <use xlink:href="#ArialMT-4f" transform="translate(138.916016 0)"/>
       <use xlink:href="#ArialMT-5f" transform="translate(216.699219 0)"/>
       <use xlink:href="#ArialMT-72" transform="translate(272.314453 0)"/>
       <use xlink:href="#ArialMT-65" transform="translate(305.615234 0)"/>
       <use xlink:href="#ArialMT-74" transform="translate(361.230469 0)"/>
       <use xlink:href="#ArialMT-75" transform="translate(389.013672 0)"/>
       <use xlink:href="#ArialMT-72" transform="translate(444.628906 0)"/>
       <use xlink:href="#ArialMT-6e" transform="translate(477.929688 0)"/>
       <use xlink:href="#ArialMT-5f" transform="translate(533.544922 0)"/>
       <use xlink:href="#ArialMT-31" transform="translate(589.160156 0)"/>
       <use xlink:href="#ArialMT-64" transform="translate(644.775391 0)"/>
      </g>
     </g>
    </g>
    <g id="ytick_16">
     <g id="line2d_43">
      <path d="M 95.760938 236.246512 
L 561.289509 236.246512 
" clip-path="url(#p3e4cc8b06a)" style="fill: none; stroke: #cccccc; stroke-width: 0.8; stroke-linecap: round"/>
     </g>
     <g id="line2d_44"/>
     <g id="text_23">
      <!-- volume_change -->
      <g style="fill: #262626" transform="translate(21.660938 239.825418) scale(0.1 -0.1)">
       <use xlink:href="#ArialMT-76"/>
       <use xlink:href="#ArialMT-6f" transform="translate(50 0)"/>
       <use xlink:href="#ArialMT-6c" transform="translate(105.615234 0)"/>
       <use xlink:href="#ArialMT-75" transform="translate(127.832031 0)"/>
       <use xlink:href="#ArialMT-6d" transform="translate(183.447266 0)"/>
       <use xlink:href="#ArialMT-65" transform="translate(266.748047 0)"/>
       <use xlink:href="#ArialMT-5f" transform="translate(322.363281 0)"/>
       <use xlink:href="#ArialMT-63" transform="translate(377.978516 0)"/>
       <use xlink:href="#ArialMT-68" transform="translate(427.978516 0)"/>
       <use xlink:href="#ArialMT-61" transform="translate(483.59375 0)"/>
       <use xlink:href="#ArialMT-6e" transform="translate(539.208984 0)"/>
       <use xlink:href="#ArialMT-67" transform="translate(594.824219 0)"/>
       <use xlink:href="#ArialMT-65" transform="translate(650.439453 0)"/>
      </g>
     </g>
    </g>
    <g id="ytick_17">
     <g id="line2d_45">
      <path d="M 95.760938 222.759357 
L 561.289509 222.759357 
" clip-path="url(#p3e4cc8b06a)" style="fill: none; stroke: #cccccc; stroke-width: 0.8; stroke-linecap: round"/>
     </g>
     <g id="line2d_46"/>
     <g id="text_24">
      <!-- close_over_ma_5 -->
      <g style="fill: #262626" transform="translate(13.33125 226.338264) scale(0.1 -0.1)">
       <use xlink:href="#ArialMT-63"/>
       <use xlink:href="#ArialMT-6c" transform="translate(50 0)"/>
       <use xlink:href="#ArialMT-6f" transform="translate(72.216797 0)"/>
       <use xlink:href="#ArialMT-73" transform="translate(127.832031 0)"/>
       <use xlink:href="#ArialMT-65" transform="translate(177.832031 0)"/>
       <use xlink:href="#ArialMT-5f" transform="translate(233.447266 0)"/>
       <use xlink:href="#ArialMT-6f" transform="translate(289.0625 0)"/>
       <use xlink:href="#ArialMT-76" transform="translate(344.677734 0)"/>
       <use xlink:href="#ArialMT-65" transform="translate(394.677734 0)"/>
       <use xlink:href="#ArialMT-72" transform="translate(450.292969 0)"/>
       <use xlink:href="#ArialMT-5f" transform="translate(483.59375 0)"/>
       <use xlink:href="#ArialMT-6d" transform="translate(539.208984 0)"/>
       <use xlink:href="#ArialMT-61" transform="translate(622.509766 0)"/>
       <use xlink:href="#ArialMT-5f" transform="translate(678.125 0)"/>
       <use xlink:href="#ArialMT-35" transform="translate(733.740234 0)"/>
      </g>
     </g>
    </g>
    <g id="ytick_18">
     <g id="line2d_47">
      <path d="M 95.760938 209.272203 
L 561.289509 209.272203 
" clip-path="url(#p3e4cc8b06a)" style="fill: none; stroke: #cccccc; stroke-width: 0.8; stroke-linecap: round"/>
     </g>
     <g id="line2d_48"/>
     <g id="text_25">
      <!-- return_lag_2 -->
      <g style="fill: #262626" transform="translate(36.114063 212.865953) scale(0.1 -0.1)">
       <use xlink:href="#ArialMT-72"/>
       <use xlink:href="#ArialMT-65" transform="translate(33.300781 0)"/>
       <use xlink:href="#ArialMT-74" transform="translate(88.916016 0)"/>
       <use xlink:href="#ArialMT-75" transform="translate(116.699219 0)"/>
       <use xlink:href="#ArialMT-72" transform="translate(172.314453 0)"/>
       <use xlink:href="#ArialMT-6e" transform="translate(205.615234 0)"/>
       <use xlink:href="#ArialMT-5f" transform="translate(261.230469 0)"/>
       <use xlink:href="#ArialMT-6c" transform="translate(316.845703 0)"/>
       <use xlink:href="#ArialMT-61" transform="translate(339.0625 0)"/>
       <use xlink:href="#ArialMT-67" transform="translate(394.677734 0)"/>
       <use xlink:href="#ArialMT-5f" transform="translate(450.292969 0)"/>
       <use xlink:href="#ArialMT-32" transform="translate(505.908203 0)"/>
      </g>
     </g>
    </g>
    <g id="ytick_19">
     <g id="line2d_49">
      <path d="M 95.760938 195.785048 
L 561.289509 195.785048 
" clip-path="url(#p3e4cc8b06a)" style="fill: none; stroke: #cccccc; stroke-width: 0.8; stroke-linecap: round"/>
     </g>
     <g id="line2d_50"/>
     <g id="text_26">
      <!-- return_lag_5 -->
      <g style="fill: #262626" transform="translate(36.114063 199.363954) scale(0.1 -0.1)">
       <use xlink:href="#ArialMT-72"/>
       <use xlink:href="#ArialMT-65" transform="translate(33.300781 0)"/>
       <use xlink:href="#ArialMT-74" transform="translate(88.916016 0)"/>
       <use xlink:href="#ArialMT-75" transform="translate(116.699219 0)"/>
       <use xlink:href="#ArialMT-72" transform="translate(172.314453 0)"/>
       <use xlink:href="#ArialMT-6e" transform="translate(205.615234 0)"/>
       <use xlink:href="#ArialMT-5f" transform="translate(261.230469 0)"/>
       <use xlink:href="#ArialMT-6c" transform="translate(316.845703 0)"/>
       <use xlink:href="#ArialMT-61" transform="translate(339.0625 0)"/>
       <use xlink:href="#ArialMT-67" transform="translate(394.677734 0)"/>
       <use xlink:href="#ArialMT-5f" transform="translate(450.292969 0)"/>
       <use xlink:href="#ArialMT-35" transform="translate(505.908203 0)"/>
      </g>
     </g>
    </g>
    <g id="ytick_20">
     <g id="line2d_51">
      <path d="M 95.760938 182.297893 
L 561.289509 182.297893 
" clip-path="url(#p3e4cc8b06a)" style="fill: none; stroke: #cccccc; stroke-width: 0.8; stroke-linecap: round"/>
     </g>
     <g id="line2d_52"/>
     <g id="text_27">
      <!-- close_lag_10 -->
      <g style="fill: #262626" transform="translate(33.329688 185.891643) scale(0.1 -0.1)">
       <use xlink:href="#ArialMT-63"/>
       <use xlink:href="#ArialMT-6c" transform="translate(50 0)"/>
       <use xlink:href="#ArialMT-6f" transform="translate(72.216797 0)"/>
       <use xlink:href="#ArialMT-73" transform="translate(127.832031 0)"/>
       <use xlink:href="#ArialMT-65" transform="translate(177.832031 0)"/>
       <use xlink:href="#ArialMT-5f" transform="translate(233.447266 0)"/>
       <use xlink:href="#ArialMT-6c" transform="translate(289.0625 0)"/>
       <use xlink:href="#ArialMT-61" transform="translate(311.279297 0)"/>
       <use xlink:href="#ArialMT-67" transform="translate(366.894531 0)"/>
       <use xlink:href="#ArialMT-5f" transform="translate(422.509766 0)"/>
       <use xlink:href="#ArialMT-31" transform="translate(478.125 0)"/>
       <use xlink:href="#ArialMT-30" transform="translate(533.740234 0)"/>
      </g>
     </g>
    </g>
    <g id="ytick_21">
     <g id="line2d_53">
      <path d="M 95.760938 168.810739 
L 561.289509 168.810739 
" clip-path="url(#p3e4cc8b06a)" style="fill: none; stroke: #cccccc; stroke-width: 0.8; stroke-linecap: round"/>
     </g>
     <g id="line2d_54"/>
     <g id="text_28">
      <!-- IWM_return_1d -->
      <g style="fill: #262626" transform="translate(23.35 172.404489) scale(0.1 -0.1)">
       <defs>
        <path id="ArialMT-49" d="M 597 0 
L 597 4581 
L 1203 4581 
L 1203 0 
L 597 0 
z
" transform="scale(0.015625)"/>
        <path id="ArialMT-57" d="M 1294 0 
L 78 4581 
L 700 4581 
L 1397 1578 
Q 1509 1106 1591 641 
Q 1766 1375 1797 1488 
L 2669 4581 
L 3400 4581 
L 4056 2263 
Q 4303 1400 4413 641 
Q 4500 1075 4641 1638 
L 5359 4581 
L 5969 4581 
L 4713 0 
L 4128 0 
L 3163 3491 
Q 3041 3928 3019 4028 
Q 2947 3713 2884 3491 
L 1913 0 
L 1294 0 
z
" transform="scale(0.015625)"/>
        <path id="ArialMT-4d" d="M 475 0 
L 475 4581 
L 1388 4581 
L 2472 1338 
Q 2622 884 2691 659 
Q 2769 909 2934 1394 
L 4031 4581 
L 4847 4581 
L 4847 0 
L 4263 0 
L 4263 3834 
L 2931 0 
L 2384 0 
L 1059 3900 
L 1059 0 
L 475 0 
z
" transform="scale(0.015625)"/>
       </defs>
       <use xlink:href="#ArialMT-49"/>
       <use xlink:href="#ArialMT-57" transform="translate(27.783203 0)"/>
       <use xlink:href="#ArialMT-4d" transform="translate(122.167969 0)"/>
       <use xlink:href="#ArialMT-5f" transform="translate(205.46875 0)"/>
       <use xlink:href="#ArialMT-72" transform="translate(261.083984 0)"/>
       <use xlink:href="#ArialMT-65" transform="translate(294.384766 0)"/>
       <use xlink:href="#ArialMT-74" transform="translate(350 0)"/>
       <use xlink:href="#ArialMT-75" transform="translate(377.783203 0)"/>
       <use xlink:href="#ArialMT-72" transform="translate(433.398438 0)"/>
       <use xlink:href="#ArialMT-6e" transform="translate(466.699219 0)"/>
       <use xlink:href="#ArialMT-5f" transform="translate(522.314453 0)"/>
       <use xlink:href="#ArialMT-31" transform="translate(577.929688 0)"/>
       <use xlink:href="#ArialMT-64" transform="translate(633.544922 0)"/>
      </g>
     </g>
    </g>
    <g id="ytick_22">
     <g id="line2d_55">
      <path d="M 95.760938 155.323584 
L 561.289509 155.323584 
" clip-path="url(#p3e4cc8b06a)" style="fill: none; stroke: #cccccc; stroke-width: 0.8; stroke-linecap: round"/>
     </g>
     <g id="line2d_56"/>
     <g id="text_29">
      <!-- IWM_volatility_5 -->
      <g style="fill: #262626" transform="translate(19.465625 158.90249) scale(0.1 -0.1)">
       <use xlink:href="#ArialMT-49"/>
       <use xlink:href="#ArialMT-57" transform="translate(27.783203 0)"/>
       <use xlink:href="#ArialMT-4d" transform="translate(122.167969 0)"/>
       <use xlink:href="#ArialMT-5f" transform="translate(205.46875 0)"/>
       <use xlink:href="#ArialMT-76" transform="translate(261.083984 0)"/>
       <use xlink:href="#ArialMT-6f" transform="translate(311.083984 0)"/>
       <use xlink:href="#ArialMT-6c" transform="translate(366.699219 0)"/>
       <use xlink:href="#ArialMT-61" transform="translate(388.916016 0)"/>
       <use xlink:href="#ArialMT-74" transform="translate(444.53125 0)"/>
       <use xlink:href="#ArialMT-69" transform="translate(472.314453 0)"/>
       <use xlink:href="#ArialMT-6c" transform="translate(494.53125 0)"/>
       <use xlink:href="#ArialMT-69" transform="translate(516.748047 0)"/>
       <use xlink:href="#ArialMT-74" transform="translate(538.964844 0)"/>
       <use xlink:href="#ArialMT-79" transform="translate(566.748047 0)"/>
       <use xlink:href="#ArialMT-5f" transform="translate(616.748047 0)"/>
       <use xlink:href="#ArialMT-35" transform="translate(672.363281 0)"/>
      </g>
     </g>
    </g>
    <g id="ytick_23">
     <g id="line2d_57">
      <path d="M 95.760938 141.83643 
L 561.289509 141.83643 
" clip-path="url(#p3e4cc8b06a)" style="fill: none; stroke: #cccccc; stroke-width: 0.8; stroke-linecap: round"/>
     </g>
     <g id="line2d_58"/>
     <g id="text_30">
      <!-- close_lag_5 -->
      <g style="fill: #262626" transform="translate(38.890625 145.415336) scale(0.1 -0.1)">
       <use xlink:href="#ArialMT-63"/>
       <use xlink:href="#ArialMT-6c" transform="translate(50 0)"/>
       <use xlink:href="#ArialMT-6f" transform="translate(72.216797 0)"/>
       <use xlink:href="#ArialMT-73" transform="translate(127.832031 0)"/>
       <use xlink:href="#ArialMT-65" transform="translate(177.832031 0)"/>
       <use xlink:href="#ArialMT-5f" transform="translate(233.447266 0)"/>
       <use xlink:href="#ArialMT-6c" transform="translate(289.0625 0)"/>
       <use xlink:href="#ArialMT-61" transform="translate(311.279297 0)"/>
       <use xlink:href="#ArialMT-67" transform="translate(366.894531 0)"/>
       <use xlink:href="#ArialMT-5f" transform="translate(422.509766 0)"/>
       <use xlink:href="#ArialMT-35" transform="translate(478.125 0)"/>
      </g>
     </g>
    </g>
    <g id="ytick_24">
     <g id="line2d_59">
      <path d="M 95.760938 128.349275 
L 561.289509 128.349275 
" clip-path="url(#p3e4cc8b06a)" style="fill: none; stroke: #cccccc; stroke-width: 0.8; stroke-linecap: round"/>
     </g>
     <g id="line2d_60"/>
     <g id="text_31">
      <!-- bb_width_20 -->
      <g style="fill: #262626" transform="translate(35.551563 131.943025) scale(0.1 -0.1)">
       <use xlink:href="#ArialMT-62"/>
       <use xlink:href="#ArialMT-62" transform="translate(55.615234 0)"/>
       <use xlink:href="#ArialMT-5f" transform="translate(111.230469 0)"/>
       <use xlink:href="#ArialMT-77" transform="translate(166.845703 0)"/>
       <use xlink:href="#ArialMT-69" transform="translate(239.0625 0)"/>
       <use xlink:href="#ArialMT-64" transform="translate(261.279297 0)"/>
       <use xlink:href="#ArialMT-74" transform="translate(316.894531 0)"/>
       <use xlink:href="#ArialMT-68" transform="translate(344.677734 0)"/>
       <use xlink:href="#ArialMT-5f" transform="translate(400.292969 0)"/>
       <use xlink:href="#ArialMT-32" transform="translate(455.908203 0)"/>
       <use xlink:href="#ArialMT-30" transform="translate(511.523438 0)"/>
      </g>
     </g>
    </g>
    <g id="ytick_25">
     <g id="line2d_61">
      <path d="M 95.760938 114.86212 
L 561.289509 114.86212 
" clip-path="url(#p3e4cc8b06a)" style="fill: none; stroke: #cccccc; stroke-width: 0.8; stroke-linecap: round"/>
     </g>
     <g id="line2d_62"/>
     <g id="text_32">
      <!-- volume_ma_10 -->
      <g style="fill: #262626" transform="translate(23.892188 118.45587) scale(0.1 -0.1)">
       <use xlink:href="#ArialMT-76"/>
       <use xlink:href="#ArialMT-6f" transform="translate(50 0)"/>
       <use xlink:href="#ArialMT-6c" transform="translate(105.615234 0)"/>
       <use xlink:href="#ArialMT-75" transform="translate(127.832031 0)"/>
       <use xlink:href="#ArialMT-6d" transform="translate(183.447266 0)"/>
       <use xlink:href="#ArialMT-65" transform="translate(266.748047 0)"/>
       <use xlink:href="#ArialMT-5f" transform="translate(322.363281 0)"/>
       <use xlink:href="#ArialMT-6d" transform="translate(377.978516 0)"/>
       <use xlink:href="#ArialMT-61" transform="translate(461.279297 0)"/>
       <use xlink:href="#ArialMT-5f" transform="translate(516.894531 0)"/>
       <use xlink:href="#ArialMT-31" transform="translate(572.509766 0)"/>
       <use xlink:href="#ArialMT-30" transform="translate(628.125 0)"/>
      </g>
     </g>
    </g>
    <g id="ytick_26">
     <g id="line2d_63">
      <path d="M 95.760938 101.374966 
L 561.289509 101.374966 
" clip-path="url(#p3e4cc8b06a)" style="fill: none; stroke: #cccccc; stroke-width: 0.8; stroke-linecap: round"/>
     </g>
     <g id="line2d_64"/>
     <g id="text_33">
      <!-- close_to_bb_upper -->
      <g style="fill: #262626" transform="translate(7.2 104.953872) scale(0.1 -0.1)">
       <defs>
        <path id="ArialMT-70" d="M 422 -1272 
L 422 3319 
L 934 3319 
L 934 2888 
Q 1116 3141 1344 3267 
Q 1572 3394 1897 3394 
Q 2322 3394 2647 3175 
Q 2972 2956 3137 2557 
Q 3303 2159 3303 1684 
Q 3303 1175 3120 767 
Q 2938 359 2589 142 
Q 2241 -75 1856 -75 
Q 1575 -75 1351 44 
Q 1128 163 984 344 
L 984 -1272 
L 422 -1272 
z
M 931 1641 
Q 931 1000 1190 694 
Q 1450 388 1819 388 
Q 2194 388 2461 705 
Q 2728 1022 2728 1688 
Q 2728 2322 2467 2637 
Q 2206 2953 1844 2953 
Q 1484 2953 1207 2617 
Q 931 2281 931 1641 
z
" transform="scale(0.015625)"/>
       </defs>
       <use xlink:href="#ArialMT-63"/>
       <use xlink:href="#ArialMT-6c" transform="translate(50 0)"/>
       <use xlink:href="#ArialMT-6f" transform="translate(72.216797 0)"/>
       <use xlink:href="#ArialMT-73" transform="translate(127.832031 0)"/>
       <use xlink:href="#ArialMT-65" transform="translate(177.832031 0)"/>
       <use xlink:href="#ArialMT-5f" transform="translate(233.447266 0)"/>
       <use xlink:href="#ArialMT-74" transform="translate(289.0625 0)"/>
       <use xlink:href="#ArialMT-6f" transform="translate(316.845703 0)"/>
       <use xlink:href="#ArialMT-5f" transform="translate(372.460938 0)"/>
       <use xlink:href="#ArialMT-62" transform="translate(428.076172 0)"/>
       <use xlink:href="#ArialMT-62" transform="translate(483.691406 0)"/>
       <use xlink:href="#ArialMT-5f" transform="translate(539.306641 0)"/>
       <use xlink:href="#ArialMT-75" transform="translate(594.921875 0)"/>
       <use xlink:href="#ArialMT-70" transform="translate(650.537109 0)"/>
       <use xlink:href="#ArialMT-70" transform="translate(706.152344 0)"/>
       <use xlink:href="#ArialMT-65" transform="translate(761.767578 0)"/>
       <use xlink:href="#ArialMT-72" transform="translate(817.382812 0)"/>
      </g>
     </g>
    </g>
    <g id="ytick_27">
     <g id="line2d_65">
      <path d="M 95.760938 87.887811 
L 561.289509 87.887811 
" clip-path="url(#p3e4cc8b06a)" style="fill: none; stroke: #cccccc; stroke-width: 0.8; stroke-linecap: round"/>
     </g>
     <g id="line2d_66"/>
     <g id="text_34">
      <!-- ma_10_over_20 -->
      <g style="fill: #262626" transform="translate(19.992188 91.481561) scale(0.1 -0.1)">
       <use xlink:href="#ArialMT-6d"/>
       <use xlink:href="#ArialMT-61" transform="translate(83.300781 0)"/>
       <use xlink:href="#ArialMT-5f" transform="translate(138.916016 0)"/>
       <use xlink:href="#ArialMT-31" transform="translate(194.53125 0)"/>
       <use xlink:href="#ArialMT-30" transform="translate(250.146484 0)"/>
       <use xlink:href="#ArialMT-5f" transform="translate(305.761719 0)"/>
       <use xlink:href="#ArialMT-6f" transform="translate(361.376953 0)"/>
       <use xlink:href="#ArialMT-76" transform="translate(416.992188 0)"/>
       <use xlink:href="#ArialMT-65" transform="translate(466.992188 0)"/>
       <use xlink:href="#ArialMT-72" transform="translate(522.607422 0)"/>
       <use xlink:href="#ArialMT-5f" transform="translate(555.908203 0)"/>
       <use xlink:href="#ArialMT-32" transform="translate(611.523438 0)"/>
       <use xlink:href="#ArialMT-30" transform="translate(667.138672 0)"/>
      </g>
     </g>
    </g>
    <g id="ytick_28">
     <g id="line2d_67">
      <path d="M 95.760938 74.400656 
L 561.289509 74.400656 
" clip-path="url(#p3e4cc8b06a)" style="fill: none; stroke: #cccccc; stroke-width: 0.8; stroke-linecap: round"/>
     </g>
     <g id="line2d_68"/>
     <g id="text_35">
      <!-- close_lag_3 -->
      <g style="fill: #262626" transform="translate(38.890625 77.994406) scale(0.1 -0.1)">
       <defs>
        <path id="ArialMT-33" d="M 269 1209 
L 831 1284 
Q 928 806 1161 595 
Q 1394 384 1728 384 
Q 2125 384 2398 659 
Q 2672 934 2672 1341 
Q 2672 1728 2419 1979 
Q 2166 2231 1775 2231 
Q 1616 2231 1378 2169 
L 1441 2663 
Q 1497 2656 1531 2656 
Q 1891 2656 2178 2843 
Q 2466 3031 2466 3422 
Q 2466 3731 2256 3934 
Q 2047 4138 1716 4138 
Q 1388 4138 1169 3931 
Q 950 3725 888 3313 
L 325 3413 
Q 428 3978 793 4289 
Q 1159 4600 1703 4600 
Q 2078 4600 2393 4439 
Q 2709 4278 2876 4000 
Q 3044 3722 3044 3409 
Q 3044 3113 2884 2869 
Q 2725 2625 2413 2481 
Q 2819 2388 3044 2092 
Q 3269 1797 3269 1353 
Q 3269 753 2831 336 
Q 2394 -81 1725 -81 
Q 1122 -81 723 278 
Q 325 638 269 1209 
z
" transform="scale(0.015625)"/>
       </defs>
       <use xlink:href="#ArialMT-63"/>
       <use xlink:href="#ArialMT-6c" transform="translate(50 0)"/>
       <use xlink:href="#ArialMT-6f" transform="translate(72.216797 0)"/>
       <use xlink:href="#ArialMT-73" transform="translate(127.832031 0)"/>
       <use xlink:href="#ArialMT-65" transform="translate(177.832031 0)"/>
       <use xlink:href="#ArialMT-5f" transform="translate(233.447266 0)"/>
       <use xlink:href="#ArialMT-6c" transform="translate(289.0625 0)"/>
       <use xlink:href="#ArialMT-61" transform="translate(311.279297 0)"/>
       <use xlink:href="#ArialMT-67" transform="translate(366.894531 0)"/>
       <use xlink:href="#ArialMT-5f" transform="translate(422.509766 0)"/>
       <use xlink:href="#ArialMT-33" transform="translate(478.125 0)"/>
      </g>
     </g>
    </g>
    <g id="ytick_29">
     <g id="line2d_69">
      <path d="M 95.760938 60.913502 
L 561.289509 60.913502 
" clip-path="url(#p3e4cc8b06a)" style="fill: none; stroke: #cccccc; stroke-width: 0.8; stroke-linecap: round"/>
     </g>
     <g id="line2d_70"/>
     <g id="text_36">
      <!-- ma_50 -->
      <g style="fill: #262626" transform="translate(61.6875 64.507252) scale(0.1 -0.1)">
       <use xlink:href="#ArialMT-6d"/>
       <use xlink:href="#ArialMT-61" transform="translate(83.300781 0)"/>
       <use xlink:href="#ArialMT-5f" transform="translate(138.916016 0)"/>
       <use xlink:href="#ArialMT-35" transform="translate(194.53125 0)"/>
       <use xlink:href="#ArialMT-30" transform="translate(250.146484 0)"/>
      </g>
     </g>
    </g>
    <g id="ytick_30">
     <g id="line2d_71">
      <path d="M 95.760938 47.426347 
L 561.289509 47.426347 
" clip-path="url(#p3e4cc8b06a)" style="fill: none; stroke: #cccccc; stroke-width: 0.8; stroke-linecap: round"/>
     </g>
     <g id="line2d_72"/>
     <g id="text_37">
      <!-- bb_upper_20 -->
      <g style="fill: #262626" transform="translate(33.321875 51.020097) scale(0.1 -0.1)">
       <use xlink:href="#ArialMT-62"/>
       <use xlink:href="#ArialMT-62" transform="translate(55.615234 0)"/>
       <use xlink:href="#ArialMT-5f" transform="translate(111.230469 0)"/>
       <use xlink:href="#ArialMT-75" transform="translate(166.845703 0)"/>
       <use xlink:href="#ArialMT-70" transform="translate(222.460938 0)"/>
       <use xlink:href="#ArialMT-70" transform="translate(278.076172 0)"/>
       <use xlink:href="#ArialMT-65" transform="translate(333.691406 0)"/>
       <use xlink:href="#ArialMT-72" transform="translate(389.306641 0)"/>
       <use xlink:href="#ArialMT-5f" transform="translate(422.607422 0)"/>
       <use xlink:href="#ArialMT-32" transform="translate(478.222656 0)"/>
       <use xlink:href="#ArialMT-30" transform="translate(533.837891 0)"/>
      </g>
     </g>
    </g>
   </g>
   <g id="patch_3">
    <path d="M 340.998881 443.948693 
L 116.921327 443.948693 
L 116.921327 433.158969 
L 340.998881 433.158969 
z
" clip-path="url(#p3e4cc8b06a)" style="fill: #c44e52"/>
   </g>
   <g id="patch_4">
    <path d="M 340.998881 430.461539 
L 159.283753 430.461539 
L 159.283753 419.671815 
L 340.998881 419.671815 
z
" clip-path="url(#p3e4cc8b06a)" style="fill: #c44e52"/>
   </g>
   <g id="patch_5">
    <path d="M 340.998881 416.974384 
L 203.803893 416.974384 
L 203.803893 406.18466 
L 340.998881 406.18466 
z
" clip-path="url(#p3e4cc8b06a)" style="fill: #c44e52"/>
   </g>
   <g id="patch_6">
    <path d="M 340.998881 403.487229 
L 253.901922 403.487229 
L 253.901922 392.697506 
L 340.998881 392.697506 
z
" clip-path="url(#p3e4cc8b06a)" style="fill: #c44e52"/>
   </g>
   <g id="patch_7">
    <path d="M 340.998881 390.000075 
L 274.907924 390.000075 
L 274.907924 379.210351 
L 340.998881 379.210351 
z
" clip-path="url(#p3e4cc8b06a)" style="fill: #c44e52"/>
   </g>
   <g id="patch_8">
    <path d="M 340.998881 376.51292 
L 283.975572 376.51292 
L 283.975572 365.723196 
L 340.998881 365.723196 
z
" clip-path="url(#p3e4cc8b06a)" style="fill: #c44e52"/>
   </g>
   <g id="patch_9">
    <path d="M 340.998881 363.025765 
L 289.023285 363.025765 
L 289.023285 352.236042 
L 340.998881 352.236042 
z
" clip-path="url(#p3e4cc8b06a)" style="fill: #c44e52"/>
   </g>
   <g id="patch_10">
    <path d="M 340.998881 349.538611 
L 293.146355 349.538611 
L 293.146355 338.748887 
L 340.998881 338.748887 
z
" clip-path="url(#p3e4cc8b06a)" style="fill: #c44e52"/>
   </g>
   <g id="patch_11">
    <path d="M 340.998881 336.051456 
L 299.354791 336.051456 
L 299.354791 325.261732 
L 340.998881 325.261732 
z
" clip-path="url(#p3e4cc8b06a)" style="fill: #c44e52"/>
   </g>
   <g id="patch_12">
    <path d="M 340.998881 322.564302 
L 307.251978 322.564302 
L 307.251978 311.774578 
L 340.998881 311.774578 
z
" clip-path="url(#p3e4cc8b06a)" style="fill: #c44e52"/>
   </g>
   <g id="patch_13">
    <path d="M 340.998881 309.077147 
L 307.823587 309.077147 
L 307.823587 298.287423 
L 340.998881 298.287423 
z
" clip-path="url(#p3e4cc8b06a)" style="fill: #c44e52"/>
   </g>
   <g id="patch_14">
    <path d="M 340.998881 295.589992 
L 309.199651 295.589992 
L 309.199651 284.800269 
L 340.998881 284.800269 
z
" clip-path="url(#p3e4cc8b06a)" style="fill: #c44e52"/>
   </g>
   <g id="patch_15">
    <path d="M 340.998881 282.102838 
L 317.152646 282.102838 
L 317.152646 271.313114 
L 340.998881 271.313114 
z
" clip-path="url(#p3e4cc8b06a)" style="fill: #c44e52"/>
   </g>
   <g id="patch_16">
    <path d="M 340.998881 268.615683 
L 318.174296 268.615683 
L 318.174296 257.825959 
L 340.998881 257.825959 
z
" clip-path="url(#p3e4cc8b06a)" style="fill: #c44e52"/>
   </g>
   <g id="patch_17">
    <path d="M 340.998881 255.128528 
L 318.221615 255.128528 
L 318.221615 244.338805 
L 340.998881 244.338805 
z
" clip-path="url(#p3e4cc8b06a)" style="fill: #c44e52"/>
   </g>
   <g id="patch_18">
    <path d="M 340.998881 241.641374 
L 370.3596 241.641374 
L 370.3596 230.85165 
L 340.998881 230.85165 
z
" clip-path="url(#p3e4cc8b06a)" style="fill: #4c72b0"/>
   </g>
   <g id="patch_19">
    <path d="M 340.998881 228.154219 
L 372.6421 228.154219 
L 372.6421 217.364496 
L 340.998881 217.364496 
z
" clip-path="url(#p3e4cc8b06a)" style="fill: #4c72b0"/>
   </g>
   <g id="patch_20">
    <path d="M 340.998881 214.667065 
L 372.940399 214.667065 
L 372.940399 203.877341 
L 340.998881 203.877341 
z
" clip-path="url(#p3e4cc8b06a)" style="fill: #4c72b0"/>
   </g>
   <g id="patch_21">
    <path d="M 340.998881 201.17991 
L 373.058713 201.17991 
L 373.058713 190.390186 
L 340.998881 190.390186 
z
" clip-path="url(#p3e4cc8b06a)" style="fill: #4c72b0"/>
   </g>
   <g id="patch_22">
    <path d="M 340.998881 187.692755 
L 379.566816 187.692755 
L 379.566816 176.903032 
L 340.998881 176.903032 
z
" clip-path="url(#p3e4cc8b06a)" style="fill: #4c72b0"/>
   </g>
   <g id="patch_23">
    <path d="M 340.998881 174.205601 
L 380.337035 174.205601 
L 380.337035 163.415877 
L 340.998881 163.415877 
z
" clip-path="url(#p3e4cc8b06a)" style="fill: #4c72b0"/>
   </g>
   <g id="patch_24">
    <path d="M 340.998881 160.718446 
L 386.208322 160.718446 
L 386.208322 149.928722 
L 340.998881 149.928722 
z
" clip-path="url(#p3e4cc8b06a)" style="fill: #4c72b0"/>
   </g>
   <g id="patch_25">
    <path d="M 340.998881 147.231291 
L 386.973992 147.231291 
L 386.973992 136.441568 
L 340.998881 136.441568 
z
" clip-path="url(#p3e4cc8b06a)" style="fill: #4c72b0"/>
   </g>
   <g id="patch_26">
    <path d="M 340.998881 133.744137 
L 387.422503 133.744137 
L 387.422503 122.954413 
L 340.998881 122.954413 
z
" clip-path="url(#p3e4cc8b06a)" style="fill: #4c72b0"/>
   </g>
   <g id="patch_27">
    <path d="M 340.998881 120.256982 
L 393.966312 120.256982 
L 393.966312 109.467259 
L 340.998881 109.467259 
z
" clip-path="url(#p3e4cc8b06a)" style="fill: #4c72b0"/>
   </g>
   <g id="patch_28">
    <path d="M 340.998881 106.769828 
L 416.556578 106.769828 
L 416.556578 95.980104 
L 340.998881 95.980104 
z
" clip-path="url(#p3e4cc8b06a)" style="fill: #4c72b0"/>
   </g>
   <g id="patch_29">
    <path d="M 340.998881 93.282673 
L 456.88345 93.282673 
L 456.88345 82.492949 
L 340.998881 82.492949 
z
" clip-path="url(#p3e4cc8b06a)" style="fill: #4c72b0"/>
   </g>
   <g id="patch_30">
    <path d="M 340.998881 79.795518 
L 470.330471 79.795518 
L 470.330471 69.005795 
L 340.998881 69.005795 
z
" clip-path="url(#p3e4cc8b06a)" style="fill: #4c72b0"/>
   </g>
   <g id="patch_31">
    <path d="M 340.998881 66.308364 
L 486.765121 66.308364 
L 486.765121 55.51864 
L 340.998881 55.51864 
z
" clip-path="url(#p3e4cc8b06a)" style="fill: #4c72b0"/>
   </g>
   <g id="patch_32">
    <path d="M 340.998881 52.821209 
L 540.129119 52.821209 
L 540.129119 42.031485 
L 340.998881 42.031485 
z
" clip-path="url(#p3e4cc8b06a)" style="fill: #4c72b0"/>
   </g>
   <g id="line2d_73">
    <path d="M 340.998881 464.044554 
L 340.998881 21.935625 
" clip-path="url(#p3e4cc8b06a)" style="fill: none; stroke: #000000; stroke-width: 0.8; stroke-linecap: round"/>
   </g>
   <g id="patch_33">
    <path d="M 95.760938 464.044554 
L 95.760938 21.935625 
" style="fill: none; stroke: #cccccc; stroke-linejoin: miter; stroke-linecap: square"/>
   </g>
   <g id="patch_34">
    <path d="M 561.289509 464.044554 
L 561.289509 21.935625 
" style="fill: none; stroke: #cccccc; stroke-linejoin: miter; stroke-linecap: square"/>
   </g>
   <g id="patch_35">
    <path d="M 95.760938 464.044554 
L 561.289509 464.044554 
" style="fill: none; stroke: #cccccc; stroke-linejoin: miter; stroke-linecap: square"/>
   </g>
   <g id="patch_36">
    <path d="M 95.760938 21.935625 
L 561.289509 21.935625 
" style="fill: none; stroke: #cccccc; stroke-linejoin: miter; stroke-linecap: square"/>
   </g>
   <g id="text_38">
    <!-- Logistic Regression — Top 15 Positive &amp; Negative Coefficients -->
    <g style="fill: #262626" transform="translate(162.330848 15.935625) scale(0.12 -0.12)">
     <defs>
      <path id="ArialMT-20" transform="scale(0.015625)"/>
      <path id="ArialMT-52" d="M 503 0 
L 503 4581 
L 2534 4581 
Q 3147 4581 3465 4457 
Q 3784 4334 3975 4021 
Q 4166 3709 4166 3331 
Q 4166 2844 3850 2509 
Q 3534 2175 2875 2084 
Q 3116 1969 3241 1856 
Q 3506 1613 3744 1247 
L 4541 0 
L 3778 0 
L 3172 953 
Q 2906 1366 2734 1584 
Q 2563 1803 2427 1890 
Q 2291 1978 2150 2013 
Q 2047 2034 1813 2034 
L 1109 2034 
L 1109 0 
L 503 0 
z
M 1109 2559 
L 2413 2559 
Q 2828 2559 3062 2645 
Q 3297 2731 3419 2920 
Q 3541 3109 3541 3331 
Q 3541 3656 3305 3865 
Q 3069 4075 2559 4075 
L 1109 4075 
L 1109 2559 
z
" transform="scale(0.015625)"/>
      <path id="ArialMT-2014" d="M 0 1431 
L 0 1884 
L 6400 1884 
L 6400 1431 
L 0 1431 
z
" transform="scale(0.015625)"/>
      <path id="ArialMT-54" d="M 1659 0 
L 1659 4041 
L 150 4041 
L 150 4581 
L 3781 4581 
L 3781 4041 
L 2266 4041 
L 2266 0 
L 1659 0 
z
" transform="scale(0.015625)"/>
      <path id="ArialMT-26" d="M 3041 541 
Q 2763 231 2434 76 
Q 2106 -78 1725 -78 
Q 1022 -78 609 397 
Q 275 784 275 1263 
Q 275 1688 548 2030 
Q 822 2372 1366 2631 
Q 1056 2988 953 3209 
Q 850 3431 850 3638 
Q 850 4050 1173 4354 
Q 1497 4659 1988 4659 
Q 2456 4659 2754 4371 
Q 3053 4084 3053 3681 
Q 3053 3028 2188 2566 
L 3009 1519 
Q 3150 1794 3228 2156 
L 3813 2031 
Q 3663 1431 3406 1044 
Q 3722 625 4122 341 
L 3744 -106 
Q 3403 113 3041 541 
z
M 1897 2928 
Q 2263 3144 2370 3306 
Q 2478 3469 2478 3666 
Q 2478 3900 2329 4048 
Q 2181 4197 1959 4197 
Q 1731 4197 1579 4050 
Q 1428 3903 1428 3691 
Q 1428 3584 1483 3467 
Q 1538 3350 1647 3219 
L 1897 2928 
z
M 2688 984 
L 1656 2263 
Q 1200 1991 1040 1758 
Q 881 1525 881 1297 
Q 881 1019 1103 719 
Q 1325 419 1731 419 
Q 1984 419 2254 576 
Q 2525 734 2688 984 
z
" transform="scale(0.015625)"/>
      <path id="ArialMT-4e" d="M 488 0 
L 488 4581 
L 1109 4581 
L 3516 984 
L 3516 4581 
L 4097 4581 
L 4097 0 
L 3475 0 
L 1069 3600 
L 1069 0 
L 488 0 
z
" transform="scale(0.015625)"/>
     </defs>
     <use xlink:href="#ArialMT-4c"/>
     <use xlink:href="#ArialMT-6f" transform="translate(55.615234 0)"/>
     <use xlink:href="#ArialMT-67" transform="translate(111.230469 0)"/>
     <use xlink:href="#ArialMT-69" transform="translate(166.845703 0)"/>
     <use xlink:href="#ArialMT-73" transform="translate(189.0625 0)"/>
     <use xlink:href="#ArialMT-74" transform="translate(239.0625 0)"/>
     <use xlink:href="#ArialMT-69" transform="translate(266.845703 0)"/>
     <use xlink:href="#ArialMT-63" transform="translate(289.0625 0)"/>
     <use xlink:href="#ArialMT-20" transform="translate(339.0625 0)"/>
     <use xlink:href="#ArialMT-52" transform="translate(366.845703 0)"/>
     <use xlink:href="#ArialMT-65" transform="translate(439.0625 0)"/>
     <use xlink:href="#ArialMT-67" transform="translate(494.677734 0)"/>
     <use xlink:href="#ArialMT-72" transform="translate(550.292969 0)"/>
     <use xlink:href="#ArialMT-65" transform="translate(583.59375 0)"/>
     <use xlink:href="#ArialMT-73" transform="translate(639.208984 0)"/>
     <use xlink:href="#ArialMT-73" transform="translate(689.208984 0)"/>
     <use xlink:href="#ArialMT-69" transform="translate(739.208984 0)"/>
     <use xlink:href="#ArialMT-6f" transform="translate(761.425781 0)"/>
     <use xlink:href="#ArialMT-6e" transform="translate(817.041016 0)"/>
     <use xlink:href="#ArialMT-20" transform="translate(872.65625 0)"/>
     <use xlink:href="#ArialMT-2014" transform="translate(900.439453 0)"/>
     <use xlink:href="#ArialMT-20" transform="translate(1000.439453 0)"/>
     <use xlink:href="#ArialMT-54" transform="translate(1026.472656 0)"/>
     <use xlink:href="#ArialMT-6f" transform="translate(1076.431641 0)"/>
     <use xlink:href="#ArialMT-70" transform="translate(1132.046875 0)"/>
     <use xlink:href="#ArialMT-20" transform="translate(1187.662109 0)"/>
     <use xlink:href="#ArialMT-31" transform="translate(1215.445312 0)"/>
     <use xlink:href="#ArialMT-35" transform="translate(1271.060547 0)"/>
     <use xlink:href="#ArialMT-20" transform="translate(1326.675781 0)"/>
     <use xlink:href="#ArialMT-50" transform="translate(1354.458984 0)"/>
     <use xlink:href="#ArialMT-6f" transform="translate(1421.158203 0)"/>
     <use xlink:href="#ArialMT-73" transform="translate(1476.773438 0)"/>
     <use xlink:href="#ArialMT-69" transform="translate(1526.773438 0)"/>
     <use xlink:href="#ArialMT-74" transform="translate(1548.990234 0)"/>
     <use xlink:href="#ArialMT-69" transform="translate(1576.773438 0)"/>
     <use xlink:href="#ArialMT-76" transform="translate(1598.990234 0)"/>
     <use xlink:href="#ArialMT-65" transform="translate(1648.990234 0)"/>
     <use xlink:href="#ArialMT-20" transform="translate(1704.605469 0)"/>
     <use xlink:href="#ArialMT-26" transform="translate(1732.388672 0)"/>
     <use xlink:href="#ArialMT-20" transform="translate(1799.087891 0)"/>
     <use xlink:href="#ArialMT-4e" transform="translate(1826.871094 0)"/>
     <use xlink:href="#ArialMT-65" transform="translate(1899.087891 0)"/>
     <use xlink:href="#ArialMT-67" transform="translate(1954.703125 0)"/>
     <use xlink:href="#ArialMT-61" transform="translate(2010.318359 0)"/>
     <use xlink:href="#ArialMT-74" transform="translate(2065.933594 0)"/>
     <use xlink:href="#ArialMT-69" transform="translate(2093.716797 0)"/>
     <use xlink:href="#ArialMT-76" transform="translate(2115.933594 0)"/>
     <use xlink:href="#ArialMT-65" transform="translate(2165.933594 0)"/>
     <use xlink:href="#ArialMT-20" transform="translate(2221.548828 0)"/>
     <use xlink:href="#ArialMT-43" transform="translate(2249.332031 0)"/>
     <use xlink:href="#ArialMT-6f" transform="translate(2321.548828 0)"/>
     <use xlink:href="#ArialMT-65" transform="translate(2377.164062 0)"/>
     <use xlink:href="#ArialMT-66" transform="translate(2432.779297 0)"/>
     <use xlink:href="#ArialMT-66" transform="translate(2458.8125 0)"/>
     <use xlink:href="#ArialMT-69" transform="translate(2486.595703 0)"/>
     <use xlink:href="#ArialMT-63" transform="translate(2508.8125 0)"/>
     <use xlink:href="#ArialMT-69" transform="translate(2558.8125 0)"/>
     <use xlink:href="#ArialMT-65" transform="translate(2581.029297 0)"/>
     <use xlink:href="#ArialMT-6e" transform="translate(2636.644531 0)"/>
     <use xlink:href="#ArialMT-74" transform="translate(2692.259766 0)"/>
     <use xlink:href="#ArialMT-73" transform="translate(2720.042969 0)"/>
    </g>
   </g>
  </g>
 </g>
 <defs>
  <clipPath id="p3e4cc8b06a">
   <rect x="95.760938" y="21.935625" width="465.528571" height="442.108929"/>
  </clipPath>
 </defs>
</svg>
