<?xml version="1.0" encoding="utf-8" standalone="no"?>
<!DOCTYPE svg PUBLIC "-//W3C//DTD SVG 1.1//EN"
  "http://www.w3.org/Graphics/SVG/1.1/DTD/svg11.dtd">
<svg xmlns:xlink="http://www.w3.org/1999/xlink" width="568.63817pt" height="424.937143pt" viewBox="0 0 568.63817 424.937143" xmlns="http://www.w3.org/2000/svg" version="1.1">
 <metadata>
  <rdf:RDF xmlns:dc="http://purl.org/dc/elements/1.1/" xmlns:cc="http://creativecommons.org/ns#" xmlns:rdf="http://www.w3.org/1999/02/22-rdf-syntax-ns#">
   <cc:Work>
    <dc:type rdf:resource="http://purl.org/dc/dcmitype/StillImage"/>
    <dc:date>2026-05-08T14:27:44.087687</dc:date>
    <dc:format>image/svg+xml</dc:format>
    <dc:creator>
     <cc:Agent>
      <dc:title>Matplotlib v3.10.8, https://matplotlib.org/</dc:title>
     </cc:Agent>
    </dc:creator>
   </cc:Work>
  </rdf:RDF>
 </metadata>
 <defs>
  <style type="text/css">*{stroke-linejoin: round; stroke-linecap: butt}</style>
 </defs>
 <g id="figure_1">
  <g id="patch_1">
   <path d="M 0 424.937143 
L 568.63817 424.937143 
L 568.63817 0 
L 0 0 
z
" style="fill: #ffffff"/>
  </g>
  <g id="axes_1">
   <g id="patch_2">
    <path d="M 37.745313 391.946518 
L 561.43817 391.946518 
L 561.43817 21.789375 
L 37.745313 21.789375 
z
" style="fill: #ffffff"/>
   </g>
   <g id="matplotlib.axis_1">
    <g id="xtick_1">
     <g id="line2d_1">
      <path d="M 61.549533 391.946518 
L 61.549533 21.789375 
" clip-path="url(#p82902da991)" style="fill: none; stroke: #cccccc; stroke-width: 0.8; stroke-linecap: round"/>
     </g>
     <g id="line2d_2"/>
     <g id="text_1">
      <!-- 0.0 -->
      <g style="fill: #262626" transform="translate(54.599533 402.60433) scale(0.1 -0.1)">
       <defs>
        <path id="ArialMT-30" d="M 266 2259 
Q 266 3072 433 3567 
Q 600 4063 929 4331 
Q 1259 4600 1759 4600 
Q 2128 4600 2406 4451 
Q 2684 4303 2865 4023 
Q 3047 3744 3150 3342 
Q 3253 2941 3253 2259 
Q 3253 1453 3087 958 
Q 2922 463 2592 192 
Q 2263 -78 1759 -78 
Q 1097 -78 719 397 
Q 266 969 266 2259 
z
M 844 2259 
Q 844 1131 1108 757 
Q 1372 384 1759 384 
Q 2147 384 2411 759 
Q 2675 1134 2675 2259 
Q 2675 3391 2411 3762 
Q 2147 4134 1753 4134 
Q 1366 4134 1134 3806 
Q 844 3388 844 2259 
z
" transform="scale(0.015625)"/>
        <path id="ArialMT-2e" d="M 581 0 
L 581 641 
L 1222 641 
L 1222 0 
L 581 0 
z
" transform="scale(0.015625)"/>
       </defs>
       <use xlink:href="#ArialMT-30"/>
       <use xlink:href="#ArialMT-2e" transform="translate(55.615234 0)"/>
       <use xlink:href="#ArialMT-30" transform="translate(83.398438 0)"/>
      </g>
     </g>
    </g>
    <g id="xtick_2">
     <g id="line2d_3">
      <path d="M 156.766416 391.946518 
L 156.766416 21.789375 
" clip-path="url(#p82902da991)" style="fill: none; stroke: #cccccc; stroke-width: 0.8; stroke-linecap: round"/>
     </g>
     <g id="line2d_4"/>
     <g id="text_2">
      <!-- 0.2 -->
      <g style="fill: #262626" transform="translate(149.816416 402.60433) scale(0.1 -0.1)">
       <defs>
        <path id="ArialMT-32" d="M 3222 541 
L 3222 0 
L 194 0 
Q 188 203 259 391 
Q 375 700 629 1000 
Q 884 1300 1366 1694 
Q 2113 2306 2375 2664 
Q 2638 3022 2638 3341 
Q 2638 3675 2398 3904 
Q 2159 4134 1775 4134 
Q 1369 4134 1125 3890 
Q 881 3647 878 3216 
L 300 3275 
Q 359 3922 746 4261 
Q 1134 4600 1788 4600 
Q 2447 4600 2831 4234 
Q 3216 3869 3216 3328 
Q 3216 3053 3103 2787 
Q 2991 2522 2730 2228 
Q 2469 1934 1863 1422 
Q 1356 997 1212 845 
Q 1069 694 975 541 
L 3222 541 
z
" transform="scale(0.015625)"/>
       </defs>
       <use xlink:href="#ArialMT-30"/>
       <use xlink:href="#ArialMT-2e" transform="translate(55.615234 0)"/>
       <use xlink:href="#ArialMT-32" transform="translate(83.398438 0)"/>
      </g>
     </g>
    </g>
    <g id="xtick_3">
     <g id="line2d_5">
      <path d="M 251.9833 391.946518 
L 251.9833 21.789375 
" clip-path="url(#p82902da991)" style="fill: none; stroke: #cccccc; stroke-width: 0.8; stroke-linecap: round"/>
     </g>
     <g id="line2d_6"/>
     <g id="text_3">
      <!-- 0.4 -->
      <g style="fill: #262626" transform="translate(245.0333 402.60433) scale(0.1 -0.1)">
       <defs>
        <path id="ArialMT-34" d="M 2069 0 
L 2069 1097 
L 81 1097 
L 81 1613 
L 2172 4581 
L 2631 4581 
L 2631 1613 
L 3250 1613 
L 3250 1097 
L 2631 1097 
L 2631 0 
L 2069 0 
z
M 2069 1613 
L 2069 3678 
L 634 1613 
L 2069 1613 
z
" transform="scale(0.015625)"/>
       </defs>
       <use xlink:href="#ArialMT-30"/>
       <use xlink:href="#ArialMT-2e" transform="translate(55.615234 0)"/>
       <use xlink:href="#ArialMT-34" transform="translate(83.398438 0)"/>
      </g>
     </g>
    </g>
    <g id="xtick_4">
     <g id="line2d_7">
      <path d="M 347.200183 391.946518 
L 347.200183 21.789375 
" clip-path="url(#p82902da991)" style="fill: none; stroke: #cccccc; stroke-width: 0.8; stroke-linecap: round"/>
     </g>
     <g id="line2d_8"/>
     <g id="text_4">
      <!-- 0.6 -->
      <g style="fill: #262626" transform="translate(340.250183 402.60433) scale(0.1 -0.1)">
       <defs>
        <path id="ArialMT-36" d="M 3184 3459 
L 2625 3416 
Q 2550 3747 2413 3897 
Q 2184 4138 1850 4138 
Q 1581 4138 1378 3988 
Q 1113 3794 959 3422 
Q 806 3050 800 2363 
Q 1003 2672 1297 2822 
Q 1591 2972 1913 2972 
Q 2475 2972 2870 2558 
Q 3266 2144 3266 1488 
Q 3266 1056 3080 686 
Q 2894 316 2569 119 
Q 2244 -78 1831 -78 
Q 1128 -78 684 439 
Q 241 956 241 2144 
Q 241 3472 731 4075 
Q 1159 4600 1884 4600 
Q 2425 4600 2770 4297 
Q 3116 3994 3184 3459 
z
M 888 1484 
Q 888 1194 1011 928 
Q 1134 663 1356 523 
Q 1578 384 1822 384 
Q 2178 384 2434 671 
Q 2691 959 2691 1453 
Q 2691 1928 2437 2201 
Q 2184 2475 1800 2475 
Q 1419 2475 1153 2201 
Q 888 1928 888 1484 
z
" transform="scale(0.015625)"/>
       </defs>
       <use xlink:href="#ArialMT-30"/>
       <use xlink:href="#ArialMT-2e" transform="translate(55.615234 0)"/>
       <use xlink:href="#ArialMT-36" transform="translate(83.398438 0)"/>
      </g>
     </g>
    </g>
    <g id="xtick_5">
     <g id="line2d_9">
      <path d="M 442.417066 391.946518 
L 442.417066 21.789375 
" clip-path="url(#p82902da991)" style="fill: none; stroke: #cccccc; stroke-width: 0.8; stroke-linecap: round"/>
     </g>
     <g id="line2d_10"/>
     <g id="text_5">
      <!-- 0.8 -->
      <g style="fill: #262626" transform="translate(435.467066 402.60433) scale(0.1 -0.1)">
       <defs>
        <path id="ArialMT-38" d="M 1131 2484 
Q 781 2613 612 2850 
Q 444 3088 444 3419 
Q 444 3919 803 4259 
Q 1163 4600 1759 4600 
Q 2359 4600 2725 4251 
Q 3091 3903 3091 3403 
Q 3091 3084 2923 2848 
Q 2756 2613 2416 2484 
Q 2838 2347 3058 2040 
Q 3278 1734 3278 1309 
Q 3278 722 2862 322 
Q 2447 -78 1769 -78 
Q 1091 -78 675 323 
Q 259 725 259 1325 
Q 259 1772 486 2073 
Q 713 2375 1131 2484 
z
M 1019 3438 
Q 1019 3113 1228 2906 
Q 1438 2700 1772 2700 
Q 2097 2700 2305 2904 
Q 2513 3109 2513 3406 
Q 2513 3716 2298 3927 
Q 2084 4138 1766 4138 
Q 1444 4138 1231 3931 
Q 1019 3725 1019 3438 
z
M 838 1322 
Q 838 1081 952 856 
Q 1066 631 1291 507 
Q 1516 384 1775 384 
Q 2178 384 2440 643 
Q 2703 903 2703 1303 
Q 2703 1709 2433 1975 
Q 2163 2241 1756 2241 
Q 1359 2241 1098 1978 
Q 838 1716 838 1322 
z
" transform="scale(0.015625)"/>
       </defs>
       <use xlink:href="#ArialMT-30"/>
       <use xlink:href="#ArialMT-2e" transform="translate(55.615234 0)"/>
       <use xlink:href="#ArialMT-38" transform="translate(83.398438 0)"/>
      </g>
     </g>
    </g>
    <g id="xtick_6">
     <g id="line2d_11">
      <path d="M 537.633949 391.946518 
L 537.633949 21.789375 
" clip-path="url(#p82902da991)" style="fill: none; stroke: #cccccc; stroke-width: 0.8; stroke-linecap: round"/>
     </g>
     <g id="line2d_12"/>
     <g id="text_6">
      <!-- 1.0 -->
      <g style="fill: #262626" transform="translate(530.683949 402.60433) scale(0.1 -0.1)">
       <defs>
        <path id="ArialMT-31" d="M 2384 0 
L 1822 0 
L 1822 3584 
Q 1619 3391 1289 3197 
Q 959 3003 697 2906 
L 697 3450 
Q 1169 3672 1522 3987 
Q 1875 4303 2022 4600 
L 2384 4600 
L 2384 0 
z
" transform="scale(0.015625)"/>
       </defs>
       <use xlink:href="#ArialMT-31"/>
       <use xlink:href="#ArialMT-2e" transform="translate(55.615234 0)"/>
       <use xlink:href="#ArialMT-30" transform="translate(83.398438 0)"/>
      </g>
     </g>
    </g>
    <g id="text_7">
     <!-- False Positive Rate -->
     <g style="fill: #262626" transform="translate(256.519866 415.749643) scale(0.1 -0.1)">
      <defs>
       <path id="ArialMT-46" d="M 525 0 
L 525 4581 
L 3616 4581 
L 3616 4041 
L 1131 4041 
L 1131 2622 
L 3281 2622 
L 3281 2081 
L 1131 2081 
L 1131 0 
L 525 0 
z
" transform="scale(0.015625)"/>
       <path id="ArialMT-61" d="M 2588 409 
Q 2275 144 1986 34 
Q 1697 -75 1366 -75 
Q 819 -75 525 192 
Q 231 459 231 875 
Q 231 1119 342 1320 
Q 453 1522 633 1644 
Q 813 1766 1038 1828 
Q 1203 1872 1538 1913 
Q 2219 1994 2541 2106 
Q 2544 2222 2544 2253 
Q 2544 2597 2384 2738 
Q 2169 2928 1744 2928 
Q 1347 2928 1158 2789 
Q 969 2650 878 2297 
L 328 2372 
Q 403 2725 575 2942 
Q 747 3159 1072 3276 
Q 1397 3394 1825 3394 
Q 2250 3394 2515 3294 
Q 2781 3194 2906 3042 
Q 3031 2891 3081 2659 
Q 3109 2516 3109 2141 
L 3109 1391 
Q 3109 606 3145 398 
Q 3181 191 3288 0 
L 2700 0 
Q 2613 175 2588 409 
z
M 2541 1666 
Q 2234 1541 1622 1453 
Q 1275 1403 1131 1340 
Q 988 1278 909 1158 
Q 831 1038 831 891 
Q 831 666 1001 516 
Q 1172 366 1500 366 
Q 1825 366 2078 508 
Q 2331 650 2450 897 
Q 2541 1088 2541 1459 
L 2541 1666 
z
" transform="scale(0.015625)"/>
       <path id="ArialMT-6c" d="M 409 0 
L 409 4581 
L 972 4581 
L 972 0 
L 409 0 
z
" transform="scale(0.015625)"/>
       <path id="ArialMT-73" d="M 197 991 
L 753 1078 
Q 800 744 1014 566 
Q 1228 388 1613 388 
Q 2000 388 2187 545 
Q 2375 703 2375 916 
Q 2375 1106 2209 1216 
Q 2094 1291 1634 1406 
Q 1016 1563 777 1677 
Q 538 1791 414 1992 
Q 291 2194 291 2438 
Q 291 2659 392 2848 
Q 494 3038 669 3163 
Q 800 3259 1026 3326 
Q 1253 3394 1513 3394 
Q 1903 3394 2198 3281 
Q 2494 3169 2634 2976 
Q 2775 2784 2828 2463 
L 2278 2388 
Q 2241 2644 2061 2787 
Q 1881 2931 1553 2931 
Q 1166 2931 1000 2803 
Q 834 2675 834 2503 
Q 834 2394 903 2306 
Q 972 2216 1119 2156 
Q 1203 2125 1616 2013 
Q 2213 1853 2448 1751 
Q 2684 1650 2818 1456 
Q 2953 1263 2953 975 
Q 2953 694 2789 445 
Q 2625 197 2315 61 
Q 2006 -75 1616 -75 
Q 969 -75 630 194 
Q 291 463 197 991 
z
" transform="scale(0.015625)"/>
       <path id="ArialMT-65" d="M 2694 1069 
L 3275 997 
Q 3138 488 2766 206 
Q 2394 -75 1816 -75 
Q 1088 -75 661 373 
Q 234 822 234 1631 
Q 234 2469 665 2931 
Q 1097 3394 1784 3394 
Q 2450 3394 2872 2941 
Q 3294 2488 3294 1666 
Q 3294 1616 3291 1516 
L 816 1516 
Q 847 969 1125 678 
Q 1403 388 1819 388 
Q 2128 388 2347 550 
Q 2566 713 2694 1069 
z
M 847 1978 
L 2700 1978 
Q 2663 2397 2488 2606 
Q 2219 2931 1791 2931 
Q 1403 2931 1139 2672 
Q 875 2413 847 1978 
z
" transform="scale(0.015625)"/>
       <path id="ArialMT-20" transform="scale(0.015625)"/>
       <path id="ArialMT-50" d="M 494 0 
L 494 4581 
L 2222 4581 
Q 2678 4581 2919 4538 
Q 3256 4481 3484 4323 
Q 3713 4166 3852 3881 
Q 3991 3597 3991 3256 
Q 3991 2672 3619 2267 
Q 3247 1863 2275 1863 
L 1100 1863 
L 1100 0 
L 494 0 
z
M 1100 2403 
L 2284 2403 
Q 2872 2403 3119 2622 
Q 3366 2841 3366 3238 
Q 3366 3525 3220 3729 
Q 3075 3934 2838 4000 
Q 2684 4041 2272 4041 
L 1100 4041 
L 1100 2403 
z
" transform="scale(0.015625)"/>
       <path id="ArialMT-6f" d="M 213 1659 
Q 213 2581 725 3025 
Q 1153 3394 1769 3394 
Q 2453 3394 2887 2945 
Q 3322 2497 3322 1706 
Q 3322 1066 3130 698 
Q 2938 331 2570 128 
Q 2203 -75 1769 -75 
Q 1072 -75 642 372 
Q 213 819 213 1659 
z
M 791 1659 
Q 791 1022 1069 705 
Q 1347 388 1769 388 
Q 2188 388 2466 706 
Q 2744 1025 2744 1678 
Q 2744 2294 2464 2611 
Q 2184 2928 1769 2928 
Q 1347 2928 1069 2612 
Q 791 2297 791 1659 
z
" transform="scale(0.015625)"/>
       <path id="ArialMT-69" d="M 425 3934 
L 425 4581 
L 988 4581 
L 988 3934 
L 425 3934 
z
M 425 0 
L 425 3319 
L 988 3319 
L 988 0 
L 425 0 
z
" transform="scale(0.015625)"/>
       <path id="ArialMT-74" d="M 1650 503 
L 1731 6 
Q 1494 -44 1306 -44 
Q 1000 -44 831 53 
Q 663 150 594 308 
Q 525 466 525 972 
L 525 2881 
L 113 2881 
L 113 3319 
L 525 3319 
L 525 4141 
L 1084 4478 
L 1084 3319 
L 1650 3319 
L 1650 2881 
L 1084 2881 
L 1084 941 
Q 1084 700 1114 631 
Q 1144 563 1211 522 
Q 1278 481 1403 481 
Q 1497 481 1650 503 
z
" transform="scale(0.015625)"/>
       <path id="ArialMT-76" d="M 1344 0 
L 81 3319 
L 675 3319 
L 1388 1331 
Q 1503 1009 1600 663 
Q 1675 925 1809 1294 
L 2547 3319 
L 3125 3319 
L 1869 0 
L 1344 0 
z
" transform="scale(0.015625)"/>
       <path id="ArialMT-52" d="M 503 0 
L 503 4581 
L 2534 4581 
Q 3147 4581 3465 4457 
Q 3784 4334 3975 4021 
Q 4166 3709 4166 3331 
Q 4166 2844 3850 2509 
Q 3534 2175 2875 2084 
Q 3116 1969 3241 1856 
Q 3506 1613 3744 1247 
L 4541 0 
L 3778 0 
L 3172 953 
Q 2906 1366 2734 1584 
Q 2563 1803 2427 1890 
Q 2291 1978 2150 2013 
Q 2047 2034 1813 2034 
L 1109 2034 
L 1109 0 
L 503 0 
z
M 1109 2559 
L 2413 2559 
Q 2828 2559 3062 2645 
Q 3297 2731 3419 2920 
Q 3541 3109 3541 3331 
Q 3541 3656 3305 3865 
Q 3069 4075 2559 4075 
L 1109 4075 
L 1109 2559 
z
" transform="scale(0.015625)"/>
      </defs>
      <use xlink:href="#ArialMT-46"/>
      <use xlink:href="#ArialMT-61" transform="translate(61.083984 0)"/>
      <use xlink:href="#ArialMT-6c" transform="translate(116.699219 0)"/>
      <use xlink:href="#ArialMT-73" transform="translate(138.916016 0)"/>
      <use xlink:href="#ArialMT-65" transform="translate(188.916016 0)"/>
      <use xlink:href="#ArialMT-20" transform="translate(244.53125 0)"/>
      <use xlink:href="#ArialMT-50" transform="translate(272.314453 0)"/>
      <use xlink:href="#ArialMT-6f" transform="translate(339.013672 0)"/>
      <use xlink:href="#ArialMT-73" transform="translate(394.628906 0)"/>
      <use xlink:href="#ArialMT-69" transform="translate(444.628906 0)"/>
      <use xlink:href="#ArialMT-74" transform="translate(466.845703 0)"/>
      <use xlink:href="#ArialMT-69" transform="translate(494.628906 0)"/>
      <use xlink:href="#ArialMT-76" transform="translate(516.845703 0)"/>
      <use xlink:href="#ArialMT-65" transform="translate(566.845703 0)"/>
      <use xlink:href="#ArialMT-20" transform="translate(622.460938 0)"/>
      <use xlink:href="#ArialMT-52" transform="translate(650.244141 0)"/>
      <use xlink:href="#ArialMT-61" transform="translate(722.460938 0)"/>
      <use xlink:href="#ArialMT-74" transform="translate(778.076172 0)"/>
      <use xlink:href="#ArialMT-65" transform="translate(805.859375 0)"/>
     </g>
    </g>
   </g>
   <g id="matplotlib.axis_2">
    <g id="ytick_1">
     <g id="line2d_13">
      <path d="M 37.745313 375.121193 
L 561.43817 375.121193 
" clip-path="url(#p82902da991)" style="fill: none; stroke: #cccccc; stroke-width: 0.8; stroke-linecap: round"/>
     </g>
     <g id="line2d_14"/>
     <g id="text_8">
      <!-- 0.0 -->
      <g style="fill: #262626" transform="translate(20.345313 378.700099) scale(0.1 -0.1)">
       <use xlink:href="#ArialMT-30"/>
       <use xlink:href="#ArialMT-2e" transform="translate(55.615234 0)"/>
       <use xlink:href="#ArialMT-30" transform="translate(83.398438 0)"/>
      </g>
     </g>
    </g>
    <g id="ytick_2">
     <g id="line2d_15">
      <path d="M 37.745313 307.819894 
L 561.43817 307.819894 
" clip-path="url(#p82902da991)" style="fill: none; stroke: #cccccc; stroke-width: 0.8; stroke-linecap: round"/>
     </g>
     <g id="line2d_16"/>
     <g id="text_9">
      <!-- 0.2 -->
      <g style="fill: #262626" transform="translate(20.345313 311.398801) scale(0.1 -0.1)">
       <use xlink:href="#ArialMT-30"/>
       <use xlink:href="#ArialMT-2e" transform="translate(55.615234 0)"/>
       <use xlink:href="#ArialMT-32" transform="translate(83.398438 0)"/>
      </g>
     </g>
    </g>
    <g id="ytick_3">
     <g id="line2d_17">
      <path d="M 37.745313 240.518596 
L 561.43817 240.518596 
" clip-path="url(#p82902da991)" style="fill: none; stroke: #cccccc; stroke-width: 0.8; stroke-linecap: round"/>
     </g>
     <g id="line2d_18"/>
     <g id="text_10">
      <!-- 0.4 -->
      <g style="fill: #262626" transform="translate(20.345313 244.097502) scale(0.1 -0.1)">
       <use xlink:href="#ArialMT-30"/>
       <use xlink:href="#ArialMT-2e" transform="translate(55.615234 0)"/>
       <use xlink:href="#ArialMT-34" transform="translate(83.398438 0)"/>
      </g>
     </g>
    </g>
    <g id="ytick_4">
     <g id="line2d_19">
      <path d="M 37.745313 173.217297 
L 561.43817 173.217297 
" clip-path="url(#p82902da991)" style="fill: none; stroke: #cccccc; stroke-width: 0.8; stroke-linecap: round"/>
     </g>
     <g id="line2d_20"/>
     <g id="text_11">
      <!-- 0.6 -->
      <g style="fill: #262626" transform="translate(20.345313 176.796203) scale(0.1 -0.1)">
       <use xlink:href="#ArialMT-30"/>
       <use xlink:href="#ArialMT-2e" transform="translate(55.615234 0)"/>
       <use xlink:href="#ArialMT-36" transform="translate(83.398438 0)"/>
      </g>
     </g>
    </g>
    <g id="ytick_5">
     <g id="line2d_21">
      <path d="M 37.745313 105.915998 
L 561.43817 105.915998 
" clip-path="url(#p82902da991)" style="fill: none; stroke: #cccccc; stroke-width: 0.8; stroke-linecap: round"/>
     </g>
     <g id="line2d_22"/>
     <g id="text_12">
      <!-- 0.8 -->
      <g style="fill: #262626" transform="translate(20.345313 109.494905) scale(0.1 -0.1)">
       <use xlink:href="#ArialMT-30"/>
       <use xlink:href="#ArialMT-2e" transform="translate(55.615234 0)"/>
       <use xlink:href="#ArialMT-38" transform="translate(83.398438 0)"/>
      </g>
     </g>
    </g>
    <g id="ytick_6">
     <g id="line2d_23">
      <path d="M 37.745313 38.6147 
L 561.43817 38.6147 
" clip-path="url(#p82902da991)" style="fill: none; stroke: #cccccc; stroke-width: 0.8; stroke-linecap: round"/>
     </g>
     <g id="line2d_24"/>
     <g id="text_13">
      <!-- 1.0 -->
      <g style="fill: #262626" transform="translate(20.345313 42.193606) scale(0.1 -0.1)">
       <use xlink:href="#ArialMT-31"/>
       <use xlink:href="#ArialMT-2e" transform="translate(55.615234 0)"/>
       <use xlink:href="#ArialMT-30" transform="translate(83.398438 0)"/>
      </g>
     </g>
    </g>
    <g id="text_14">
     <!-- True Positive Rate -->
     <g style="fill: #262626" transform="translate(14.357813 247.806228) rotate(-90) scale(0.1 -0.1)">
      <defs>
       <path id="ArialMT-54" d="M 1659 0 
L 1659 4041 
L 150 4041 
L 150 4581 
L 3781 4581 
L 3781 4041 
L 2266 4041 
L 2266 0 
L 1659 0 
z
" transform="scale(0.015625)"/>
       <path id="ArialMT-72" d="M 416 0 
L 416 3319 
L 922 3319 
L 922 2816 
Q 1116 3169 1280 3281 
Q 1444 3394 1641 3394 
Q 1925 3394 2219 3213 
L 2025 2691 
Q 1819 2813 1613 2813 
Q 1428 2813 1281 2702 
Q 1134 2591 1072 2394 
Q 978 2094 978 1738 
L 978 0 
L 416 0 
z
" transform="scale(0.015625)"/>
       <path id="ArialMT-75" d="M 2597 0 
L 2597 488 
Q 2209 -75 1544 -75 
Q 1250 -75 995 37 
Q 741 150 617 320 
Q 494 491 444 738 
Q 409 903 409 1263 
L 409 3319 
L 972 3319 
L 972 1478 
Q 972 1038 1006 884 
Q 1059 663 1231 536 
Q 1403 409 1656 409 
Q 1909 409 2131 539 
Q 2353 669 2445 892 
Q 2538 1116 2538 1541 
L 2538 3319 
L 3100 3319 
L 3100 0 
L 2597 0 
z
" transform="scale(0.015625)"/>
      </defs>
      <use xlink:href="#ArialMT-54"/>
      <use xlink:href="#ArialMT-72" transform="translate(57.333984 0)"/>
      <use xlink:href="#ArialMT-75" transform="translate(90.634766 0)"/>
      <use xlink:href="#ArialMT-65" transform="translate(146.25 0)"/>
      <use xlink:href="#ArialMT-20" transform="translate(201.865234 0)"/>
      <use xlink:href="#ArialMT-50" transform="translate(229.648438 0)"/>
      <use xlink:href="#ArialMT-6f" transform="translate(296.347656 0)"/>
      <use xlink:href="#ArialMT-73" transform="translate(351.962891 0)"/>
      <use xlink:href="#ArialMT-69" transform="translate(401.962891 0)"/>
      <use xlink:href="#ArialMT-74" transform="translate(424.179688 0)"/>
      <use xlink:href="#ArialMT-69" transform="translate(451.962891 0)"/>
      <use xlink:href="#ArialMT-76" transform="translate(474.179688 0)"/>
      <use xlink:href="#ArialMT-65" transform="translate(524.179688 0)"/>
      <use xlink:href="#ArialMT-20" transform="translate(579.794922 0)"/>
      <use xlink:href="#ArialMT-52" transform="translate(607.578125 0)"/>
      <use xlink:href="#ArialMT-61" transform="translate(679.794922 0)"/>
      <use xlink:href="#ArialMT-74" transform="translate(735.410156 0)"/>
      <use xlink:href="#ArialMT-65" transform="translate(763.193359 0)"/>
     </g>
    </g>
   </g>
   <g id="line2d_25">
    <path d="M 61.549533 375.121193 
L 67.575918 375.121193 
L 67.575918 368.965587 
L 73.602303 368.965587 
L 73.602303 365.887783 
L 75.611098 365.887783 
L 75.611098 364.861849 
L 77.619893 364.861849 
L 77.619893 363.835914 
L 81.637483 363.835914 
L 81.637483 362.80998 
L 83.646278 362.80998 
L 83.646278 361.784046 
L 91.681458 361.784046 
L 91.681458 357.680308 
L 93.690253 357.680308 
L 93.690253 356.654373 
L 97.707843 356.654373 
L 97.707843 354.602505 
L 99.716638 354.602505 
L 99.716638 352.550636 
L 103.734228 352.550636 
L 103.734228 351.524701 
L 105.743023 351.524701 
L 105.743023 348.446898 
L 111.769408 348.446898 
L 111.769408 344.34316 
L 113.778203 344.34316 
L 113.778203 341.265357 
L 115.786998 341.265357 
L 115.786998 340.239423 
L 117.795793 340.239423 
L 117.795793 339.213488 
L 123.822178 339.213488 
L 123.822178 334.083816 
L 125.830973 334.083816 
L 125.830973 333.057881 
L 127.839768 333.057881 
L 127.839768 331.006013 
L 129.848563 331.006013 
L 129.848563 326.902275 
L 135.874948 326.902275 
L 135.874948 323.824472 
L 137.883743 323.824472 
L 137.883743 318.694799 
L 141.901333 318.694799 
L 141.901333 316.642931 
L 145.918923 316.642931 
L 145.918923 315.616996 
L 149.936513 315.616996 
L 149.936513 314.591062 
L 151.945308 314.591062 
L 151.945308 313.565127 
L 159.980488 313.565127 
L 159.980488 310.487324 
L 161.989283 310.487324 
L 161.989283 307.409521 
L 170.024463 307.409521 
L 170.024463 304.331717 
L 172.033258 304.331717 
L 172.033258 303.305783 
L 174.042053 303.305783 
L 174.042053 300.22798 
L 180.068438 300.22798 
L 180.068438 299.202045 
L 182.077233 299.202045 
L 182.077233 296.124242 
L 186.094823 296.124242 
L 186.094823 295.098308 
L 188.103618 295.098308 
L 188.103618 288.942701 
L 190.112413 288.942701 
L 190.112413 287.916767 
L 194.130003 287.916767 
L 194.130003 286.890832 
L 196.138798 286.890832 
L 196.138798 280.735225 
L 198.147593 280.735225 
L 198.147593 278.683357 
L 200.156388 278.683357 
L 200.156388 277.657422 
L 204.173978 277.657422 
L 204.173978 275.605553 
L 206.182773 275.605553 
L 206.182773 272.52775 
L 208.191568 272.52775 
L 208.191568 271.501816 
L 214.217953 271.501816 
L 214.217953 270.475881 
L 216.226748 270.475881 
L 216.226748 269.449947 
L 224.261928 269.449947 
L 224.261928 266.372143 
L 226.270723 266.372143 
L 226.270723 265.346209 
L 234.305903 265.346209 
L 234.305903 264.320275 
L 238.323493 264.320275 
L 238.323493 263.29434 
L 242.341084 263.29434 
L 242.341084 258.164668 
L 244.349879 258.164668 
L 244.349879 256.112799 
L 246.358674 256.112799 
L 246.358674 254.06093 
L 252.385059 254.06093 
L 252.385059 250.983127 
L 256.402649 250.983127 
L 256.402649 246.879389 
L 260.420239 246.879389 
L 260.420239 245.853455 
L 262.429034 245.853455 
L 262.429034 243.801586 
L 264.437829 243.801586 
L 264.437829 242.775652 
L 266.446624 242.775652 
L 266.446624 235.594111 
L 272.473009 235.594111 
L 272.473009 231.490373 
L 274.481804 231.490373 
L 274.481804 227.386635 
L 282.516984 227.386635 
L 282.516984 223.282897 
L 284.525779 223.282897 
L 284.525779 216.101356 
L 290.552164 216.101356 
L 290.552164 215.075422 
L 292.560959 215.075422 
L 292.560959 213.023553 
L 294.569754 213.023553 
L 294.569754 210.971684 
L 296.578549 210.971684 
L 296.578549 208.919815 
L 298.587344 208.919815 
L 298.587344 202.764209 
L 300.596139 202.764209 
L 300.596139 201.738274 
L 302.604934 201.738274 
L 302.604934 200.71234 
L 310.640114 200.71234 
L 310.640114 196.608602 
L 312.648909 196.608602 
L 312.648909 194.556733 
L 314.657704 194.556733 
L 314.657704 193.530799 
L 326.710474 193.530799 
L 326.710474 191.47893 
L 330.728064 191.47893 
L 330.728064 187.375192 
L 332.736859 187.375192 
L 332.736859 185.323323 
L 334.745654 185.323323 
L 334.745654 184.297389 
L 336.754449 184.297389 
L 336.754449 179.167717 
L 340.772039 179.167717 
L 340.772039 178.141782 
L 342.780834 178.141782 
L 342.780834 176.089913 
L 346.798424 176.089913 
L 346.798424 175.063979 
L 348.807219 175.063979 
L 348.807219 174.038045 
L 350.816014 174.038045 
L 350.816014 173.01211 
L 352.824809 173.01211 
L 352.824809 169.934307 
L 354.833604 169.934307 
L 354.833604 168.908372 
L 356.842399 168.908372 
L 356.842399 167.882438 
L 360.859989 167.882438 
L 360.859989 166.856504 
L 362.868784 166.856504 
L 362.868784 165.830569 
L 364.877579 165.830569 
L 364.877579 163.7787 
L 366.886374 163.7787 
L 366.886374 161.726831 
L 374.921554 161.726831 
L 374.921554 160.700897 
L 376.930349 160.700897 
L 376.930349 157.623094 
L 378.939144 157.623094 
L 378.939144 154.54529 
L 382.956734 154.54529 
L 382.956734 150.441553 
L 384.965529 150.441553 
L 384.965529 147.363749 
L 393.000709 147.363749 
L 393.000709 146.337815 
L 395.009504 146.337815 
L 395.009504 136.078471 
L 399.027094 136.078471 
L 399.027094 133.000667 
L 401.035889 133.000667 
L 401.035889 126.845061 
L 403.044684 126.845061 
L 403.044684 124.793192 
L 405.053479 124.793192 
L 405.053479 123.767257 
L 409.071069 123.767257 
L 409.071069 120.689454 
L 413.088659 120.689454 
L 413.088659 115.559782 
L 417.106249 115.559782 
L 417.106249 114.533848 
L 419.115044 114.533848 
L 419.115044 110.43011 
L 423.132634 110.43011 
L 423.132634 109.404175 
L 425.141429 109.404175 
L 425.141429 107.352307 
L 431.167814 107.352307 
L 431.167814 105.300438 
L 435.185404 105.300438 
L 435.185404 102.222634 
L 441.211789 102.222634 
L 441.211789 99.144831 
L 443.220584 99.144831 
L 443.220584 94.015159 
L 451.255764 94.015159 
L 451.255764 92.989225 
L 455.273354 92.989225 
L 455.273354 86.833618 
L 457.282149 86.833618 
L 457.282149 85.807684 
L 461.299739 85.807684 
L 461.299739 84.781749 
L 463.308534 84.781749 
L 463.308534 76.574274 
L 467.326124 76.574274 
L 467.326124 74.522405 
L 471.343714 74.522405 
L 471.343714 72.470536 
L 473.352509 72.470536 
L 473.352509 71.444601 
L 475.361304 71.444601 
L 475.361304 69.392733 
L 477.370099 69.392733 
L 477.370099 68.366798 
L 479.378894 68.366798 
L 479.378894 67.340864 
L 483.396484 67.340864 
L 483.396484 61.185257 
L 485.405279 61.185257 
L 485.405279 60.159323 
L 491.431664 60.159323 
L 491.431664 57.081519 
L 493.440459 57.081519 
L 493.440459 56.055585 
L 495.449254 56.055585 
L 495.449254 52.977782 
L 497.458049 52.977782 
L 497.458049 50.925913 
L 515.537204 50.925913 
L 515.537204 49.899978 
L 517.545999 49.899978 
L 517.545999 45.796241 
L 519.554794 45.796241 
L 519.554794 44.770306 
L 523.572384 44.770306 
L 523.572384 42.718437 
L 531.607564 42.718437 
L 531.607564 39.640634 
L 537.633949 39.640634 
L 537.633949 38.6147 
L 537.633949 38.6147 
" clip-path="url(#p82902da991)" style="fill: none; stroke: #1f77b4; stroke-width: 1.8; stroke-linecap: round"/>
   </g>
   <g id="line2d_26">
    <path d="M 61.549533 375.121193 
L 65.567123 375.121193 
L 65.567123 372.04339 
L 69.584713 372.04339 
L 69.584713 371.017455 
L 71.593508 371.017455 
L 71.593508 367.939652 
L 73.602303 367.939652 
L 73.602303 364.861849 
L 77.619893 364.861849 
L 77.619893 362.80998 
L 79.628688 362.80998 
L 79.628688 359.732177 
L 81.637483 359.732177 
L 81.637483 358.706242 
L 83.646278 358.706242 
L 83.646278 354.602505 
L 85.655073 354.602505 
L 85.655073 350.498767 
L 87.663868 350.498767 
L 87.663868 349.472832 
L 91.681458 349.472832 
L 91.681458 348.446898 
L 93.690253 348.446898 
L 93.690253 343.317226 
L 95.699048 343.317226 
L 95.699048 341.265357 
L 97.707843 341.265357 
L 97.707843 339.213488 
L 99.716638 339.213488 
L 99.716638 338.187554 
L 101.725433 338.187554 
L 101.725433 337.161619 
L 107.751818 337.161619 
L 107.751818 335.10975 
L 109.760613 335.10975 
L 109.760613 333.057881 
L 113.778203 333.057881 
L 113.778203 329.980078 
L 119.804588 329.980078 
L 119.804588 328.954144 
L 121.813383 328.954144 
L 121.813383 327.928209 
L 125.830973 327.928209 
L 125.830973 325.87634 
L 129.848563 325.87634 
L 129.848563 323.824472 
L 133.866153 323.824472 
L 133.866153 322.798537 
L 137.883743 322.798537 
L 137.883743 320.746668 
L 139.892538 320.746668 
L 139.892538 316.642931 
L 147.927718 316.642931 
L 147.927718 315.616996 
L 151.945308 315.616996 
L 151.945308 313.565127 
L 153.954103 313.565127 
L 153.954103 311.513258 
L 159.980488 311.513258 
L 159.980488 309.46139 
L 163.998078 309.46139 
L 163.998078 307.409521 
L 166.006873 307.409521 
L 166.006873 306.383586 
L 174.042053 306.383586 
L 174.042053 303.305783 
L 178.059643 303.305783 
L 178.059643 301.253914 
L 186.094823 301.253914 
L 186.094823 298.176111 
L 188.103618 298.176111 
L 188.103618 297.150176 
L 190.112413 297.150176 
L 190.112413 295.098308 
L 194.130003 295.098308 
L 194.130003 292.020504 
L 196.138798 292.020504 
L 196.138798 277.657422 
L 198.147593 277.657422 
L 198.147593 274.579619 
L 204.173978 274.579619 
L 204.173978 273.553684 
L 210.200363 273.553684 
L 210.200363 272.52775 
L 212.209158 272.52775 
L 212.209158 270.475881 
L 214.217953 270.475881 
L 214.217953 268.424012 
L 218.235543 268.424012 
L 218.235543 267.398078 
L 220.244338 267.398078 
L 220.244338 263.29434 
L 226.270723 263.29434 
L 226.270723 262.268406 
L 228.279518 262.268406 
L 228.279518 261.242471 
L 230.288313 261.242471 
L 230.288313 256.112799 
L 232.297108 256.112799 
L 232.297108 255.086865 
L 234.305903 255.086865 
L 234.305903 254.06093 
L 236.314698 254.06093 
L 236.314698 253.034996 
L 238.323493 253.034996 
L 238.323493 250.983127 
L 242.341084 250.983127 
L 242.341084 249.957193 
L 244.349879 249.957193 
L 244.349879 248.931258 
L 246.358674 248.931258 
L 246.358674 247.905324 
L 248.367469 247.905324 
L 248.367469 245.853455 
L 252.385059 245.853455 
L 252.385059 244.82752 
L 254.393854 244.82752 
L 254.393854 237.645979 
L 262.429034 237.645979 
L 262.429034 235.594111 
L 274.481804 235.594111 
L 274.481804 234.568176 
L 276.490599 234.568176 
L 276.490599 231.490373 
L 282.516984 231.490373 
L 282.516984 228.412569 
L 286.534574 228.412569 
L 286.534574 224.308832 
L 288.543369 224.308832 
L 288.543369 221.231028 
L 290.552164 221.231028 
L 290.552164 220.205094 
L 294.569754 220.205094 
L 294.569754 215.075422 
L 296.578549 215.075422 
L 296.578549 213.023553 
L 298.587344 213.023553 
L 298.587344 211.997619 
L 300.596139 211.997619 
L 300.596139 209.94575 
L 302.604934 209.94575 
L 302.604934 207.893881 
L 304.613729 207.893881 
L 304.613729 204.816078 
L 306.622524 204.816078 
L 306.622524 202.764209 
L 308.631319 202.764209 
L 308.631319 201.738274 
L 312.648909 201.738274 
L 312.648909 192.504864 
L 314.657704 192.504864 
L 314.657704 191.47893 
L 322.692884 191.47893 
L 322.692884 189.427061 
L 326.710474 189.427061 
L 326.710474 185.323323 
L 330.728064 185.323323 
L 330.728064 184.297389 
L 332.736859 184.297389 
L 332.736859 183.271455 
L 334.745654 183.271455 
L 334.745654 171.986176 
L 336.754449 171.986176 
L 336.754449 170.960241 
L 338.763244 170.960241 
L 338.763244 169.934307 
L 340.772039 169.934307 
L 340.772039 166.856504 
L 344.789629 166.856504 
L 344.789629 163.7787 
L 346.798424 163.7787 
L 346.798424 160.700897 
L 348.807219 160.700897 
L 348.807219 157.623094 
L 350.816014 157.623094 
L 350.816014 155.571225 
L 352.824809 155.571225 
L 352.824809 154.54529 
L 354.833604 154.54529 
L 354.833604 151.467487 
L 356.842399 151.467487 
L 356.842399 149.415618 
L 358.851194 149.415618 
L 358.851194 146.337815 
L 362.868784 146.337815 
L 362.868784 144.285946 
L 364.877579 144.285946 
L 364.877579 143.260012 
L 372.912759 143.260012 
L 372.912759 142.234077 
L 374.921554 142.234077 
L 374.921554 141.208143 
L 376.930349 141.208143 
L 376.930349 140.182208 
L 378.939144 140.182208 
L 378.939144 138.13034 
L 380.947939 138.13034 
L 380.947939 137.104405 
L 388.983119 137.104405 
L 388.983119 134.026602 
L 390.991914 134.026602 
L 390.991914 130.948799 
L 393.000709 130.948799 
L 393.000709 127.870995 
L 397.018299 127.870995 
L 397.018299 126.845061 
L 405.053479 126.845061 
L 405.053479 125.819126 
L 409.071069 125.819126 
L 409.071069 124.793192 
L 411.079864 124.793192 
L 411.079864 123.767257 
L 419.115044 123.767257 
L 419.115044 122.741323 
L 421.123839 122.741323 
L 421.123839 121.715389 
L 423.132634 121.715389 
L 423.132634 119.66352 
L 425.141429 119.66352 
L 425.141429 118.637585 
L 429.159019 118.637585 
L 429.159019 116.585716 
L 431.167814 116.585716 
L 431.167814 115.559782 
L 433.176609 115.559782 
L 433.176609 111.456044 
L 439.202994 111.456044 
L 439.202994 108.378241 
L 443.220584 108.378241 
L 443.220584 98.118897 
L 445.229379 98.118897 
L 445.229379 97.092962 
L 447.238174 97.092962 
L 447.238174 95.041093 
L 449.246969 95.041093 
L 449.246969 94.015159 
L 451.255764 94.015159 
L 451.255764 90.937356 
L 453.264559 90.937356 
L 453.264559 89.911421 
L 455.273354 89.911421 
L 455.273354 86.833618 
L 457.282149 86.833618 
L 457.282149 82.72988 
L 459.290944 82.72988 
L 459.290944 81.703946 
L 469.334919 81.703946 
L 469.334919 79.652077 
L 471.343714 79.652077 
L 471.343714 77.600208 
L 477.370099 77.600208 
L 477.370099 70.418667 
L 483.396484 70.418667 
L 483.396484 69.392733 
L 485.405279 69.392733 
L 485.405279 68.366798 
L 489.422869 68.366798 
L 489.422869 66.314929 
L 497.458049 66.314929 
L 497.458049 64.26306 
L 503.484434 64.26306 
L 503.484434 63.237126 
L 507.502024 63.237126 
L 507.502024 60.159323 
L 509.510819 60.159323 
L 509.510819 57.081519 
L 513.528409 57.081519 
L 513.528409 56.055585 
L 515.537204 56.055585 
L 515.537204 55.029651 
L 517.545999 55.029651 
L 517.545999 51.951847 
L 519.554794 51.951847 
L 519.554794 47.84811 
L 521.563589 47.84811 
L 521.563589 45.796241 
L 523.572384 45.796241 
L 523.572384 44.770306 
L 525.581179 44.770306 
L 525.581179 43.744372 
L 527.589974 43.744372 
L 527.589974 42.718437 
L 531.607564 42.718437 
L 531.607564 41.692503 
L 533.616359 41.692503 
L 533.616359 40.666569 
L 535.625154 40.666569 
L 535.625154 39.640634 
L 537.633949 39.640634 
L 537.633949 38.6147 
L 537.633949 38.6147 
" clip-path="url(#p82902da991)" style="fill: none; stroke: #ff7f0e; stroke-width: 1.8; stroke-linecap: round"/>
   </g>
   <g id="line2d_27">
    <path d="M 61.549533 375.121193 
L 61.549533 374.095259 
L 63.558328 374.095259 
L 63.558328 372.04339 
L 65.567123 372.04339 
L 65.567123 371.017455 
L 69.584713 371.017455 
L 69.584713 366.913718 
L 73.602303 366.913718 
L 73.602303 364.861849 
L 77.619893 364.861849 
L 77.619893 360.758111 
L 79.628688 360.758111 
L 79.628688 359.732177 
L 81.637483 359.732177 
L 81.637483 358.706242 
L 89.672663 358.706242 
L 89.672663 352.550636 
L 91.681458 352.550636 
L 91.681458 343.317226 
L 93.690253 343.317226 
L 93.690253 341.265357 
L 95.699048 341.265357 
L 95.699048 339.213488 
L 99.716638 339.213488 
L 99.716638 337.161619 
L 105.743023 337.161619 
L 105.743023 334.083816 
L 111.769408 334.083816 
L 111.769408 331.006013 
L 113.778203 331.006013 
L 113.778203 327.928209 
L 115.786998 327.928209 
L 115.786998 326.902275 
L 117.795793 326.902275 
L 117.795793 325.87634 
L 119.804588 325.87634 
L 119.804588 324.850406 
L 121.813383 324.850406 
L 121.813383 322.798537 
L 123.822178 322.798537 
L 123.822178 319.720734 
L 125.830973 319.720734 
L 125.830973 317.668865 
L 127.839768 317.668865 
L 127.839768 315.616996 
L 131.857358 315.616996 
L 131.857358 314.591062 
L 133.866153 314.591062 
L 133.866153 313.565127 
L 143.910128 313.565127 
L 143.910128 311.513258 
L 145.918923 311.513258 
L 145.918923 306.383586 
L 147.927718 306.383586 
L 147.927718 305.357652 
L 155.962898 305.357652 
L 155.962898 304.331717 
L 157.971693 304.331717 
L 157.971693 297.150176 
L 159.980488 297.150176 
L 159.980488 295.098308 
L 161.989283 295.098308 
L 161.989283 290.99457 
L 163.998078 290.99457 
L 163.998078 289.968635 
L 166.006873 289.968635 
L 166.006873 288.942701 
L 168.015668 288.942701 
L 168.015668 285.864898 
L 170.024463 285.864898 
L 170.024463 282.787094 
L 172.033258 282.787094 
L 172.033258 281.76116 
L 174.042053 281.76116 
L 174.042053 276.631488 
L 176.050848 276.631488 
L 176.050848 272.52775 
L 180.068438 272.52775 
L 180.068438 271.501816 
L 182.077233 271.501816 
L 182.077233 270.475881 
L 186.094823 270.475881 
L 186.094823 268.424012 
L 188.103618 268.424012 
L 188.103618 267.398078 
L 190.112413 267.398078 
L 190.112413 265.346209 
L 196.138798 265.346209 
L 196.138798 262.268406 
L 198.147593 262.268406 
L 198.147593 261.242471 
L 204.173978 261.242471 
L 204.173978 260.216537 
L 208.191568 260.216537 
L 208.191568 259.190602 
L 212.209158 259.190602 
L 212.209158 258.164668 
L 216.226748 258.164668 
L 216.226748 257.138734 
L 218.235543 257.138734 
L 218.235543 253.034996 
L 220.244338 253.034996 
L 220.244338 252.009061 
L 222.253133 252.009061 
L 222.253133 250.983127 
L 224.261928 250.983127 
L 224.261928 248.931258 
L 226.270723 248.931258 
L 226.270723 245.853455 
L 228.279518 245.853455 
L 228.279518 242.775652 
L 232.297108 242.775652 
L 232.297108 239.697848 
L 238.323493 239.697848 
L 238.323493 238.671914 
L 240.332288 238.671914 
L 240.332288 237.645979 
L 242.341084 237.645979 
L 242.341084 236.620045 
L 246.358674 236.620045 
L 246.358674 228.412569 
L 250.376264 228.412569 
L 250.376264 224.308832 
L 252.385059 224.308832 
L 252.385059 222.256963 
L 254.393854 222.256963 
L 254.393854 219.17916 
L 262.429034 219.17916 
L 262.429034 218.153225 
L 266.446624 218.153225 
L 266.446624 211.997619 
L 268.455419 211.997619 
L 268.455419 204.816078 
L 272.473009 204.816078 
L 272.473009 202.764209 
L 274.481804 202.764209 
L 274.481804 200.71234 
L 278.499394 200.71234 
L 278.499394 196.608602 
L 286.534574 196.608602 
L 286.534574 194.556733 
L 288.543369 194.556733 
L 288.543369 192.504864 
L 290.552164 192.504864 
L 290.552164 190.452996 
L 292.560959 190.452996 
L 292.560959 189.427061 
L 294.569754 189.427061 
L 294.569754 186.349258 
L 296.578549 186.349258 
L 296.578549 185.323323 
L 302.604934 185.323323 
L 302.604934 183.271455 
L 304.613729 183.271455 
L 304.613729 181.219586 
L 308.631319 181.219586 
L 308.631319 180.193651 
L 312.648909 180.193651 
L 312.648909 179.167717 
L 316.666499 179.167717 
L 316.666499 178.141782 
L 320.684089 178.141782 
L 320.684089 168.908372 
L 322.692884 168.908372 
L 322.692884 165.830569 
L 326.710474 165.830569 
L 326.710474 164.804635 
L 328.719269 164.804635 
L 328.719269 163.7787 
L 330.728064 163.7787 
L 330.728064 161.726831 
L 334.745654 161.726831 
L 334.745654 148.389684 
L 336.754449 148.389684 
L 336.754449 147.363749 
L 344.789629 147.363749 
L 344.789629 145.311881 
L 352.824809 145.311881 
L 352.824809 144.285946 
L 354.833604 144.285946 
L 354.833604 142.234077 
L 358.851194 142.234077 
L 358.851194 139.156274 
L 360.859989 139.156274 
L 360.859989 138.13034 
L 362.868784 138.13034 
L 362.868784 137.104405 
L 368.895169 137.104405 
L 368.895169 136.078471 
L 370.903964 136.078471 
L 370.903964 134.026602 
L 372.912759 134.026602 
L 372.912759 131.974733 
L 374.921554 131.974733 
L 374.921554 130.948799 
L 384.965529 130.948799 
L 384.965529 129.922864 
L 386.974324 129.922864 
L 386.974324 127.870995 
L 388.983119 127.870995 
L 388.983119 121.715389 
L 390.991914 121.715389 
L 390.991914 118.637585 
L 393.000709 118.637585 
L 393.000709 115.559782 
L 397.018299 115.559782 
L 397.018299 109.404175 
L 403.044684 109.404175 
L 403.044684 108.378241 
L 405.053479 108.378241 
L 405.053479 107.352307 
L 409.071069 107.352307 
L 409.071069 105.300438 
L 411.079864 105.300438 
L 411.079864 101.1967 
L 413.088659 101.1967 
L 413.088659 98.118897 
L 417.106249 98.118897 
L 417.106249 97.092962 
L 421.123839 97.092962 
L 421.123839 96.067028 
L 423.132634 96.067028 
L 423.132634 94.015159 
L 425.141429 94.015159 
L 425.141429 91.96329 
L 427.150224 91.96329 
L 427.150224 90.937356 
L 429.159019 90.937356 
L 429.159019 89.911421 
L 431.167814 89.911421 
L 431.167814 87.859552 
L 433.176609 87.859552 
L 433.176609 86.833618 
L 439.202994 86.833618 
L 439.202994 85.807684 
L 447.238174 85.807684 
L 447.238174 81.703946 
L 449.246969 81.703946 
L 449.246969 80.678011 
L 453.264559 80.678011 
L 453.264559 77.600208 
L 457.282149 77.600208 
L 457.282149 70.418667 
L 459.290944 70.418667 
L 459.290944 69.392733 
L 463.308534 69.392733 
L 463.308534 68.366798 
L 469.334919 68.366798 
L 469.334919 67.340864 
L 475.361304 67.340864 
L 475.361304 66.314929 
L 477.370099 66.314929 
L 477.370099 65.288995 
L 479.378894 65.288995 
L 479.378894 64.26306 
L 481.387689 64.26306 
L 481.387689 63.237126 
L 485.405279 63.237126 
L 485.405279 61.185257 
L 487.414074 61.185257 
L 487.414074 59.133388 
L 493.440459 59.133388 
L 493.440459 56.055585 
L 497.458049 56.055585 
L 497.458049 54.003716 
L 501.475639 54.003716 
L 501.475639 52.977782 
L 513.528409 52.977782 
L 513.528409 49.899978 
L 517.545999 49.899978 
L 517.545999 48.874044 
L 519.554794 48.874044 
L 519.554794 47.84811 
L 521.563589 47.84811 
L 521.563589 44.770306 
L 523.572384 44.770306 
L 523.572384 42.718437 
L 525.581179 42.718437 
L 525.581179 41.692503 
L 533.616359 41.692503 
L 533.616359 40.666569 
L 535.625154 40.666569 
L 535.625154 38.6147 
L 537.633949 38.6147 
L 537.633949 38.6147 
" clip-path="url(#p82902da991)" style="fill: none; stroke: #2ca02c; stroke-width: 1.8; stroke-linecap: round"/>
   </g>
   <g id="line2d_28">
    <path d="M 61.549533 375.121193 
L 61.549533 373.069324 
L 63.558328 373.069324 
L 63.558328 372.04339 
L 65.567123 372.04339 
L 65.567123 366.913718 
L 67.575918 366.913718 
L 67.575918 364.861849 
L 69.584713 364.861849 
L 69.584713 354.602505 
L 79.628688 354.602505 
L 79.628688 353.57657 
L 81.637483 353.57657 
L 81.637483 351.524701 
L 83.646278 351.524701 
L 83.646278 350.498767 
L 85.655073 350.498767 
L 85.655073 349.472832 
L 87.663868 349.472832 
L 87.663868 344.34316 
L 91.681458 344.34316 
L 91.681458 337.161619 
L 93.690253 337.161619 
L 93.690253 333.057881 
L 97.707843 333.057881 
L 97.707843 332.031947 
L 101.725433 332.031947 
L 101.725433 331.006013 
L 103.734228 331.006013 
L 103.734228 328.954144 
L 105.743023 328.954144 
L 105.743023 326.902275 
L 109.760613 326.902275 
L 109.760613 325.87634 
L 111.769408 325.87634 
L 111.769408 324.850406 
L 117.795793 324.850406 
L 117.795793 321.772603 
L 121.813383 321.772603 
L 121.813383 319.720734 
L 125.830973 319.720734 
L 125.830973 317.668865 
L 127.839768 317.668865 
L 127.839768 316.642931 
L 129.848563 316.642931 
L 129.848563 315.616996 
L 131.857358 315.616996 
L 131.857358 314.591062 
L 137.883743 314.591062 
L 137.883743 310.487324 
L 141.901333 310.487324 
L 141.901333 309.46139 
L 145.918923 309.46139 
L 145.918923 308.435455 
L 155.962898 308.435455 
L 155.962898 306.383586 
L 161.989283 306.383586 
L 161.989283 305.357652 
L 166.006873 305.357652 
L 166.006873 304.331717 
L 168.015668 304.331717 
L 168.015668 303.305783 
L 170.024463 303.305783 
L 170.024463 302.279849 
L 172.033258 302.279849 
L 172.033258 300.22798 
L 180.068438 300.22798 
L 180.068438 298.176111 
L 182.077233 298.176111 
L 182.077233 296.124242 
L 188.103618 296.124242 
L 188.103618 292.020504 
L 194.130003 292.020504 
L 194.130003 288.942701 
L 196.138798 288.942701 
L 196.138798 287.916767 
L 204.173978 287.916767 
L 204.173978 286.890832 
L 210.200363 286.890832 
L 210.200363 285.864898 
L 214.217953 285.864898 
L 214.217953 281.76116 
L 218.235543 281.76116 
L 218.235543 280.735225 
L 220.244338 280.735225 
L 220.244338 270.475881 
L 224.261928 270.475881 
L 224.261928 268.424012 
L 232.297108 268.424012 
L 232.297108 264.320275 
L 236.314698 264.320275 
L 236.314698 263.29434 
L 240.332288 263.29434 
L 240.332288 259.190602 
L 242.341084 259.190602 
L 242.341084 252.009061 
L 246.358674 252.009061 
L 246.358674 247.905324 
L 248.367469 247.905324 
L 248.367469 245.853455 
L 252.385059 245.853455 
L 252.385059 243.801586 
L 256.402649 243.801586 
L 256.402649 241.749717 
L 260.420239 241.749717 
L 260.420239 236.620045 
L 262.429034 236.620045 
L 262.429034 235.594111 
L 264.437829 235.594111 
L 264.437829 233.542242 
L 266.446624 233.542242 
L 266.446624 230.464438 
L 268.455419 230.464438 
L 268.455419 229.438504 
L 270.464214 229.438504 
L 270.464214 228.412569 
L 274.481804 228.412569 
L 274.481804 227.386635 
L 278.499394 227.386635 
L 278.499394 223.282897 
L 284.525779 223.282897 
L 284.525779 222.256963 
L 288.543369 222.256963 
L 288.543369 220.205094 
L 294.569754 220.205094 
L 294.569754 219.17916 
L 300.596139 219.17916 
L 300.596139 216.101356 
L 304.613729 216.101356 
L 304.613729 215.075422 
L 306.622524 215.075422 
L 306.622524 210.971684 
L 308.631319 210.971684 
L 308.631319 207.893881 
L 312.648909 207.893881 
L 312.648909 205.842012 
L 314.657704 205.842012 
L 314.657704 193.530799 
L 318.675294 193.530799 
L 318.675294 191.47893 
L 320.684089 191.47893 
L 320.684089 190.452996 
L 322.692884 190.452996 
L 322.692884 186.349258 
L 328.719269 186.349258 
L 328.719269 185.323323 
L 332.736859 185.323323 
L 332.736859 183.271455 
L 338.763244 183.271455 
L 338.763244 180.193651 
L 340.772039 180.193651 
L 340.772039 179.167717 
L 344.789629 179.167717 
L 344.789629 171.986176 
L 348.807219 171.986176 
L 348.807219 170.960241 
L 350.816014 170.960241 
L 350.816014 165.830569 
L 354.833604 165.830569 
L 354.833604 162.752766 
L 356.842399 162.752766 
L 356.842399 159.674963 
L 360.859989 159.674963 
L 360.859989 158.649028 
L 362.868784 158.649028 
L 362.868784 156.597159 
L 364.877579 156.597159 
L 364.877579 151.467487 
L 368.895169 151.467487 
L 368.895169 149.415618 
L 372.912759 149.415618 
L 372.912759 146.337815 
L 374.921554 146.337815 
L 374.921554 139.156274 
L 378.939144 139.156274 
L 378.939144 136.078471 
L 380.947939 136.078471 
L 380.947939 129.922864 
L 382.956734 129.922864 
L 382.956734 128.89693 
L 384.965529 128.89693 
L 384.965529 127.870995 
L 386.974324 127.870995 
L 386.974324 125.819126 
L 393.000709 125.819126 
L 393.000709 124.793192 
L 395.009504 124.793192 
L 395.009504 122.741323 
L 401.035889 122.741323 
L 401.035889 121.715389 
L 407.062274 121.715389 
L 407.062274 116.585716 
L 415.097454 116.585716 
L 415.097454 111.456044 
L 425.141429 111.456044 
L 425.141429 110.43011 
L 427.150224 110.43011 
L 427.150224 104.274503 
L 439.202994 104.274503 
L 439.202994 103.248569 
L 451.255764 103.248569 
L 451.255764 98.118897 
L 453.264559 98.118897 
L 453.264559 94.015159 
L 455.273354 94.015159 
L 455.273354 89.911421 
L 459.290944 89.911421 
L 459.290944 88.885487 
L 465.317329 88.885487 
L 465.317329 80.678011 
L 467.326124 80.678011 
L 467.326124 78.626143 
L 473.352509 78.626143 
L 473.352509 77.600208 
L 475.361304 77.600208 
L 475.361304 72.470536 
L 479.378894 72.470536 
L 479.378894 70.418667 
L 485.405279 70.418667 
L 485.405279 67.340864 
L 489.422869 67.340864 
L 489.422869 64.26306 
L 491.431664 64.26306 
L 491.431664 63.237126 
L 493.440459 63.237126 
L 493.440459 60.159323 
L 497.458049 60.159323 
L 497.458049 59.133388 
L 505.493229 59.133388 
L 505.493229 56.055585 
L 509.510819 56.055585 
L 509.510819 54.003716 
L 511.519614 54.003716 
L 511.519614 52.977782 
L 517.545999 52.977782 
L 517.545999 46.822175 
L 519.554794 46.822175 
L 519.554794 43.744372 
L 525.581179 43.744372 
L 525.581179 42.718437 
L 529.598769 42.718437 
L 529.598769 41.692503 
L 535.625154 41.692503 
L 535.625154 39.640634 
L 537.633949 39.640634 
L 537.633949 38.6147 
L 537.633949 38.6147 
" clip-path="url(#p82902da991)" style="fill: none; stroke: #d62728; stroke-width: 1.8; stroke-linecap: round"/>
   </g>
   <g id="line2d_29">
    <path d="M 61.549533 375.121193 
L 61.549533 373.069324 
L 63.558328 373.069324 
L 63.558328 368.965587 
L 65.567123 368.965587 
L 65.567123 365.887783 
L 73.602303 365.887783 
L 73.602303 364.861849 
L 75.611098 364.861849 
L 75.611098 361.784046 
L 77.619893 361.784046 
L 77.619893 359.732177 
L 83.646278 359.732177 
L 83.646278 358.706242 
L 85.655073 358.706242 
L 85.655073 355.628439 
L 87.663868 355.628439 
L 87.663868 352.550636 
L 89.672663 352.550636 
L 89.672663 350.498767 
L 91.681458 350.498767 
L 91.681458 349.472832 
L 93.690253 349.472832 
L 93.690253 348.446898 
L 97.707843 348.446898 
L 97.707843 347.420964 
L 101.725433 347.420964 
L 101.725433 346.395029 
L 103.734228 346.395029 
L 103.734228 343.317226 
L 105.743023 343.317226 
L 105.743023 340.239423 
L 107.751818 340.239423 
L 107.751818 335.10975 
L 109.760613 335.10975 
L 109.760613 334.083816 
L 113.778203 334.083816 
L 113.778203 331.006013 
L 115.786998 331.006013 
L 115.786998 326.902275 
L 117.795793 326.902275 
L 117.795793 324.850406 
L 121.813383 324.850406 
L 121.813383 317.668865 
L 125.830973 317.668865 
L 125.830973 316.642931 
L 127.839768 316.642931 
L 127.839768 315.616996 
L 133.866153 315.616996 
L 133.866153 314.591062 
L 141.901333 314.591062 
L 141.901333 312.539193 
L 143.910128 312.539193 
L 143.910128 311.513258 
L 145.918923 311.513258 
L 145.918923 310.487324 
L 149.936513 310.487324 
L 149.936513 306.383586 
L 151.945308 306.383586 
L 151.945308 305.357652 
L 155.962898 305.357652 
L 155.962898 302.279849 
L 157.971693 302.279849 
L 157.971693 300.22798 
L 161.989283 300.22798 
L 161.989283 298.176111 
L 163.998078 298.176111 
L 163.998078 297.150176 
L 166.006873 297.150176 
L 166.006873 296.124242 
L 170.024463 296.124242 
L 170.024463 295.098308 
L 172.033258 295.098308 
L 172.033258 294.072373 
L 180.068438 294.072373 
L 180.068438 290.99457 
L 182.077233 290.99457 
L 182.077233 289.968635 
L 184.086028 289.968635 
L 184.086028 287.916767 
L 186.094823 287.916767 
L 186.094823 285.864898 
L 188.103618 285.864898 
L 188.103618 283.813029 
L 190.112413 283.813029 
L 190.112413 279.709291 
L 192.121208 279.709291 
L 192.121208 278.683357 
L 194.130003 278.683357 
L 194.130003 277.657422 
L 196.138798 277.657422 
L 196.138798 276.631488 
L 202.165183 276.631488 
L 202.165183 271.501816 
L 212.209158 271.501816 
L 212.209158 267.398078 
L 214.217953 267.398078 
L 214.217953 266.372143 
L 216.226748 266.372143 
L 216.226748 263.29434 
L 218.235543 263.29434 
L 218.235543 256.112799 
L 220.244338 256.112799 
L 220.244338 254.06093 
L 228.279518 254.06093 
L 228.279518 252.009061 
L 230.288313 252.009061 
L 230.288313 245.853455 
L 234.305903 245.853455 
L 234.305903 244.82752 
L 240.332288 244.82752 
L 240.332288 242.775652 
L 242.341084 242.775652 
L 242.341084 241.749717 
L 244.349879 241.749717 
L 244.349879 240.723783 
L 246.358674 240.723783 
L 246.358674 234.568176 
L 250.376264 234.568176 
L 250.376264 233.542242 
L 256.402649 233.542242 
L 256.402649 231.490373 
L 258.411444 231.490373 
L 258.411444 229.438504 
L 260.420239 229.438504 
L 260.420239 228.412569 
L 262.429034 228.412569 
L 262.429034 227.386635 
L 264.437829 227.386635 
L 264.437829 224.308832 
L 270.464214 224.308832 
L 270.464214 221.231028 
L 272.473009 221.231028 
L 272.473009 220.205094 
L 274.481804 220.205094 
L 274.481804 219.17916 
L 276.490599 219.17916 
L 276.490599 218.153225 
L 280.508189 218.153225 
L 280.508189 216.101356 
L 282.516984 216.101356 
L 282.516984 215.075422 
L 288.543369 215.075422 
L 288.543369 214.049487 
L 292.560959 214.049487 
L 292.560959 201.738274 
L 294.569754 201.738274 
L 294.569754 191.47893 
L 300.596139 191.47893 
L 300.596139 188.401127 
L 310.640114 188.401127 
L 310.640114 186.349258 
L 316.666499 186.349258 
L 316.666499 183.271455 
L 318.675294 183.271455 
L 318.675294 179.167717 
L 320.684089 179.167717 
L 320.684089 176.089913 
L 322.692884 176.089913 
L 322.692884 175.063979 
L 324.701679 175.063979 
L 324.701679 174.038045 
L 326.710474 174.038045 
L 326.710474 168.908372 
L 330.728064 168.908372 
L 330.728064 165.830569 
L 334.745654 165.830569 
L 334.745654 163.7787 
L 336.754449 163.7787 
L 336.754449 162.752766 
L 340.772039 162.752766 
L 340.772039 160.700897 
L 342.780834 160.700897 
L 342.780834 156.597159 
L 344.789629 156.597159 
L 344.789629 154.54529 
L 350.816014 154.54529 
L 350.816014 153.519356 
L 352.824809 153.519356 
L 352.824809 150.441553 
L 354.833604 150.441553 
L 354.833604 149.415618 
L 358.851194 149.415618 
L 358.851194 148.389684 
L 360.859989 148.389684 
L 360.859989 145.311881 
L 364.877579 145.311881 
L 364.877579 143.260012 
L 366.886374 143.260012 
L 366.886374 140.182208 
L 368.895169 140.182208 
L 368.895169 136.078471 
L 372.912759 136.078471 
L 372.912759 133.000667 
L 378.939144 133.000667 
L 378.939144 131.974733 
L 382.956734 131.974733 
L 382.956734 127.870995 
L 384.965529 127.870995 
L 384.965529 125.819126 
L 386.974324 125.819126 
L 386.974324 124.793192 
L 388.983119 124.793192 
L 388.983119 123.767257 
L 393.000709 123.767257 
L 393.000709 121.715389 
L 395.009504 121.715389 
L 395.009504 119.66352 
L 413.088659 119.66352 
L 413.088659 113.507913 
L 415.097454 113.507913 
L 415.097454 112.481979 
L 417.106249 112.481979 
L 417.106249 111.456044 
L 425.141429 111.456044 
L 425.141429 109.404175 
L 429.159019 109.404175 
L 429.159019 108.378241 
L 431.167814 108.378241 
L 431.167814 106.326372 
L 435.185404 106.326372 
L 435.185404 104.274503 
L 439.202994 104.274503 
L 439.202994 98.118897 
L 441.211789 98.118897 
L 441.211789 96.067028 
L 443.220584 96.067028 
L 443.220584 94.015159 
L 447.238174 94.015159 
L 447.238174 90.937356 
L 449.246969 90.937356 
L 449.246969 86.833618 
L 451.255764 86.833618 
L 451.255764 85.807684 
L 457.282149 85.807684 
L 457.282149 84.781749 
L 459.290944 84.781749 
L 459.290944 82.72988 
L 463.308534 82.72988 
L 463.308534 78.626143 
L 465.317329 78.626143 
L 465.317329 77.600208 
L 467.326124 77.600208 
L 467.326124 73.49647 
L 469.334919 73.49647 
L 469.334919 72.470536 
L 471.343714 72.470536 
L 471.343714 70.418667 
L 475.361304 70.418667 
L 475.361304 69.392733 
L 477.370099 69.392733 
L 477.370099 63.237126 
L 481.387689 63.237126 
L 481.387689 62.211192 
L 483.396484 62.211192 
L 483.396484 61.185257 
L 491.431664 61.185257 
L 491.431664 57.081519 
L 493.440459 57.081519 
L 493.440459 52.977782 
L 501.475639 52.977782 
L 501.475639 49.899978 
L 505.493229 49.899978 
L 505.493229 48.874044 
L 507.502024 48.874044 
L 507.502024 47.84811 
L 515.537204 47.84811 
L 515.537204 43.744372 
L 519.554794 43.744372 
L 519.554794 42.718437 
L 525.581179 42.718437 
L 525.581179 41.692503 
L 527.589974 41.692503 
L 527.589974 40.666569 
L 535.625154 40.666569 
L 535.625154 39.640634 
L 537.633949 39.640634 
L 537.633949 38.6147 
L 537.633949 38.6147 
" clip-path="url(#p82902da991)" style="fill: none; stroke: #9467bd; stroke-width: 1.8; stroke-linecap: round"/>
   </g>
   <g id="line2d_30">
    <path d="M 61.549533 375.121193 
L 537.633949 38.6147 
" clip-path="url(#p82902da991)" style="fill: none; stroke-dasharray: 3.7,1.6; stroke-dashoffset: 0; stroke: #000000"/>
   </g>
   <g id="patch_3">
    <path d="M 37.745313 391.946518 
L 37.745313 21.789375 
" style="fill: none; stroke: #cccccc; stroke-linejoin: miter; stroke-linecap: square"/>
   </g>
   <g id="patch_4">
    <path d="M 561.43817 391.946518 
L 561.43817 21.789375 
" style="fill: none; stroke: #cccccc; stroke-linejoin: miter; stroke-linecap: square"/>
   </g>
   <g id="patch_5">
    <path d="M 37.745312 391.946518 
L 561.43817 391.946518 
" style="fill: none; stroke: #cccccc; stroke-linejoin: miter; stroke-linecap: square"/>
   </g>
   <g id="patch_6">
    <path d="M 37.745312 21.789375 
L 561.43817 21.789375 
" style="fill: none; stroke: #cccccc; stroke-linejoin: miter; stroke-linecap: square"/>
   </g>
   <g id="text_15">
    <!-- Test ROC Curves — All Five Models -->
    <g style="fill: #262626" transform="translate(203.239241 15.789375) scale(0.12 -0.12)">
     <defs>
      <path id="ArialMT-4f" d="M 309 2231 
Q 309 3372 921 4017 
Q 1534 4663 2503 4663 
Q 3138 4663 3647 4359 
Q 4156 4056 4423 3514 
Q 4691 2972 4691 2284 
Q 4691 1588 4409 1038 
Q 4128 488 3612 205 
Q 3097 -78 2500 -78 
Q 1853 -78 1343 234 
Q 834 547 571 1087 
Q 309 1628 309 2231 
z
M 934 2222 
Q 934 1394 1379 917 
Q 1825 441 2497 441 
Q 3181 441 3623 922 
Q 4066 1403 4066 2288 
Q 4066 2847 3877 3264 
Q 3688 3681 3323 3911 
Q 2959 4141 2506 4141 
Q 1863 4141 1398 3698 
Q 934 3256 934 2222 
z
" transform="scale(0.015625)"/>
      <path id="ArialMT-43" d="M 3763 1606 
L 4369 1453 
Q 4178 706 3683 314 
Q 3188 -78 2472 -78 
Q 1731 -78 1267 223 
Q 803 525 561 1097 
Q 319 1669 319 2325 
Q 319 3041 592 3573 
Q 866 4106 1370 4382 
Q 1875 4659 2481 4659 
Q 3169 4659 3637 4309 
Q 4106 3959 4291 3325 
L 3694 3184 
Q 3534 3684 3231 3912 
Q 2928 4141 2469 4141 
Q 1941 4141 1586 3887 
Q 1231 3634 1087 3207 
Q 944 2781 944 2328 
Q 944 1744 1114 1308 
Q 1284 872 1643 656 
Q 2003 441 2422 441 
Q 2931 441 3284 734 
Q 3638 1028 3763 1606 
z
" transform="scale(0.015625)"/>
      <path id="ArialMT-2014" d="M 0 1431 
L 0 1884 
L 6400 1884 
L 6400 1431 
L 0 1431 
z
" transform="scale(0.015625)"/>
      <path id="ArialMT-41" d="M -9 0 
L 1750 4581 
L 2403 4581 
L 4278 0 
L 3588 0 
L 3053 1388 
L 1138 1388 
L 634 0 
L -9 0 
z
M 1313 1881 
L 2866 1881 
L 2388 3150 
Q 2169 3728 2063 4100 
Q 1975 3659 1816 3225 
L 1313 1881 
z
" transform="scale(0.015625)"/>
      <path id="ArialMT-4d" d="M 475 0 
L 475 4581 
L 1388 4581 
L 2472 1338 
Q 2622 884 2691 659 
Q 2769 909 2934 1394 
L 4031 4581 
L 4847 4581 
L 4847 0 
L 4263 0 
L 4263 3834 
L 2931 0 
L 2384 0 
L 1059 3900 
L 1059 0 
L 475 0 
z
" transform="scale(0.015625)"/>
      <path id="ArialMT-64" d="M 2575 0 
L 2575 419 
Q 2259 -75 1647 -75 
Q 1250 -75 917 144 
Q 584 363 401 755 
Q 219 1147 219 1656 
Q 219 2153 384 2558 
Q 550 2963 881 3178 
Q 1213 3394 1622 3394 
Q 1922 3394 2156 3267 
Q 2391 3141 2538 2938 
L 2538 4581 
L 3097 4581 
L 3097 0 
L 2575 0 
z
M 797 1656 
Q 797 1019 1065 703 
Q 1334 388 1700 388 
Q 2069 388 2326 689 
Q 2584 991 2584 1609 
Q 2584 2291 2321 2609 
Q 2059 2928 1675 2928 
Q 1300 2928 1048 2622 
Q 797 2316 797 1656 
z
" transform="scale(0.015625)"/>
     </defs>
     <use xlink:href="#ArialMT-54"/>
     <use xlink:href="#ArialMT-65" transform="translate(49.958984 0)"/>
     <use xlink:href="#ArialMT-73" transform="translate(105.574219 0)"/>
     <use xlink:href="#ArialMT-74" transform="translate(155.574219 0)"/>
     <use xlink:href="#ArialMT-20" transform="translate(183.357422 0)"/>
     <use xlink:href="#ArialMT-52" transform="translate(211.140625 0)"/>
     <use xlink:href="#ArialMT-4f" transform="translate(283.357422 0)"/>
     <use xlink:href="#ArialMT-43" transform="translate(361.140625 0)"/>
     <use xlink:href="#ArialMT-20" transform="translate(433.357422 0)"/>
     <use xlink:href="#ArialMT-43" transform="translate(461.140625 0)"/>
     <use xlink:href="#ArialMT-75" transform="translate(533.357422 0)"/>
     <use xlink:href="#ArialMT-72" transform="translate(588.972656 0)"/>
     <use xlink:href="#ArialMT-76" transform="translate(622.273438 0)"/>
     <use xlink:href="#ArialMT-65" transform="translate(672.273438 0)"/>
     <use xlink:href="#ArialMT-73" transform="translate(727.888672 0)"/>
     <use xlink:href="#ArialMT-20" transform="translate(777.888672 0)"/>
     <use xlink:href="#ArialMT-2014" transform="translate(805.671875 0)"/>
     <use xlink:href="#ArialMT-20" transform="translate(905.671875 0)"/>
     <use xlink:href="#ArialMT-41" transform="translate(927.955078 0)"/>
     <use xlink:href="#ArialMT-6c" transform="translate(994.654297 0)"/>
     <use xlink:href="#ArialMT-6c" transform="translate(1016.871094 0)"/>
     <use xlink:href="#ArialMT-20" transform="translate(1039.087891 0)"/>
     <use xlink:href="#ArialMT-46" transform="translate(1066.871094 0)"/>
     <use xlink:href="#ArialMT-69" transform="translate(1127.955078 0)"/>
     <use xlink:href="#ArialMT-76" transform="translate(1150.171875 0)"/>
     <use xlink:href="#ArialMT-65" transform="translate(1200.171875 0)"/>
     <use xlink:href="#ArialMT-20" transform="translate(1255.787109 0)"/>
     <use xlink:href="#ArialMT-4d" transform="translate(1283.570312 0)"/>
     <use xlink:href="#ArialMT-6f" transform="translate(1366.871094 0)"/>
     <use xlink:href="#ArialMT-64" transform="translate(1422.486328 0)"/>
     <use xlink:href="#ArialMT-65" transform="translate(1478.101562 0)"/>
     <use xlink:href="#ArialMT-6c" transform="translate(1533.716797 0)"/>
     <use xlink:href="#ArialMT-73" transform="translate(1555.933594 0)"/>
    </g>
   </g>
   <g id="legend_1">
    <g id="line2d_31">
     <path d="M 394.33067 327.018549 
L 403.33067 327.018549 
L 412.33067 327.018549 
" style="fill: none; stroke: #1f77b4; stroke-width: 1.8; stroke-linecap: round"/>
    </g>
    <g id="text_16">
     <!-- Logistic Regression (AUC=0.498) -->
     <g style="fill: #262626" transform="translate(419.53067 330.168549) scale(0.09 -0.09)">
      <defs>
       <path id="ArialMT-4c" d="M 469 0 
L 469 4581 
L 1075 4581 
L 1075 541 
L 3331 541 
L 3331 0 
L 469 0 
z
" transform="scale(0.015625)"/>
       <path id="ArialMT-67" d="M 319 -275 
L 866 -356 
Q 900 -609 1056 -725 
Q 1266 -881 1628 -881 
Q 2019 -881 2231 -725 
Q 2444 -569 2519 -288 
Q 2563 -116 2559 434 
Q 2191 0 1641 0 
Q 956 0 581 494 
Q 206 988 206 1678 
Q 206 2153 378 2554 
Q 550 2956 876 3175 
Q 1203 3394 1644 3394 
Q 2231 3394 2613 2919 
L 2613 3319 
L 3131 3319 
L 3131 450 
Q 3131 -325 2973 -648 
Q 2816 -972 2473 -1159 
Q 2131 -1347 1631 -1347 
Q 1038 -1347 672 -1080 
Q 306 -813 319 -275 
z
M 784 1719 
Q 784 1066 1043 766 
Q 1303 466 1694 466 
Q 2081 466 2343 764 
Q 2606 1063 2606 1700 
Q 2606 2309 2336 2618 
Q 2066 2928 1684 2928 
Q 1309 2928 1046 2623 
Q 784 2319 784 1719 
z
" transform="scale(0.015625)"/>
       <path id="ArialMT-63" d="M 2588 1216 
L 3141 1144 
Q 3050 572 2676 248 
Q 2303 -75 1759 -75 
Q 1078 -75 664 370 
Q 250 816 250 1647 
Q 250 2184 428 2587 
Q 606 2991 970 3192 
Q 1334 3394 1763 3394 
Q 2303 3394 2647 3120 
Q 2991 2847 3088 2344 
L 2541 2259 
Q 2463 2594 2264 2762 
Q 2066 2931 1784 2931 
Q 1359 2931 1093 2626 
Q 828 2322 828 1663 
Q 828 994 1084 691 
Q 1341 388 1753 388 
Q 2084 388 2306 591 
Q 2528 794 2588 1216 
z
" transform="scale(0.015625)"/>
       <path id="ArialMT-6e" d="M 422 0 
L 422 3319 
L 928 3319 
L 928 2847 
Q 1294 3394 1984 3394 
Q 2284 3394 2536 3286 
Q 2788 3178 2913 3003 
Q 3038 2828 3088 2588 
Q 3119 2431 3119 2041 
L 3119 0 
L 2556 0 
L 2556 2019 
Q 2556 2363 2490 2533 
Q 2425 2703 2258 2804 
Q 2091 2906 1866 2906 
Q 1506 2906 1245 2678 
Q 984 2450 984 1813 
L 984 0 
L 422 0 
z
" transform="scale(0.015625)"/>
       <path id="ArialMT-28" d="M 1497 -1347 
Q 1031 -759 709 28 
Q 388 816 388 1659 
Q 388 2403 628 3084 
Q 909 3875 1497 4659 
L 1900 4659 
Q 1522 4009 1400 3731 
Q 1209 3300 1100 2831 
Q 966 2247 966 1656 
Q 966 153 1900 -1347 
L 1497 -1347 
z
" transform="scale(0.015625)"/>
       <path id="ArialMT-55" d="M 3500 4581 
L 4106 4581 
L 4106 1934 
Q 4106 1244 3950 837 
Q 3794 431 3386 176 
Q 2978 -78 2316 -78 
Q 1672 -78 1262 144 
Q 853 366 678 786 
Q 503 1206 503 1934 
L 503 4581 
L 1109 4581 
L 1109 1938 
Q 1109 1341 1220 1058 
Q 1331 775 1601 622 
Q 1872 469 2263 469 
Q 2931 469 3215 772 
Q 3500 1075 3500 1938 
L 3500 4581 
z
" transform="scale(0.015625)"/>
       <path id="ArialMT-3d" d="M 3381 2694 
L 356 2694 
L 356 3219 
L 3381 3219 
L 3381 2694 
z
M 3381 1303 
L 356 1303 
L 356 1828 
L 3381 1828 
L 3381 1303 
z
" transform="scale(0.015625)"/>
       <path id="ArialMT-39" d="M 350 1059 
L 891 1109 
Q 959 728 1153 556 
Q 1347 384 1650 384 
Q 1909 384 2104 503 
Q 2300 622 2425 820 
Q 2550 1019 2634 1356 
Q 2719 1694 2719 2044 
Q 2719 2081 2716 2156 
Q 2547 1888 2255 1720 
Q 1963 1553 1622 1553 
Q 1053 1553 659 1965 
Q 266 2378 266 3053 
Q 266 3750 677 4175 
Q 1088 4600 1706 4600 
Q 2153 4600 2523 4359 
Q 2894 4119 3086 3673 
Q 3278 3228 3278 2384 
Q 3278 1506 3087 986 
Q 2897 466 2520 194 
Q 2144 -78 1638 -78 
Q 1100 -78 759 220 
Q 419 519 350 1059 
z
M 2653 3081 
Q 2653 3566 2395 3850 
Q 2138 4134 1775 4134 
Q 1400 4134 1122 3828 
Q 844 3522 844 3034 
Q 844 2597 1108 2323 
Q 1372 2050 1759 2050 
Q 2150 2050 2401 2323 
Q 2653 2597 2653 3081 
z
" transform="scale(0.015625)"/>
       <path id="ArialMT-29" d="M 791 -1347 
L 388 -1347 
Q 1322 153 1322 1656 
Q 1322 2244 1188 2822 
Q 1081 3291 891 3722 
Q 769 4003 388 4659 
L 791 4659 
Q 1378 3875 1659 3084 
Q 1900 2403 1900 1659 
Q 1900 816 1576 28 
Q 1253 -759 791 -1347 
z
" transform="scale(0.015625)"/>
      </defs>
      <use xlink:href="#ArialMT-4c"/>
      <use xlink:href="#ArialMT-6f" transform="translate(55.615234 0)"/>
      <use xlink:href="#ArialMT-67" transform="translate(111.230469 0)"/>
      <use xlink:href="#ArialMT-69" transform="translate(166.845703 0)"/>
      <use xlink:href="#ArialMT-73" transform="translate(189.0625 0)"/>
      <use xlink:href="#ArialMT-74" transform="translate(239.0625 0)"/>
      <use xlink:href="#ArialMT-69" transform="translate(266.845703 0)"/>
      <use xlink:href="#ArialMT-63" transform="translate(289.0625 0)"/>
      <use xlink:href="#ArialMT-20" transform="translate(339.0625 0)"/>
      <use xlink:href="#ArialMT-52" transform="translate(366.845703 0)"/>
      <use xlink:href="#ArialMT-65" transform="translate(439.0625 0)"/>
      <use xlink:href="#ArialMT-67" transform="translate(494.677734 0)"/>
      <use xlink:href="#ArialMT-72" transform="translate(550.292969 0)"/>
      <use xlink:href="#ArialMT-65" transform="translate(583.59375 0)"/>
      <use xlink:href="#ArialMT-73" transform="translate(639.208984 0)"/>
      <use xlink:href="#ArialMT-73" transform="translate(689.208984 0)"/>
      <use xlink:href="#ArialMT-69" transform="translate(739.208984 0)"/>
      <use xlink:href="#ArialMT-6f" transform="translate(761.425781 0)"/>
      <use xlink:href="#ArialMT-6e" transform="translate(817.041016 0)"/>
      <use xlink:href="#ArialMT-20" transform="translate(872.65625 0)"/>
      <use xlink:href="#ArialMT-28" transform="translate(900.439453 0)"/>
      <use xlink:href="#ArialMT-41" transform="translate(933.740234 0)"/>
      <use xlink:href="#ArialMT-55" transform="translate(1000.439453 0)"/>
      <use xlink:href="#ArialMT-43" transform="translate(1072.65625 0)"/>
      <use xlink:href="#ArialMT-3d" transform="translate(1144.873047 0)"/>
      <use xlink:href="#ArialMT-30" transform="translate(1203.271484 0)"/>
      <use xlink:href="#ArialMT-2e" transform="translate(1258.886719 0)"/>
      <use xlink:href="#ArialMT-34" transform="translate(1286.669922 0)"/>
      <use xlink:href="#ArialMT-39" transform="translate(1342.285156 0)"/>
      <use xlink:href="#ArialMT-38" transform="translate(1397.900391 0)"/>
      <use xlink:href="#ArialMT-29" transform="translate(1453.515625 0)"/>
     </g>
    </g>
    <g id="line2d_32">
     <path d="M 394.33067 339.964487 
L 403.33067 339.964487 
L 412.33067 339.964487 
" style="fill: none; stroke: #ff7f0e; stroke-width: 1.8; stroke-linecap: round"/>
    </g>
    <g id="text_17">
     <!-- MLP (AUC=0.504) -->
     <g style="fill: #262626" transform="translate(419.53067 343.114487) scale(0.09 -0.09)">
      <defs>
       <path id="ArialMT-35" d="M 266 1200 
L 856 1250 
Q 922 819 1161 601 
Q 1400 384 1738 384 
Q 2144 384 2425 690 
Q 2706 997 2706 1503 
Q 2706 1984 2436 2262 
Q 2166 2541 1728 2541 
Q 1456 2541 1237 2417 
Q 1019 2294 894 2097 
L 366 2166 
L 809 4519 
L 3088 4519 
L 3088 3981 
L 1259 3981 
L 1013 2750 
Q 1425 3038 1878 3038 
Q 2478 3038 2890 2622 
Q 3303 2206 3303 1553 
Q 3303 931 2941 478 
Q 2500 -78 1738 -78 
Q 1113 -78 717 272 
Q 322 622 266 1200 
z
" transform="scale(0.015625)"/>
      </defs>
      <use xlink:href="#ArialMT-4d"/>
      <use xlink:href="#ArialMT-4c" transform="translate(83.300781 0)"/>
      <use xlink:href="#ArialMT-50" transform="translate(138.916016 0)"/>
      <use xlink:href="#ArialMT-20" transform="translate(203.865234 0)"/>
      <use xlink:href="#ArialMT-28" transform="translate(231.648438 0)"/>
      <use xlink:href="#ArialMT-41" transform="translate(264.949219 0)"/>
      <use xlink:href="#ArialMT-55" transform="translate(331.648438 0)"/>
      <use xlink:href="#ArialMT-43" transform="translate(403.865234 0)"/>
      <use xlink:href="#ArialMT-3d" transform="translate(476.082031 0)"/>
      <use xlink:href="#ArialMT-30" transform="translate(534.480469 0)"/>
      <use xlink:href="#ArialMT-2e" transform="translate(590.095703 0)"/>
      <use xlink:href="#ArialMT-35" transform="translate(617.878906 0)"/>
      <use xlink:href="#ArialMT-30" transform="translate(673.494141 0)"/>
      <use xlink:href="#ArialMT-34" transform="translate(729.109375 0)"/>
      <use xlink:href="#ArialMT-29" transform="translate(784.724609 0)"/>
     </g>
    </g>
    <g id="line2d_33">
     <path d="M 394.33067 352.910424 
L 403.33067 352.910424 
L 412.33067 352.910424 
" style="fill: none; stroke: #2ca02c; stroke-width: 1.8; stroke-linecap: round"/>
    </g>
    <g id="text_18">
     <!-- XGBoost (AUC=0.545) -->
     <g style="fill: #262626" transform="translate(419.53067 356.060424) scale(0.09 -0.09)">
      <defs>
       <path id="ArialMT-58" d="M 28 0 
L 1800 2388 
L 238 4581 
L 959 4581 
L 1791 3406 
Q 2050 3041 2159 2844 
Q 2313 3094 2522 3366 
L 3444 4581 
L 4103 4581 
L 2494 2422 
L 4228 0 
L 3478 0 
L 2325 1634 
Q 2228 1775 2125 1941 
Q 1972 1691 1906 1597 
L 756 0 
L 28 0 
z
" transform="scale(0.015625)"/>
       <path id="ArialMT-47" d="M 2638 1797 
L 2638 2334 
L 4578 2338 
L 4578 638 
Q 4131 281 3656 101 
Q 3181 -78 2681 -78 
Q 2006 -78 1454 211 
Q 903 500 622 1047 
Q 341 1594 341 2269 
Q 341 2938 620 3517 
Q 900 4097 1425 4378 
Q 1950 4659 2634 4659 
Q 3131 4659 3532 4498 
Q 3934 4338 4162 4050 
Q 4391 3763 4509 3300 
L 3963 3150 
Q 3859 3500 3706 3700 
Q 3553 3900 3268 4020 
Q 2984 4141 2638 4141 
Q 2222 4141 1919 4014 
Q 1616 3888 1430 3681 
Q 1244 3475 1141 3228 
Q 966 2803 966 2306 
Q 966 1694 1177 1281 
Q 1388 869 1791 669 
Q 2194 469 2647 469 
Q 3041 469 3416 620 
Q 3791 772 3984 944 
L 3984 1797 
L 2638 1797 
z
" transform="scale(0.015625)"/>
       <path id="ArialMT-42" d="M 469 0 
L 469 4581 
L 2188 4581 
Q 2713 4581 3030 4442 
Q 3347 4303 3526 4014 
Q 3706 3725 3706 3409 
Q 3706 3116 3547 2856 
Q 3388 2597 3066 2438 
Q 3481 2316 3704 2022 
Q 3928 1728 3928 1328 
Q 3928 1006 3792 729 
Q 3656 453 3456 303 
Q 3256 153 2954 76 
Q 2653 0 2216 0 
L 469 0 
z
M 1075 2656 
L 2066 2656 
Q 2469 2656 2644 2709 
Q 2875 2778 2992 2937 
Q 3109 3097 3109 3338 
Q 3109 3566 3000 3739 
Q 2891 3913 2687 3977 
Q 2484 4041 1991 4041 
L 1075 4041 
L 1075 2656 
z
M 1075 541 
L 2216 541 
Q 2509 541 2628 563 
Q 2838 600 2978 687 
Q 3119 775 3209 942 
Q 3300 1109 3300 1328 
Q 3300 1584 3169 1773 
Q 3038 1963 2805 2039 
Q 2572 2116 2134 2116 
L 1075 2116 
L 1075 541 
z
" transform="scale(0.015625)"/>
      </defs>
      <use xlink:href="#ArialMT-58"/>
      <use xlink:href="#ArialMT-47" transform="translate(66.699219 0)"/>
      <use xlink:href="#ArialMT-42" transform="translate(144.482422 0)"/>
      <use xlink:href="#ArialMT-6f" transform="translate(211.181641 0)"/>
      <use xlink:href="#ArialMT-6f" transform="translate(266.796875 0)"/>
      <use xlink:href="#ArialMT-73" transform="translate(322.412109 0)"/>
      <use xlink:href="#ArialMT-74" transform="translate(372.412109 0)"/>
      <use xlink:href="#ArialMT-20" transform="translate(400.195312 0)"/>
      <use xlink:href="#ArialMT-28" transform="translate(427.978516 0)"/>
      <use xlink:href="#ArialMT-41" transform="translate(461.279297 0)"/>
      <use xlink:href="#ArialMT-55" transform="translate(527.978516 0)"/>
      <use xlink:href="#ArialMT-43" transform="translate(600.195312 0)"/>
      <use xlink:href="#ArialMT-3d" transform="translate(672.412109 0)"/>
      <use xlink:href="#ArialMT-30" transform="translate(730.810547 0)"/>
      <use xlink:href="#ArialMT-2e" transform="translate(786.425781 0)"/>
      <use xlink:href="#ArialMT-35" transform="translate(814.208984 0)"/>
      <use xlink:href="#ArialMT-34" transform="translate(869.824219 0)"/>
      <use xlink:href="#ArialMT-35" transform="translate(925.439453 0)"/>
      <use xlink:href="#ArialMT-29" transform="translate(981.054688 0)"/>
     </g>
    </g>
    <g id="line2d_34">
     <path d="M 394.33067 365.856362 
L 403.33067 365.856362 
L 412.33067 365.856362 
" style="fill: none; stroke: #d62728; stroke-width: 1.8; stroke-linecap: round"/>
    </g>
    <g id="text_19">
     <!-- LSTM (AUC=0.507) -->
     <g style="fill: #262626" transform="translate(419.53067 369.006362) scale(0.09 -0.09)">
      <defs>
       <path id="ArialMT-53" d="M 288 1472 
L 859 1522 
Q 900 1178 1048 958 
Q 1197 738 1509 602 
Q 1822 466 2213 466 
Q 2559 466 2825 569 
Q 3091 672 3220 851 
Q 3350 1031 3350 1244 
Q 3350 1459 3225 1620 
Q 3100 1781 2813 1891 
Q 2628 1963 1997 2114 
Q 1366 2266 1113 2400 
Q 784 2572 623 2826 
Q 463 3081 463 3397 
Q 463 3744 659 4045 
Q 856 4347 1234 4503 
Q 1613 4659 2075 4659 
Q 2584 4659 2973 4495 
Q 3363 4331 3572 4012 
Q 3781 3694 3797 3291 
L 3216 3247 
Q 3169 3681 2898 3903 
Q 2628 4125 2100 4125 
Q 1550 4125 1298 3923 
Q 1047 3722 1047 3438 
Q 1047 3191 1225 3031 
Q 1400 2872 2139 2705 
Q 2878 2538 3153 2413 
Q 3553 2228 3743 1945 
Q 3934 1663 3934 1294 
Q 3934 928 3725 604 
Q 3516 281 3123 101 
Q 2731 -78 2241 -78 
Q 1619 -78 1198 103 
Q 778 284 539 648 
Q 300 1013 288 1472 
z
" transform="scale(0.015625)"/>
       <path id="ArialMT-37" d="M 303 3981 
L 303 4522 
L 3269 4522 
L 3269 4084 
Q 2831 3619 2401 2847 
Q 1972 2075 1738 1259 
Q 1569 684 1522 0 
L 944 0 
Q 953 541 1156 1306 
Q 1359 2072 1739 2783 
Q 2119 3494 2547 3981 
L 303 3981 
z
" transform="scale(0.015625)"/>
      </defs>
      <use xlink:href="#ArialMT-4c"/>
      <use xlink:href="#ArialMT-53" transform="translate(55.615234 0)"/>
      <use xlink:href="#ArialMT-54" transform="translate(122.314453 0)"/>
      <use xlink:href="#ArialMT-4d" transform="translate(183.398438 0)"/>
      <use xlink:href="#ArialMT-20" transform="translate(266.699219 0)"/>
      <use xlink:href="#ArialMT-28" transform="translate(294.482422 0)"/>
      <use xlink:href="#ArialMT-41" transform="translate(327.783203 0)"/>
      <use xlink:href="#ArialMT-55" transform="translate(394.482422 0)"/>
      <use xlink:href="#ArialMT-43" transform="translate(466.699219 0)"/>
      <use xlink:href="#ArialMT-3d" transform="translate(538.916016 0)"/>
      <use xlink:href="#ArialMT-30" transform="translate(597.314453 0)"/>
      <use xlink:href="#ArialMT-2e" transform="translate(652.929688 0)"/>
      <use xlink:href="#ArialMT-35" transform="translate(680.712891 0)"/>
      <use xlink:href="#ArialMT-30" transform="translate(736.328125 0)"/>
      <use xlink:href="#ArialMT-37" transform="translate(791.943359 0)"/>
      <use xlink:href="#ArialMT-29" transform="translate(847.558594 0)"/>
     </g>
    </g>
    <g id="line2d_35">
     <path d="M 394.33067 378.802299 
L 403.33067 378.802299 
L 412.33067 378.802299 
" style="fill: none; stroke: #9467bd; stroke-width: 1.8; stroke-linecap: round"/>
    </g>
    <g id="text_20">
     <!-- Transformer (AUC=0.526) -->
     <g style="fill: #262626" transform="translate(419.53067 381.952299) scale(0.09 -0.09)">
      <defs>
       <path id="ArialMT-66" d="M 556 0 
L 556 2881 
L 59 2881 
L 59 3319 
L 556 3319 
L 556 3672 
Q 556 4006 616 4169 
Q 697 4388 901 4523 
Q 1106 4659 1475 4659 
Q 1713 4659 2000 4603 
L 1916 4113 
Q 1741 4144 1584 4144 
Q 1328 4144 1222 4034 
Q 1116 3925 1116 3625 
L 1116 3319 
L 1763 3319 
L 1763 2881 
L 1116 2881 
L 1116 0 
L 556 0 
z
" transform="scale(0.015625)"/>
       <path id="ArialMT-6d" d="M 422 0 
L 422 3319 
L 925 3319 
L 925 2853 
Q 1081 3097 1340 3245 
Q 1600 3394 1931 3394 
Q 2300 3394 2536 3241 
Q 2772 3088 2869 2813 
Q 3263 3394 3894 3394 
Q 4388 3394 4653 3120 
Q 4919 2847 4919 2278 
L 4919 0 
L 4359 0 
L 4359 2091 
Q 4359 2428 4304 2576 
Q 4250 2725 4106 2815 
Q 3963 2906 3769 2906 
Q 3419 2906 3187 2673 
Q 2956 2441 2956 1928 
L 2956 0 
L 2394 0 
L 2394 2156 
Q 2394 2531 2256 2718 
Q 2119 2906 1806 2906 
Q 1569 2906 1367 2781 
Q 1166 2656 1075 2415 
Q 984 2175 984 1722 
L 984 0 
L 422 0 
z
" transform="scale(0.015625)"/>
      </defs>
      <use xlink:href="#ArialMT-54"/>
      <use xlink:href="#ArialMT-72" transform="translate(57.333984 0)"/>
      <use xlink:href="#ArialMT-61" transform="translate(90.634766 0)"/>
      <use xlink:href="#ArialMT-6e" transform="translate(146.25 0)"/>
      <use xlink:href="#ArialMT-73" transform="translate(201.865234 0)"/>
      <use xlink:href="#ArialMT-66" transform="translate(251.865234 0)"/>
      <use xlink:href="#ArialMT-6f" transform="translate(279.648438 0)"/>
      <use xlink:href="#ArialMT-72" transform="translate(335.263672 0)"/>
      <use xlink:href="#ArialMT-6d" transform="translate(368.564453 0)"/>
      <use xlink:href="#ArialMT-65" transform="translate(451.865234 0)"/>
      <use xlink:href="#ArialMT-72" transform="translate(507.480469 0)"/>
      <use xlink:href="#ArialMT-20" transform="translate(540.78125 0)"/>
      <use xlink:href="#ArialMT-28" transform="translate(568.564453 0)"/>
      <use xlink:href="#ArialMT-41" transform="translate(601.865234 0)"/>
      <use xlink:href="#ArialMT-55" transform="translate(668.564453 0)"/>
      <use xlink:href="#ArialMT-43" transform="translate(740.78125 0)"/>
      <use xlink:href="#ArialMT-3d" transform="translate(812.998047 0)"/>
      <use xlink:href="#ArialMT-30" transform="translate(871.396484 0)"/>
      <use xlink:href="#ArialMT-2e" transform="translate(927.011719 0)"/>
      <use xlink:href="#ArialMT-35" transform="translate(954.794922 0)"/>
      <use xlink:href="#ArialMT-32" transform="translate(1010.410156 0)"/>
      <use xlink:href="#ArialMT-36" transform="translate(1066.025391 0)"/>
      <use xlink:href="#ArialMT-29" transform="translate(1121.640625 0)"/>
     </g>
    </g>
   </g>
  </g>
 </g>
 <defs>
  <clipPath id="p82902da991">
   <rect x="37.745313" y="21.789375" width="523.692857" height="370.157143"/>
  </clipPath>
 </defs>
</svg>
