<?xml version="1.0" encoding="utf-8" standalone="no"?>
<!DOCTYPE svg PUBLIC "-//W3C//DTD SVG 1.1//EN"
  "http://www.w3.org/Graphics/SVG/1.1/DTD/svg11.dtd">
<svg xmlns:xlink="http://www.w3.org/1999/xlink" width="712.433125pt" height="351.034375pt" viewBox="0 0 712.433125 351.034375" xmlns="http://www.w3.org/2000/svg" version="1.1">
 <metadata>
  <rdf:RDF xmlns:dc="http://purl.org/dc/elements/1.1/" xmlns:cc="http://creativecommons.org/ns#" xmlns:rdf="http://www.w3.org/1999/02/22-rdf-syntax-ns#">
   <cc:Work>
    <dc:type rdf:resource="http://purl.org/dc/dcmitype/StillImage"/>
    <dc:date>2026-05-07T13:27:38.634574</dc:date>
    <dc:format>image/svg+xml</dc:format>
    <dc:creator>
     <cc:Agent>
      <dc:title>Matplotlib v3.10.8, https://matplotlib.org/</dc:title>
     </cc:Agent>
    </dc:creator>
   </cc:Work>
  </rdf:RDF>
 </metadata>
 <defs>
  <style type="text/css">*{stroke-linejoin: round; stroke-linecap: butt}</style>
 </defs>
 <g id="figure_1">
  <g id="patch_1">
   <path d="M 0 351.034375 
L 712.433125 351.034375 
L 712.433125 0 
L 0 0 
z
" style="fill: #ffffff"/>
  </g>
  <g id="axes_1">
   <g id="patch_2">
    <path d="M 40.603125 313.478125 
L 705.233125 313.478125 
L 705.233125 22.318125 
L 40.603125 22.318125 
z
" style="fill: #ffffff"/>
   </g>
   <g id="patch_3">
    <path d="M 70.81358 313.478125 
L 75.848655 313.478125 
L 75.848655 313.040751 
L 70.81358 313.040751 
z
" clip-path="url(#pf0554f87f2)" style="fill: #1f77b4; opacity: 0.65"/>
   </g>
   <g id="patch_4">
    <path d="M 75.848655 313.478125 
L 80.883731 313.478125 
L 80.883731 313.478125 
L 75.848655 313.478125 
z
" clip-path="url(#pf0554f87f2)" style="fill: #1f77b4; opacity: 0.65"/>
   </g>
   <g id="patch_5">
    <path d="M 80.883731 313.478125 
L 85.918807 313.478125 
L 85.918807 313.478125 
L 80.883731 313.478125 
z
" clip-path="url(#pf0554f87f2)" style="fill: #1f77b4; opacity: 0.65"/>
   </g>
   <g id="patch_6">
    <path d="M 85.918807 313.478125 
L 90.953883 313.478125 
L 90.953883 313.478125 
L 85.918807 313.478125 
z
" clip-path="url(#pf0554f87f2)" style="fill: #1f77b4; opacity: 0.65"/>
   </g>
   <g id="patch_7">
    <path d="M 90.953883 313.478125 
L 95.988958 313.478125 
L 95.988958 313.478125 
L 90.953883 313.478125 
z
" clip-path="url(#pf0554f87f2)" style="fill: #1f77b4; opacity: 0.65"/>
   </g>
   <g id="patch_8">
    <path d="M 95.988958 313.478125 
L 101.024034 313.478125 
L 101.024034 313.478125 
L 95.988958 313.478125 
z
" clip-path="url(#pf0554f87f2)" style="fill: #1f77b4; opacity: 0.65"/>
   </g>
   <g id="patch_9">
    <path d="M 101.024034 313.478125 
L 106.05911 313.478125 
L 106.05911 313.478125 
L 101.024034 313.478125 
z
" clip-path="url(#pf0554f87f2)" style="fill: #1f77b4; opacity: 0.65"/>
   </g>
   <g id="patch_10">
    <path d="M 106.05911 313.478125 
L 111.094186 313.478125 
L 111.094186 313.040751 
L 106.05911 313.040751 
z
" clip-path="url(#pf0554f87f2)" style="fill: #1f77b4; opacity: 0.65"/>
   </g>
   <g id="patch_11">
    <path d="M 111.094186 313.478125 
L 116.129261 313.478125 
L 116.129261 313.478125 
L 111.094186 313.478125 
z
" clip-path="url(#pf0554f87f2)" style="fill: #1f77b4; opacity: 0.65"/>
   </g>
   <g id="patch_12">
    <path d="M 116.129261 313.478125 
L 121.164337 313.478125 
L 121.164337 313.040751 
L 116.129261 313.040751 
z
" clip-path="url(#pf0554f87f2)" style="fill: #1f77b4; opacity: 0.65"/>
   </g>
   <g id="patch_13">
    <path d="M 121.164337 313.478125 
L 126.199413 313.478125 
L 126.199413 313.478125 
L 121.164337 313.478125 
z
" clip-path="url(#pf0554f87f2)" style="fill: #1f77b4; opacity: 0.65"/>
   </g>
   <g id="patch_14">
    <path d="M 126.199413 313.478125 
L 131.234489 313.478125 
L 131.234489 313.478125 
L 126.199413 313.478125 
z
" clip-path="url(#pf0554f87f2)" style="fill: #1f77b4; opacity: 0.65"/>
   </g>
   <g id="patch_15">
    <path d="M 131.234489 313.478125 
L 136.269564 313.478125 
L 136.269564 313.040751 
L 131.234489 313.040751 
z
" clip-path="url(#pf0554f87f2)" style="fill: #1f77b4; opacity: 0.65"/>
   </g>
   <g id="patch_16">
    <path d="M 136.269564 313.478125 
L 141.30464 313.478125 
L 141.30464 313.478125 
L 136.269564 313.478125 
z
" clip-path="url(#pf0554f87f2)" style="fill: #1f77b4; opacity: 0.65"/>
   </g>
   <g id="patch_17">
    <path d="M 141.30464 313.478125 
L 146.339716 313.478125 
L 146.339716 313.478125 
L 141.30464 313.478125 
z
" clip-path="url(#pf0554f87f2)" style="fill: #1f77b4; opacity: 0.65"/>
   </g>
   <g id="patch_18">
    <path d="M 146.339716 313.478125 
L 151.374792 313.478125 
L 151.374792 313.478125 
L 146.339716 313.478125 
z
" clip-path="url(#pf0554f87f2)" style="fill: #1f77b4; opacity: 0.65"/>
   </g>
   <g id="patch_19">
    <path d="M 151.374792 313.478125 
L 156.409867 313.478125 
L 156.409867 313.040751 
L 151.374792 313.040751 
z
" clip-path="url(#pf0554f87f2)" style="fill: #1f77b4; opacity: 0.65"/>
   </g>
   <g id="patch_20">
    <path d="M 156.409867 313.478125 
L 161.444943 313.478125 
L 161.444943 313.478125 
L 156.409867 313.478125 
z
" clip-path="url(#pf0554f87f2)" style="fill: #1f77b4; opacity: 0.65"/>
   </g>
   <g id="patch_21">
    <path d="M 161.444943 313.478125 
L 166.480019 313.478125 
L 166.480019 313.478125 
L 161.444943 313.478125 
z
" clip-path="url(#pf0554f87f2)" style="fill: #1f77b4; opacity: 0.65"/>
   </g>
   <g id="patch_22">
    <path d="M 166.480019 313.478125 
L 171.515095 313.478125 
L 171.515095 313.478125 
L 166.480019 313.478125 
z
" clip-path="url(#pf0554f87f2)" style="fill: #1f77b4; opacity: 0.65"/>
   </g>
   <g id="patch_23">
    <path d="M 171.515095 313.478125 
L 176.55017 313.478125 
L 176.55017 313.478125 
L 171.515095 313.478125 
z
" clip-path="url(#pf0554f87f2)" style="fill: #1f77b4; opacity: 0.65"/>
   </g>
   <g id="patch_24">
    <path d="M 176.55017 313.478125 
L 181.585246 313.478125 
L 181.585246 313.478125 
L 176.55017 313.478125 
z
" clip-path="url(#pf0554f87f2)" style="fill: #1f77b4; opacity: 0.65"/>
   </g>
   <g id="patch_25">
    <path d="M 181.585246 313.478125 
L 186.620322 313.478125 
L 186.620322 312.603377 
L 181.585246 312.603377 
z
" clip-path="url(#pf0554f87f2)" style="fill: #1f77b4; opacity: 0.65"/>
   </g>
   <g id="patch_26">
    <path d="M 186.620322 313.478125 
L 191.655398 313.478125 
L 191.655398 312.603377 
L 186.620322 312.603377 
z
" clip-path="url(#pf0554f87f2)" style="fill: #1f77b4; opacity: 0.65"/>
   </g>
   <g id="patch_27">
    <path d="M 191.655398 313.478125 
L 196.690473 313.478125 
L 196.690473 313.040751 
L 191.655398 313.040751 
z
" clip-path="url(#pf0554f87f2)" style="fill: #1f77b4; opacity: 0.65"/>
   </g>
   <g id="patch_28">
    <path d="M 196.690473 313.478125 
L 201.725549 313.478125 
L 201.725549 313.040751 
L 196.690473 313.040751 
z
" clip-path="url(#pf0554f87f2)" style="fill: #1f77b4; opacity: 0.65"/>
   </g>
   <g id="patch_29">
    <path d="M 201.725549 313.478125 
L 206.760625 313.478125 
L 206.760625 313.478125 
L 201.725549 313.478125 
z
" clip-path="url(#pf0554f87f2)" style="fill: #1f77b4; opacity: 0.65"/>
   </g>
   <g id="patch_30">
    <path d="M 206.760625 313.478125 
L 211.795701 313.478125 
L 211.795701 313.040751 
L 206.760625 313.040751 
z
" clip-path="url(#pf0554f87f2)" style="fill: #1f77b4; opacity: 0.65"/>
   </g>
   <g id="patch_31">
    <path d="M 211.795701 313.478125 
L 216.830777 313.478125 
L 216.830777 312.603377 
L 211.795701 312.603377 
z
" clip-path="url(#pf0554f87f2)" style="fill: #1f77b4; opacity: 0.65"/>
   </g>
   <g id="patch_32">
    <path d="M 216.830777 313.478125 
L 221.865852 313.478125 
L 221.865852 313.478125 
L 216.830777 313.478125 
z
" clip-path="url(#pf0554f87f2)" style="fill: #1f77b4; opacity: 0.65"/>
   </g>
   <g id="patch_33">
    <path d="M 221.865852 313.478125 
L 226.900928 313.478125 
L 226.900928 312.603377 
L 221.865852 312.603377 
z
" clip-path="url(#pf0554f87f2)" style="fill: #1f77b4; opacity: 0.65"/>
   </g>
   <g id="patch_34">
    <path d="M 226.900928 313.478125 
L 231.936004 313.478125 
L 231.936004 312.166002 
L 226.900928 312.166002 
z
" clip-path="url(#pf0554f87f2)" style="fill: #1f77b4; opacity: 0.65"/>
   </g>
   <g id="patch_35">
    <path d="M 231.936004 313.478125 
L 236.97108 313.478125 
L 236.97108 311.728628 
L 231.936004 311.728628 
z
" clip-path="url(#pf0554f87f2)" style="fill: #1f77b4; opacity: 0.65"/>
   </g>
   <g id="patch_36">
    <path d="M 236.97108 313.478125 
L 242.006155 313.478125 
L 242.006155 313.040751 
L 236.97108 313.040751 
z
" clip-path="url(#pf0554f87f2)" style="fill: #1f77b4; opacity: 0.65"/>
   </g>
   <g id="patch_37">
    <path d="M 242.006155 313.478125 
L 247.041231 313.478125 
L 247.041231 311.291254 
L 242.006155 311.291254 
z
" clip-path="url(#pf0554f87f2)" style="fill: #1f77b4; opacity: 0.65"/>
   </g>
   <g id="patch_38">
    <path d="M 247.041231 313.478125 
L 252.076307 313.478125 
L 252.076307 311.728628 
L 247.041231 311.728628 
z
" clip-path="url(#pf0554f87f2)" style="fill: #1f77b4; opacity: 0.65"/>
   </g>
   <g id="patch_39">
    <path d="M 252.076307 313.478125 
L 257.111383 313.478125 
L 257.111383 311.291254 
L 252.076307 311.291254 
z
" clip-path="url(#pf0554f87f2)" style="fill: #1f77b4; opacity: 0.65"/>
   </g>
   <g id="patch_40">
    <path d="M 257.111383 313.478125 
L 262.146458 313.478125 
L 262.146458 311.728628 
L 257.111383 311.728628 
z
" clip-path="url(#pf0554f87f2)" style="fill: #1f77b4; opacity: 0.65"/>
   </g>
   <g id="patch_41">
    <path d="M 262.146458 313.478125 
L 267.181534 313.478125 
L 267.181534 311.728628 
L 262.146458 311.728628 
z
" clip-path="url(#pf0554f87f2)" style="fill: #1f77b4; opacity: 0.65"/>
   </g>
   <g id="patch_42">
    <path d="M 267.181534 313.478125 
L 272.21661 313.478125 
L 272.21661 311.291254 
L 267.181534 311.291254 
z
" clip-path="url(#pf0554f87f2)" style="fill: #1f77b4; opacity: 0.65"/>
   </g>
   <g id="patch_43">
    <path d="M 272.21661 313.478125 
L 277.251686 313.478125 
L 277.251686 306.917512 
L 272.21661 306.917512 
z
" clip-path="url(#pf0554f87f2)" style="fill: #1f77b4; opacity: 0.65"/>
   </g>
   <g id="patch_44">
    <path d="M 277.251686 313.478125 
L 282.286761 313.478125 
L 282.286761 310.416506 
L 277.251686 310.416506 
z
" clip-path="url(#pf0554f87f2)" style="fill: #1f77b4; opacity: 0.65"/>
   </g>
   <g id="patch_45">
    <path d="M 282.286761 313.478125 
L 287.321837 313.478125 
L 287.321837 302.981144 
L 282.286761 302.981144 
z
" clip-path="url(#pf0554f87f2)" style="fill: #1f77b4; opacity: 0.65"/>
   </g>
   <g id="patch_46">
    <path d="M 287.321837 313.478125 
L 292.356913 313.478125 
L 292.356913 307.79226 
L 287.321837 307.79226 
z
" clip-path="url(#pf0554f87f2)" style="fill: #1f77b4; opacity: 0.65"/>
   </g>
   <g id="patch_47">
    <path d="M 292.356913 313.478125 
L 297.391989 313.478125 
L 297.391989 303.418519 
L 292.356913 303.418519 
z
" clip-path="url(#pf0554f87f2)" style="fill: #1f77b4; opacity: 0.65"/>
   </g>
   <g id="patch_48">
    <path d="M 297.391989 313.478125 
L 302.427064 313.478125 
L 302.427064 297.732654 
L 297.391989 297.732654 
z
" clip-path="url(#pf0554f87f2)" style="fill: #1f77b4; opacity: 0.65"/>
   </g>
   <g id="patch_49">
    <path d="M 302.427064 313.478125 
L 307.46214 313.478125 
L 307.46214 295.983157 
L 302.427064 295.983157 
z
" clip-path="url(#pf0554f87f2)" style="fill: #1f77b4; opacity: 0.65"/>
   </g>
   <g id="patch_50">
    <path d="M 307.46214 313.478125 
L 312.497216 313.478125 
L 312.497216 294.671035 
L 307.46214 294.671035 
z
" clip-path="url(#pf0554f87f2)" style="fill: #1f77b4; opacity: 0.65"/>
   </g>
   <g id="patch_51">
    <path d="M 312.497216 313.478125 
L 317.532292 313.478125 
L 317.532292 288.98517 
L 312.497216 288.98517 
z
" clip-path="url(#pf0554f87f2)" style="fill: #1f77b4; opacity: 0.65"/>
   </g>
   <g id="patch_52">
    <path d="M 317.532292 313.478125 
L 322.567367 313.478125 
L 322.567367 279.362938 
L 317.532292 279.362938 
z
" clip-path="url(#pf0554f87f2)" style="fill: #1f77b4; opacity: 0.65"/>
   </g>
   <g id="patch_53">
    <path d="M 322.567367 313.478125 
L 327.602443 313.478125 
L 327.602443 277.176067 
L 322.567367 277.176067 
z
" clip-path="url(#pf0554f87f2)" style="fill: #1f77b4; opacity: 0.65"/>
   </g>
   <g id="patch_54">
    <path d="M 327.602443 313.478125 
L 332.637519 313.478125 
L 332.637519 263.180093 
L 327.602443 263.180093 
z
" clip-path="url(#pf0554f87f2)" style="fill: #1f77b4; opacity: 0.65"/>
   </g>
   <g id="patch_55">
    <path d="M 332.637519 313.478125 
L 337.672595 313.478125 
L 337.672595 262.742719 
L 332.637519 262.742719 
z
" clip-path="url(#pf0554f87f2)" style="fill: #1f77b4; opacity: 0.65"/>
   </g>
   <g id="patch_56">
    <path d="M 337.672595 313.478125 
L 342.70767 313.478125 
L 342.70767 241.311383 
L 337.672595 241.311383 
z
" clip-path="url(#pf0554f87f2)" style="fill: #1f77b4; opacity: 0.65"/>
   </g>
   <g id="patch_57">
    <path d="M 342.70767 313.478125 
L 347.742746 313.478125 
L 347.742746 217.693177 
L 342.70767 217.693177 
z
" clip-path="url(#pf0554f87f2)" style="fill: #1f77b4; opacity: 0.65"/>
   </g>
   <g id="patch_58">
    <path d="M 347.742746 313.478125 
L 352.777822 313.478125 
L 352.777822 192.325474 
L 347.742746 192.325474 
z
" clip-path="url(#pf0554f87f2)" style="fill: #1f77b4; opacity: 0.65"/>
   </g>
   <g id="patch_59">
    <path d="M 352.777822 313.478125 
L 357.812898 313.478125 
L 357.812898 176.142629 
L 352.777822 176.142629 
z
" clip-path="url(#pf0554f87f2)" style="fill: #1f77b4; opacity: 0.65"/>
   </g>
   <g id="patch_60">
    <path d="M 357.812898 313.478125 
L 362.847973 313.478125 
L 362.847973 115.78499 
L 357.812898 115.78499 
z
" clip-path="url(#pf0554f87f2)" style="fill: #1f77b4; opacity: 0.65"/>
   </g>
   <g id="patch_61">
    <path d="M 362.847973 313.478125 
L 367.883049 313.478125 
L 367.883049 62.425338 
L 362.847973 62.425338 
z
" clip-path="url(#pf0554f87f2)" style="fill: #1f77b4; opacity: 0.65"/>
   </g>
   <g id="patch_62">
    <path d="M 367.883049 313.478125 
L 372.918125 313.478125 
L 372.918125 36.182887 
L 367.883049 36.182887 
z
" clip-path="url(#pf0554f87f2)" style="fill: #1f77b4; opacity: 0.65"/>
   </g>
   <g id="patch_63">
    <path d="M 372.918125 313.478125 
L 377.953201 313.478125 
L 377.953201 89.542538 
L 372.918125 89.542538 
z
" clip-path="url(#pf0554f87f2)" style="fill: #1f77b4; opacity: 0.65"/>
   </g>
   <g id="patch_64">
    <path d="M 377.953201 313.478125 
L 382.988277 313.478125 
L 382.988277 126.719345 
L 377.953201 126.719345 
z
" clip-path="url(#pf0554f87f2)" style="fill: #1f77b4; opacity: 0.65"/>
   </g>
   <g id="patch_65">
    <path d="M 382.988277 313.478125 
L 388.023352 313.478125 
L 388.023352 157.772912 
L 382.988277 157.772912 
z
" clip-path="url(#pf0554f87f2)" style="fill: #1f77b4; opacity: 0.65"/>
   </g>
   <g id="patch_66">
    <path d="M 388.023352 313.478125 
L 393.058428 313.478125 
L 393.058428 190.575977 
L 388.023352 190.575977 
z
" clip-path="url(#pf0554f87f2)" style="fill: #1f77b4; opacity: 0.65"/>
   </g>
   <g id="patch_67">
    <path d="M 393.058428 313.478125 
L 398.093504 313.478125 
L 398.093504 217.693177 
L 393.058428 217.693177 
z
" clip-path="url(#pf0554f87f2)" style="fill: #1f77b4; opacity: 0.65"/>
   </g>
   <g id="patch_68">
    <path d="M 398.093504 313.478125 
L 403.12858 313.478125 
L 403.12858 248.30937 
L 398.093504 248.30937 
z
" clip-path="url(#pf0554f87f2)" style="fill: #1f77b4; opacity: 0.65"/>
   </g>
   <g id="patch_69">
    <path d="M 403.12858 313.478125 
L 408.163655 313.478125 
L 408.163655 253.557861 
L 403.12858 253.557861 
z
" clip-path="url(#pf0554f87f2)" style="fill: #1f77b4; opacity: 0.65"/>
   </g>
   <g id="patch_70">
    <path d="M 408.163655 313.478125 
L 413.198731 313.478125 
L 413.198731 271.490203 
L 408.163655 271.490203 
z
" clip-path="url(#pf0554f87f2)" style="fill: #1f77b4; opacity: 0.65"/>
   </g>
   <g id="patch_71">
    <path d="M 413.198731 313.478125 
L 418.233807 313.478125 
L 418.233807 284.174054 
L 413.198731 284.174054 
z
" clip-path="url(#pf0554f87f2)" style="fill: #1f77b4; opacity: 0.65"/>
   </g>
   <g id="patch_72">
    <path d="M 418.233807 313.478125 
L 423.268883 313.478125 
L 423.268883 286.360925 
L 418.233807 286.360925 
z
" clip-path="url(#pf0554f87f2)" style="fill: #1f77b4; opacity: 0.65"/>
   </g>
   <g id="patch_73">
    <path d="M 423.268883 313.478125 
L 428.303958 313.478125 
L 428.303958 295.983157 
L 423.268883 295.983157 
z
" clip-path="url(#pf0554f87f2)" style="fill: #1f77b4; opacity: 0.65"/>
   </g>
   <g id="patch_74">
    <path d="M 428.303958 313.478125 
L 433.339034 313.478125 
L 433.339034 302.106396 
L 428.303958 302.106396 
z
" clip-path="url(#pf0554f87f2)" style="fill: #1f77b4; opacity: 0.65"/>
   </g>
   <g id="patch_75">
    <path d="M 433.339034 313.478125 
L 438.37411 313.478125 
L 438.37411 301.669022 
L 433.339034 301.669022 
z
" clip-path="url(#pf0554f87f2)" style="fill: #1f77b4; opacity: 0.65"/>
   </g>
   <g id="patch_76">
    <path d="M 438.37411 313.478125 
L 443.409186 313.478125 
L 443.409186 309.541757 
L 438.37411 309.541757 
z
" clip-path="url(#pf0554f87f2)" style="fill: #1f77b4; opacity: 0.65"/>
   </g>
   <g id="patch_77">
    <path d="M 443.409186 313.478125 
L 448.444261 313.478125 
L 448.444261 306.480138 
L 443.409186 306.480138 
z
" clip-path="url(#pf0554f87f2)" style="fill: #1f77b4; opacity: 0.65"/>
   </g>
   <g id="patch_78">
    <path d="M 448.444261 313.478125 
L 453.479337 313.478125 
L 453.479337 308.229635 
L 448.444261 308.229635 
z
" clip-path="url(#pf0554f87f2)" style="fill: #1f77b4; opacity: 0.65"/>
   </g>
   <g id="patch_79">
    <path d="M 453.479337 313.478125 
L 458.514413 313.478125 
L 458.514413 309.541757 
L 453.479337 309.541757 
z
" clip-path="url(#pf0554f87f2)" style="fill: #1f77b4; opacity: 0.65"/>
   </g>
   <g id="patch_80">
    <path d="M 458.514413 313.478125 
L 463.549489 313.478125 
L 463.549489 306.917512 
L 458.514413 306.917512 
z
" clip-path="url(#pf0554f87f2)" style="fill: #1f77b4; opacity: 0.65"/>
   </g>
   <g id="patch_81">
    <path d="M 463.549489 313.478125 
L 468.584564 313.478125 
L 468.584564 310.85388 
L 463.549489 310.85388 
z
" clip-path="url(#pf0554f87f2)" style="fill: #1f77b4; opacity: 0.65"/>
   </g>
   <g id="patch_82">
    <path d="M 468.584564 313.478125 
L 473.61964 313.478125 
L 473.61964 309.979131 
L 468.584564 309.979131 
z
" clip-path="url(#pf0554f87f2)" style="fill: #1f77b4; opacity: 0.65"/>
   </g>
   <g id="patch_83">
    <path d="M 473.61964 313.478125 
L 478.654716 313.478125 
L 478.654716 311.291254 
L 473.61964 311.291254 
z
" clip-path="url(#pf0554f87f2)" style="fill: #1f77b4; opacity: 0.65"/>
   </g>
   <g id="patch_84">
    <path d="M 478.654716 313.478125 
L 483.689792 313.478125 
L 483.689792 311.291254 
L 478.654716 311.291254 
z
" clip-path="url(#pf0554f87f2)" style="fill: #1f77b4; opacity: 0.65"/>
   </g>
   <g id="patch_85">
    <path d="M 483.689792 313.478125 
L 488.724867 313.478125 
L 488.724867 312.166002 
L 483.689792 312.166002 
z
" clip-path="url(#pf0554f87f2)" style="fill: #1f77b4; opacity: 0.65"/>
   </g>
   <g id="patch_86">
    <path d="M 488.724867 313.478125 
L 493.759943 313.478125 
L 493.759943 312.166002 
L 488.724867 312.166002 
z
" clip-path="url(#pf0554f87f2)" style="fill: #1f77b4; opacity: 0.65"/>
   </g>
   <g id="patch_87">
    <path d="M 493.759943 313.478125 
L 498.795019 313.478125 
L 498.795019 312.166002 
L 493.759943 312.166002 
z
" clip-path="url(#pf0554f87f2)" style="fill: #1f77b4; opacity: 0.65"/>
   </g>
   <g id="patch_88">
    <path d="M 498.795019 313.478125 
L 503.830095 313.478125 
L 503.830095 313.040751 
L 498.795019 313.040751 
z
" clip-path="url(#pf0554f87f2)" style="fill: #1f77b4; opacity: 0.65"/>
   </g>
   <g id="patch_89">
    <path d="M 503.830095 313.478125 
L 508.86517 313.478125 
L 508.86517 311.728628 
L 503.830095 311.728628 
z
" clip-path="url(#pf0554f87f2)" style="fill: #1f77b4; opacity: 0.65"/>
   </g>
   <g id="patch_90">
    <path d="M 508.86517 313.478125 
L 513.900246 313.478125 
L 513.900246 313.040751 
L 508.86517 313.040751 
z
" clip-path="url(#pf0554f87f2)" style="fill: #1f77b4; opacity: 0.65"/>
   </g>
   <g id="patch_91">
    <path d="M 513.900246 313.478125 
L 518.935322 313.478125 
L 518.935322 312.603377 
L 513.900246 312.603377 
z
" clip-path="url(#pf0554f87f2)" style="fill: #1f77b4; opacity: 0.65"/>
   </g>
   <g id="patch_92">
    <path d="M 518.935322 313.478125 
L 523.970398 313.478125 
L 523.970398 313.040751 
L 518.935322 313.040751 
z
" clip-path="url(#pf0554f87f2)" style="fill: #1f77b4; opacity: 0.65"/>
   </g>
   <g id="patch_93">
    <path d="M 523.970398 313.478125 
L 529.005473 313.478125 
L 529.005473 312.603377 
L 523.970398 312.603377 
z
" clip-path="url(#pf0554f87f2)" style="fill: #1f77b4; opacity: 0.65"/>
   </g>
   <g id="patch_94">
    <path d="M 529.005473 313.478125 
L 534.040549 313.478125 
L 534.040549 312.603377 
L 529.005473 312.603377 
z
" clip-path="url(#pf0554f87f2)" style="fill: #1f77b4; opacity: 0.65"/>
   </g>
   <g id="patch_95">
    <path d="M 534.040549 313.478125 
L 539.075625 313.478125 
L 539.075625 313.040751 
L 534.040549 313.040751 
z
" clip-path="url(#pf0554f87f2)" style="fill: #1f77b4; opacity: 0.65"/>
   </g>
   <g id="patch_96">
    <path d="M 539.075625 313.478125 
L 544.110701 313.478125 
L 544.110701 313.478125 
L 539.075625 313.478125 
z
" clip-path="url(#pf0554f87f2)" style="fill: #1f77b4; opacity: 0.65"/>
   </g>
   <g id="patch_97">
    <path d="M 544.110701 313.478125 
L 549.145777 313.478125 
L 549.145777 313.478125 
L 544.110701 313.478125 
z
" clip-path="url(#pf0554f87f2)" style="fill: #1f77b4; opacity: 0.65"/>
   </g>
   <g id="patch_98">
    <path d="M 549.145777 313.478125 
L 554.180852 313.478125 
L 554.180852 313.040751 
L 549.145777 313.040751 
z
" clip-path="url(#pf0554f87f2)" style="fill: #1f77b4; opacity: 0.65"/>
   </g>
   <g id="patch_99">
    <path d="M 554.180852 313.478125 
L 559.215928 313.478125 
L 559.215928 313.478125 
L 554.180852 313.478125 
z
" clip-path="url(#pf0554f87f2)" style="fill: #1f77b4; opacity: 0.65"/>
   </g>
   <g id="patch_100">
    <path d="M 559.215928 313.478125 
L 564.251004 313.478125 
L 564.251004 313.478125 
L 559.215928 313.478125 
z
" clip-path="url(#pf0554f87f2)" style="fill: #1f77b4; opacity: 0.65"/>
   </g>
   <g id="patch_101">
    <path d="M 564.251004 313.478125 
L 569.28608 313.478125 
L 569.28608 313.040751 
L 564.251004 313.040751 
z
" clip-path="url(#pf0554f87f2)" style="fill: #1f77b4; opacity: 0.65"/>
   </g>
   <g id="patch_102">
    <path d="M 569.28608 313.478125 
L 574.321155 313.478125 
L 574.321155 313.478125 
L 569.28608 313.478125 
z
" clip-path="url(#pf0554f87f2)" style="fill: #1f77b4; opacity: 0.65"/>
   </g>
   <g id="patch_103">
    <path d="M 574.321155 313.478125 
L 579.356231 313.478125 
L 579.356231 313.478125 
L 574.321155 313.478125 
z
" clip-path="url(#pf0554f87f2)" style="fill: #1f77b4; opacity: 0.65"/>
   </g>
   <g id="patch_104">
    <path d="M 579.356231 313.478125 
L 584.391307 313.478125 
L 584.391307 313.478125 
L 579.356231 313.478125 
z
" clip-path="url(#pf0554f87f2)" style="fill: #1f77b4; opacity: 0.65"/>
   </g>
   <g id="patch_105">
    <path d="M 584.391307 313.478125 
L 589.426383 313.478125 
L 589.426383 313.478125 
L 584.391307 313.478125 
z
" clip-path="url(#pf0554f87f2)" style="fill: #1f77b4; opacity: 0.65"/>
   </g>
   <g id="patch_106">
    <path d="M 589.426383 313.478125 
L 594.461458 313.478125 
L 594.461458 313.478125 
L 589.426383 313.478125 
z
" clip-path="url(#pf0554f87f2)" style="fill: #1f77b4; opacity: 0.65"/>
   </g>
   <g id="patch_107">
    <path d="M 594.461458 313.478125 
L 599.496534 313.478125 
L 599.496534 313.478125 
L 594.461458 313.478125 
z
" clip-path="url(#pf0554f87f2)" style="fill: #1f77b4; opacity: 0.65"/>
   </g>
   <g id="patch_108">
    <path d="M 599.496534 313.478125 
L 604.53161 313.478125 
L 604.53161 313.040751 
L 599.496534 313.040751 
z
" clip-path="url(#pf0554f87f2)" style="fill: #1f77b4; opacity: 0.65"/>
   </g>
   <g id="patch_109">
    <path d="M 604.53161 313.478125 
L 609.566686 313.478125 
L 609.566686 313.478125 
L 604.53161 313.478125 
z
" clip-path="url(#pf0554f87f2)" style="fill: #1f77b4; opacity: 0.65"/>
   </g>
   <g id="patch_110">
    <path d="M 609.566686 313.478125 
L 614.601761 313.478125 
L 614.601761 313.040751 
L 609.566686 313.040751 
z
" clip-path="url(#pf0554f87f2)" style="fill: #1f77b4; opacity: 0.65"/>
   </g>
   <g id="patch_111">
    <path d="M 614.601761 313.478125 
L 619.636837 313.478125 
L 619.636837 313.478125 
L 614.601761 313.478125 
z
" clip-path="url(#pf0554f87f2)" style="fill: #1f77b4; opacity: 0.65"/>
   </g>
   <g id="patch_112">
    <path d="M 619.636837 313.478125 
L 624.671913 313.478125 
L 624.671913 313.478125 
L 619.636837 313.478125 
z
" clip-path="url(#pf0554f87f2)" style="fill: #1f77b4; opacity: 0.65"/>
   </g>
   <g id="patch_113">
    <path d="M 624.671913 313.478125 
L 629.706989 313.478125 
L 629.706989 313.478125 
L 624.671913 313.478125 
z
" clip-path="url(#pf0554f87f2)" style="fill: #1f77b4; opacity: 0.65"/>
   </g>
   <g id="patch_114">
    <path d="M 629.706989 313.478125 
L 634.742064 313.478125 
L 634.742064 313.478125 
L 629.706989 313.478125 
z
" clip-path="url(#pf0554f87f2)" style="fill: #1f77b4; opacity: 0.65"/>
   </g>
   <g id="patch_115">
    <path d="M 634.742064 313.478125 
L 639.77714 313.478125 
L 639.77714 313.478125 
L 634.742064 313.478125 
z
" clip-path="url(#pf0554f87f2)" style="fill: #1f77b4; opacity: 0.65"/>
   </g>
   <g id="patch_116">
    <path d="M 639.77714 313.478125 
L 644.812216 313.478125 
L 644.812216 313.478125 
L 639.77714 313.478125 
z
" clip-path="url(#pf0554f87f2)" style="fill: #1f77b4; opacity: 0.65"/>
   </g>
   <g id="patch_117">
    <path d="M 644.812216 313.478125 
L 649.847292 313.478125 
L 649.847292 313.478125 
L 644.812216 313.478125 
z
" clip-path="url(#pf0554f87f2)" style="fill: #1f77b4; opacity: 0.65"/>
   </g>
   <g id="patch_118">
    <path d="M 649.847292 313.478125 
L 654.882367 313.478125 
L 654.882367 313.040751 
L 649.847292 313.040751 
z
" clip-path="url(#pf0554f87f2)" style="fill: #1f77b4; opacity: 0.65"/>
   </g>
   <g id="patch_119">
    <path d="M 654.882367 313.478125 
L 659.917443 313.478125 
L 659.917443 313.478125 
L 654.882367 313.478125 
z
" clip-path="url(#pf0554f87f2)" style="fill: #1f77b4; opacity: 0.65"/>
   </g>
   <g id="patch_120">
    <path d="M 659.917443 313.478125 
L 664.952519 313.478125 
L 664.952519 313.478125 
L 659.917443 313.478125 
z
" clip-path="url(#pf0554f87f2)" style="fill: #1f77b4; opacity: 0.65"/>
   </g>
   <g id="patch_121">
    <path d="M 664.952519 313.478125 
L 669.987595 313.478125 
L 669.987595 313.478125 
L 664.952519 313.478125 
z
" clip-path="url(#pf0554f87f2)" style="fill: #1f77b4; opacity: 0.65"/>
   </g>
   <g id="patch_122">
    <path d="M 669.987595 313.478125 
L 675.02267 313.478125 
L 675.02267 313.040751 
L 669.987595 313.040751 
z
" clip-path="url(#pf0554f87f2)" style="fill: #1f77b4; opacity: 0.65"/>
   </g>
   <g id="matplotlib.axis_1">
    <g id="xtick_1">
     <g id="line2d_1">
      <path d="M 96.401304 313.478125 
L 96.401304 22.318125 
" clip-path="url(#pf0554f87f2)" style="fill: none; stroke: #b0b0b0; stroke-width: 0.8; stroke-linecap: square"/>
     </g>
     <g id="line2d_2">
      <defs>
       <path id="m7df53c8c3b" d="M 0 0 
L 0 3.5 
" style="stroke: #000000; stroke-width: 0.8"/>
      </defs>
      <g>
       <use xlink:href="#m7df53c8c3b" x="96.401304" y="313.478125" style="stroke: #000000; stroke-width: 0.8"/>
      </g>
     </g>
     <g id="text_1">
      <!-- −0.10 -->
      <g transform="translate(81.078648 328.076563) scale(0.1 -0.1)">
       <defs>
        <path id="DejaVuSans-2212" d="M 678 2272 
L 4684 2272 
L 4684 1741 
L 678 1741 
L 678 2272 
z
" transform="scale(0.015625)"/>
        <path id="DejaVuSans-30" d="M 2034 4250 
Q 1547 4250 1301 3770 
Q 1056 3291 1056 2328 
Q 1056 1369 1301 889 
Q 1547 409 2034 409 
Q 2525 409 2770 889 
Q 3016 1369 3016 2328 
Q 3016 3291 2770 3770 
Q 2525 4250 2034 4250 
z
M 2034 4750 
Q 2819 4750 3233 4129 
Q 3647 3509 3647 2328 
Q 3647 1150 3233 529 
Q 2819 -91 2034 -91 
Q 1250 -91 836 529 
Q 422 1150 422 2328 
Q 422 3509 836 4129 
Q 1250 4750 2034 4750 
z
" transform="scale(0.015625)"/>
        <path id="DejaVuSans-2e" d="M 684 794 
L 1344 794 
L 1344 0 
L 684 0 
L 684 794 
z
" transform="scale(0.015625)"/>
        <path id="DejaVuSans-31" d="M 794 531 
L 1825 531 
L 1825 4091 
L 703 3866 
L 703 4441 
L 1819 4666 
L 2450 4666 
L 2450 531 
L 3481 531 
L 3481 0 
L 794 0 
L 794 531 
z
" transform="scale(0.015625)"/>
       </defs>
       <use xlink:href="#DejaVuSans-2212"/>
       <use xlink:href="#DejaVuSans-30" transform="translate(83.789062 0)"/>
       <use xlink:href="#DejaVuSans-2e" transform="translate(147.412109 0)"/>
       <use xlink:href="#DejaVuSans-31" transform="translate(179.199219 0)"/>
       <use xlink:href="#DejaVuSans-30" transform="translate(242.822266 0)"/>
      </g>
     </g>
    </g>
    <g id="xtick_2">
     <g id="line2d_3">
      <path d="M 232.163438 313.478125 
L 232.163438 22.318125 
" clip-path="url(#pf0554f87f2)" style="fill: none; stroke: #b0b0b0; stroke-width: 0.8; stroke-linecap: square"/>
     </g>
     <g id="line2d_4">
      <g>
       <use xlink:href="#m7df53c8c3b" x="232.163438" y="313.478125" style="stroke: #000000; stroke-width: 0.8"/>
      </g>
     </g>
     <g id="text_2">
      <!-- −0.05 -->
      <g transform="translate(216.840781 328.076563) scale(0.1 -0.1)">
       <defs>
        <path id="DejaVuSans-35" d="M 691 4666 
L 3169 4666 
L 3169 4134 
L 1269 4134 
L 1269 2991 
Q 1406 3038 1543 3061 
Q 1681 3084 1819 3084 
Q 2600 3084 3056 2656 
Q 3513 2228 3513 1497 
Q 3513 744 3044 326 
Q 2575 -91 1722 -91 
Q 1428 -91 1123 -41 
Q 819 9 494 109 
L 494 744 
Q 775 591 1075 516 
Q 1375 441 1709 441 
Q 2250 441 2565 725 
Q 2881 1009 2881 1497 
Q 2881 1984 2565 2268 
Q 2250 2553 1709 2553 
Q 1456 2553 1204 2497 
Q 953 2441 691 2322 
L 691 4666 
z
" transform="scale(0.015625)"/>
       </defs>
       <use xlink:href="#DejaVuSans-2212"/>
       <use xlink:href="#DejaVuSans-30" transform="translate(83.789062 0)"/>
       <use xlink:href="#DejaVuSans-2e" transform="translate(147.412109 0)"/>
       <use xlink:href="#DejaVuSans-30" transform="translate(179.199219 0)"/>
       <use xlink:href="#DejaVuSans-35" transform="translate(242.822266 0)"/>
      </g>
     </g>
    </g>
    <g id="xtick_3">
     <g id="line2d_5">
      <path d="M 367.925572 313.478125 
L 367.925572 22.318125 
" clip-path="url(#pf0554f87f2)" style="fill: none; stroke: #b0b0b0; stroke-width: 0.8; stroke-linecap: square"/>
     </g>
     <g id="line2d_6">
      <g>
       <use xlink:href="#m7df53c8c3b" x="367.925572" y="313.478125" style="stroke: #000000; stroke-width: 0.8"/>
      </g>
     </g>
     <g id="text_3">
      <!-- 0.00 -->
      <g transform="translate(356.792759 328.076563) scale(0.1 -0.1)">
       <use xlink:href="#DejaVuSans-30"/>
       <use xlink:href="#DejaVuSans-2e" transform="translate(63.623047 0)"/>
       <use xlink:href="#DejaVuSans-30" transform="translate(95.410156 0)"/>
       <use xlink:href="#DejaVuSans-30" transform="translate(159.033203 0)"/>
      </g>
     </g>
    </g>
    <g id="xtick_4">
     <g id="line2d_7">
      <path d="M 503.687705 313.478125 
L 503.687705 22.318125 
" clip-path="url(#pf0554f87f2)" style="fill: none; stroke: #b0b0b0; stroke-width: 0.8; stroke-linecap: square"/>
     </g>
     <g id="line2d_8">
      <g>
       <use xlink:href="#m7df53c8c3b" x="503.687705" y="313.478125" style="stroke: #000000; stroke-width: 0.8"/>
      </g>
     </g>
     <g id="text_4">
      <!-- 0.05 -->
      <g transform="translate(492.554893 328.076563) scale(0.1 -0.1)">
       <use xlink:href="#DejaVuSans-30"/>
       <use xlink:href="#DejaVuSans-2e" transform="translate(63.623047 0)"/>
       <use xlink:href="#DejaVuSans-30" transform="translate(95.410156 0)"/>
       <use xlink:href="#DejaVuSans-35" transform="translate(159.033203 0)"/>
      </g>
     </g>
    </g>
    <g id="xtick_5">
     <g id="line2d_9">
      <path d="M 639.449839 313.478125 
L 639.449839 22.318125 
" clip-path="url(#pf0554f87f2)" style="fill: none; stroke: #b0b0b0; stroke-width: 0.8; stroke-linecap: square"/>
     </g>
     <g id="line2d_10">
      <g>
       <use xlink:href="#m7df53c8c3b" x="639.449839" y="313.478125" style="stroke: #000000; stroke-width: 0.8"/>
      </g>
     </g>
     <g id="text_5">
      <!-- 0.10 -->
      <g transform="translate(628.317027 328.076563) scale(0.1 -0.1)">
       <use xlink:href="#DejaVuSans-30"/>
       <use xlink:href="#DejaVuSans-2e" transform="translate(63.623047 0)"/>
       <use xlink:href="#DejaVuSans-31" transform="translate(95.410156 0)"/>
       <use xlink:href="#DejaVuSans-30" transform="translate(159.033203 0)"/>
      </g>
     </g>
    </g>
    <g id="text_6">
     <!-- Daily Return -->
     <g transform="translate(342.086094 341.754687) scale(0.1 -0.1)">
      <defs>
       <path id="DejaVuSans-44" d="M 1259 4147 
L 1259 519 
L 2022 519 
Q 2988 519 3436 956 
Q 3884 1394 3884 2338 
Q 3884 3275 3436 3711 
Q 2988 4147 2022 4147 
L 1259 4147 
z
M 628 4666 
L 1925 4666 
Q 3281 4666 3915 4102 
Q 4550 3538 4550 2338 
Q 4550 1131 3912 565 
Q 3275 0 1925 0 
L 628 0 
L 628 4666 
z
" transform="scale(0.015625)"/>
       <path id="DejaVuSans-61" d="M 2194 1759 
Q 1497 1759 1228 1600 
Q 959 1441 959 1056 
Q 959 750 1161 570 
Q 1363 391 1709 391 
Q 2188 391 2477 730 
Q 2766 1069 2766 1631 
L 2766 1759 
L 2194 1759 
z
M 3341 1997 
L 3341 0 
L 2766 0 
L 2766 531 
Q 2569 213 2275 61 
Q 1981 -91 1556 -91 
Q 1019 -91 701 211 
Q 384 513 384 1019 
Q 384 1609 779 1909 
Q 1175 2209 1959 2209 
L 2766 2209 
L 2766 2266 
Q 2766 2663 2505 2880 
Q 2244 3097 1772 3097 
Q 1472 3097 1187 3025 
Q 903 2953 641 2809 
L 641 3341 
Q 956 3463 1253 3523 
Q 1550 3584 1831 3584 
Q 2591 3584 2966 3190 
Q 3341 2797 3341 1997 
z
" transform="scale(0.015625)"/>
       <path id="DejaVuSans-69" d="M 603 3500 
L 1178 3500 
L 1178 0 
L 603 0 
L 603 3500 
z
M 603 4863 
L 1178 4863 
L 1178 4134 
L 603 4134 
L 603 4863 
z
" transform="scale(0.015625)"/>
       <path id="DejaVuSans-6c" d="M 603 4863 
L 1178 4863 
L 1178 0 
L 603 0 
L 603 4863 
z
" transform="scale(0.015625)"/>
       <path id="DejaVuSans-79" d="M 2059 -325 
Q 1816 -950 1584 -1140 
Q 1353 -1331 966 -1331 
L 506 -1331 
L 506 -850 
L 844 -850 
Q 1081 -850 1212 -737 
Q 1344 -625 1503 -206 
L 1606 56 
L 191 3500 
L 800 3500 
L 1894 763 
L 2988 3500 
L 3597 3500 
L 2059 -325 
z
" transform="scale(0.015625)"/>
       <path id="DejaVuSans-20" transform="scale(0.015625)"/>
       <path id="DejaVuSans-52" d="M 2841 2188 
Q 3044 2119 3236 1894 
Q 3428 1669 3622 1275 
L 4263 0 
L 3584 0 
L 2988 1197 
Q 2756 1666 2539 1819 
Q 2322 1972 1947 1972 
L 1259 1972 
L 1259 0 
L 628 0 
L 628 4666 
L 2053 4666 
Q 2853 4666 3247 4331 
Q 3641 3997 3641 3322 
Q 3641 2881 3436 2590 
Q 3231 2300 2841 2188 
z
M 1259 4147 
L 1259 2491 
L 2053 2491 
Q 2509 2491 2742 2702 
Q 2975 2913 2975 3322 
Q 2975 3731 2742 3939 
Q 2509 4147 2053 4147 
L 1259 4147 
z
" transform="scale(0.015625)"/>
       <path id="DejaVuSans-65" d="M 3597 1894 
L 3597 1613 
L 953 1613 
Q 991 1019 1311 708 
Q 1631 397 2203 397 
Q 2534 397 2845 478 
Q 3156 559 3463 722 
L 3463 178 
Q 3153 47 2828 -22 
Q 2503 -91 2169 -91 
Q 1331 -91 842 396 
Q 353 884 353 1716 
Q 353 2575 817 3079 
Q 1281 3584 2069 3584 
Q 2775 3584 3186 3129 
Q 3597 2675 3597 1894 
z
M 3022 2063 
Q 3016 2534 2758 2815 
Q 2500 3097 2075 3097 
Q 1594 3097 1305 2825 
Q 1016 2553 972 2059 
L 3022 2063 
z
" transform="scale(0.015625)"/>
       <path id="DejaVuSans-74" d="M 1172 4494 
L 1172 3500 
L 2356 3500 
L 2356 3053 
L 1172 3053 
L 1172 1153 
Q 1172 725 1289 603 
Q 1406 481 1766 481 
L 2356 481 
L 2356 0 
L 1766 0 
Q 1100 0 847 248 
Q 594 497 594 1153 
L 594 3053 
L 172 3053 
L 172 3500 
L 594 3500 
L 594 4494 
L 1172 4494 
z
" transform="scale(0.015625)"/>
       <path id="DejaVuSans-75" d="M 544 1381 
L 544 3500 
L 1119 3500 
L 1119 1403 
Q 1119 906 1312 657 
Q 1506 409 1894 409 
Q 2359 409 2629 706 
Q 2900 1003 2900 1516 
L 2900 3500 
L 3475 3500 
L 3475 0 
L 2900 0 
L 2900 538 
Q 2691 219 2414 64 
Q 2138 -91 1772 -91 
Q 1169 -91 856 284 
Q 544 659 544 1381 
z
M 1991 3584 
L 1991 3584 
z
" transform="scale(0.015625)"/>
       <path id="DejaVuSans-72" d="M 2631 2963 
Q 2534 3019 2420 3045 
Q 2306 3072 2169 3072 
Q 1681 3072 1420 2755 
Q 1159 2438 1159 1844 
L 1159 0 
L 581 0 
L 581 3500 
L 1159 3500 
L 1159 2956 
Q 1341 3275 1631 3429 
Q 1922 3584 2338 3584 
Q 2397 3584 2469 3576 
Q 2541 3569 2628 3553 
L 2631 2963 
z
" transform="scale(0.015625)"/>
       <path id="DejaVuSans-6e" d="M 3513 2113 
L 3513 0 
L 2938 0 
L 2938 2094 
Q 2938 2591 2744 2837 
Q 2550 3084 2163 3084 
Q 1697 3084 1428 2787 
Q 1159 2491 1159 1978 
L 1159 0 
L 581 0 
L 581 3500 
L 1159 3500 
L 1159 2956 
Q 1366 3272 1645 3428 
Q 1925 3584 2291 3584 
Q 2894 3584 3203 3211 
Q 3513 2838 3513 2113 
z
" transform="scale(0.015625)"/>
      </defs>
      <use xlink:href="#DejaVuSans-44"/>
      <use xlink:href="#DejaVuSans-61" transform="translate(77.001953 0)"/>
      <use xlink:href="#DejaVuSans-69" transform="translate(138.28125 0)"/>
      <use xlink:href="#DejaVuSans-6c" transform="translate(166.064453 0)"/>
      <use xlink:href="#DejaVuSans-79" transform="translate(193.847656 0)"/>
      <use xlink:href="#DejaVuSans-20" transform="translate(253.027344 0)"/>
      <use xlink:href="#DejaVuSans-52" transform="translate(284.814453 0)"/>
      <use xlink:href="#DejaVuSans-65" transform="translate(349.796875 0)"/>
      <use xlink:href="#DejaVuSans-74" transform="translate(411.320312 0)"/>
      <use xlink:href="#DejaVuSans-75" transform="translate(450.529297 0)"/>
      <use xlink:href="#DejaVuSans-72" transform="translate(513.908203 0)"/>
      <use xlink:href="#DejaVuSans-6e" transform="translate(553.271484 0)"/>
     </g>
    </g>
   </g>
   <g id="matplotlib.axis_2">
    <g id="ytick_1">
     <g id="line2d_11">
      <path d="M 40.603125 313.478125 
L 705.233125 313.478125 
" clip-path="url(#pf0554f87f2)" style="fill: none; stroke: #b0b0b0; stroke-width: 0.8; stroke-linecap: square"/>
     </g>
     <g id="line2d_12">
      <defs>
       <path id="ma245dd7c87" d="M 0 0 
L -3.5 0 
" style="stroke: #000000; stroke-width: 0.8"/>
      </defs>
      <g>
       <use xlink:href="#ma245dd7c87" x="40.603125" y="313.478125" style="stroke: #000000; stroke-width: 0.8"/>
      </g>
     </g>
     <g id="text_7">
      <!-- 0 -->
      <g transform="translate(27.240625 317.277344) scale(0.1 -0.1)">
       <use xlink:href="#DejaVuSans-30"/>
      </g>
     </g>
    </g>
    <g id="ytick_2">
     <g id="line2d_13">
      <path d="M 40.603125 266.047606 
L 705.233125 266.047606 
" clip-path="url(#pf0554f87f2)" style="fill: none; stroke: #b0b0b0; stroke-width: 0.8; stroke-linecap: square"/>
     </g>
     <g id="line2d_14">
      <g>
       <use xlink:href="#ma245dd7c87" x="40.603125" y="266.047606" style="stroke: #000000; stroke-width: 0.8"/>
      </g>
     </g>
     <g id="text_8">
      <!-- 10 -->
      <g transform="translate(20.878125 269.846825) scale(0.1 -0.1)">
       <use xlink:href="#DejaVuSans-31"/>
       <use xlink:href="#DejaVuSans-30" transform="translate(63.623047 0)"/>
      </g>
     </g>
    </g>
    <g id="ytick_3">
     <g id="line2d_15">
      <path d="M 40.603125 218.617087 
L 705.233125 218.617087 
" clip-path="url(#pf0554f87f2)" style="fill: none; stroke: #b0b0b0; stroke-width: 0.8; stroke-linecap: square"/>
     </g>
     <g id="line2d_16">
      <g>
       <use xlink:href="#ma245dd7c87" x="40.603125" y="218.617087" style="stroke: #000000; stroke-width: 0.8"/>
      </g>
     </g>
     <g id="text_9">
      <!-- 20 -->
      <g transform="translate(20.878125 222.416306) scale(0.1 -0.1)">
       <defs>
        <path id="DejaVuSans-32" d="M 1228 531 
L 3431 531 
L 3431 0 
L 469 0 
L 469 531 
Q 828 903 1448 1529 
Q 2069 2156 2228 2338 
Q 2531 2678 2651 2914 
Q 2772 3150 2772 3378 
Q 2772 3750 2511 3984 
Q 2250 4219 1831 4219 
Q 1534 4219 1204 4116 
Q 875 4013 500 3803 
L 500 4441 
Q 881 4594 1212 4672 
Q 1544 4750 1819 4750 
Q 2544 4750 2975 4387 
Q 3406 4025 3406 3419 
Q 3406 3131 3298 2873 
Q 3191 2616 2906 2266 
Q 2828 2175 2409 1742 
Q 1991 1309 1228 531 
z
" transform="scale(0.015625)"/>
       </defs>
       <use xlink:href="#DejaVuSans-32"/>
       <use xlink:href="#DejaVuSans-30" transform="translate(63.623047 0)"/>
      </g>
     </g>
    </g>
    <g id="ytick_4">
     <g id="line2d_17">
      <path d="M 40.603125 171.186568 
L 705.233125 171.186568 
" clip-path="url(#pf0554f87f2)" style="fill: none; stroke: #b0b0b0; stroke-width: 0.8; stroke-linecap: square"/>
     </g>
     <g id="line2d_18">
      <g>
       <use xlink:href="#ma245dd7c87" x="40.603125" y="171.186568" style="stroke: #000000; stroke-width: 0.8"/>
      </g>
     </g>
     <g id="text_10">
      <!-- 30 -->
      <g transform="translate(20.878125 174.985787) scale(0.1 -0.1)">
       <defs>
        <path id="DejaVuSans-33" d="M 2597 2516 
Q 3050 2419 3304 2112 
Q 3559 1806 3559 1356 
Q 3559 666 3084 287 
Q 2609 -91 1734 -91 
Q 1441 -91 1130 -33 
Q 819 25 488 141 
L 488 750 
Q 750 597 1062 519 
Q 1375 441 1716 441 
Q 2309 441 2620 675 
Q 2931 909 2931 1356 
Q 2931 1769 2642 2001 
Q 2353 2234 1838 2234 
L 1294 2234 
L 1294 2753 
L 1863 2753 
Q 2328 2753 2575 2939 
Q 2822 3125 2822 3475 
Q 2822 3834 2567 4026 
Q 2313 4219 1838 4219 
Q 1578 4219 1281 4162 
Q 984 4106 628 3988 
L 628 4550 
Q 988 4650 1302 4700 
Q 1616 4750 1894 4750 
Q 2613 4750 3031 4423 
Q 3450 4097 3450 3541 
Q 3450 3153 3228 2886 
Q 3006 2619 2597 2516 
z
" transform="scale(0.015625)"/>
       </defs>
       <use xlink:href="#DejaVuSans-33"/>
       <use xlink:href="#DejaVuSans-30" transform="translate(63.623047 0)"/>
      </g>
     </g>
    </g>
    <g id="ytick_5">
     <g id="line2d_19">
      <path d="M 40.603125 123.756049 
L 705.233125 123.756049 
" clip-path="url(#pf0554f87f2)" style="fill: none; stroke: #b0b0b0; stroke-width: 0.8; stroke-linecap: square"/>
     </g>
     <g id="line2d_20">
      <g>
       <use xlink:href="#ma245dd7c87" x="40.603125" y="123.756049" style="stroke: #000000; stroke-width: 0.8"/>
      </g>
     </g>
     <g id="text_11">
      <!-- 40 -->
      <g transform="translate(20.878125 127.555268) scale(0.1 -0.1)">
       <defs>
        <path id="DejaVuSans-34" d="M 2419 4116 
L 825 1625 
L 2419 1625 
L 2419 4116 
z
M 2253 4666 
L 3047 4666 
L 3047 1625 
L 3713 1625 
L 3713 1100 
L 3047 1100 
L 3047 0 
L 2419 0 
L 2419 1100 
L 313 1100 
L 313 1709 
L 2253 4666 
z
" transform="scale(0.015625)"/>
       </defs>
       <use xlink:href="#DejaVuSans-34"/>
       <use xlink:href="#DejaVuSans-30" transform="translate(63.623047 0)"/>
      </g>
     </g>
    </g>
    <g id="ytick_6">
     <g id="line2d_21">
      <path d="M 40.603125 76.325531 
L 705.233125 76.325531 
" clip-path="url(#pf0554f87f2)" style="fill: none; stroke: #b0b0b0; stroke-width: 0.8; stroke-linecap: square"/>
     </g>
     <g id="line2d_22">
      <g>
       <use xlink:href="#ma245dd7c87" x="40.603125" y="76.325531" style="stroke: #000000; stroke-width: 0.8"/>
      </g>
     </g>
     <g id="text_12">
      <!-- 50 -->
      <g transform="translate(20.878125 80.124749) scale(0.1 -0.1)">
       <use xlink:href="#DejaVuSans-35"/>
       <use xlink:href="#DejaVuSans-30" transform="translate(63.623047 0)"/>
      </g>
     </g>
    </g>
    <g id="ytick_7">
     <g id="line2d_23">
      <path d="M 40.603125 28.895012 
L 705.233125 28.895012 
" clip-path="url(#pf0554f87f2)" style="fill: none; stroke: #b0b0b0; stroke-width: 0.8; stroke-linecap: square"/>
     </g>
     <g id="line2d_24">
      <g>
       <use xlink:href="#ma245dd7c87" x="40.603125" y="28.895012" style="stroke: #000000; stroke-width: 0.8"/>
      </g>
     </g>
     <g id="text_13">
      <!-- 60 -->
      <g transform="translate(20.878125 32.69423) scale(0.1 -0.1)">
       <defs>
        <path id="DejaVuSans-36" d="M 2113 2584 
Q 1688 2584 1439 2293 
Q 1191 2003 1191 1497 
Q 1191 994 1439 701 
Q 1688 409 2113 409 
Q 2538 409 2786 701 
Q 3034 994 3034 1497 
Q 3034 2003 2786 2293 
Q 2538 2584 2113 2584 
z
M 3366 4563 
L 3366 3988 
Q 3128 4100 2886 4159 
Q 2644 4219 2406 4219 
Q 1781 4219 1451 3797 
Q 1122 3375 1075 2522 
Q 1259 2794 1537 2939 
Q 1816 3084 2150 3084 
Q 2853 3084 3261 2657 
Q 3669 2231 3669 1497 
Q 3669 778 3244 343 
Q 2819 -91 2113 -91 
Q 1303 -91 875 529 
Q 447 1150 447 2328 
Q 447 3434 972 4092 
Q 1497 4750 2381 4750 
Q 2619 4750 2861 4703 
Q 3103 4656 3366 4563 
z
" transform="scale(0.015625)"/>
       </defs>
       <use xlink:href="#DejaVuSans-36"/>
       <use xlink:href="#DejaVuSans-30" transform="translate(63.623047 0)"/>
      </g>
     </g>
    </g>
    <g id="text_14">
     <!-- Density -->
     <g transform="translate(14.798438 186.906719) rotate(-90) scale(0.1 -0.1)">
      <defs>
       <path id="DejaVuSans-73" d="M 2834 3397 
L 2834 2853 
Q 2591 2978 2328 3040 
Q 2066 3103 1784 3103 
Q 1356 3103 1142 2972 
Q 928 2841 928 2578 
Q 928 2378 1081 2264 
Q 1234 2150 1697 2047 
L 1894 2003 
Q 2506 1872 2764 1633 
Q 3022 1394 3022 966 
Q 3022 478 2636 193 
Q 2250 -91 1575 -91 
Q 1294 -91 989 -36 
Q 684 19 347 128 
L 347 722 
Q 666 556 975 473 
Q 1284 391 1588 391 
Q 1994 391 2212 530 
Q 2431 669 2431 922 
Q 2431 1156 2273 1281 
Q 2116 1406 1581 1522 
L 1381 1569 
Q 847 1681 609 1914 
Q 372 2147 372 2553 
Q 372 3047 722 3315 
Q 1072 3584 1716 3584 
Q 2034 3584 2315 3537 
Q 2597 3491 2834 3397 
z
" transform="scale(0.015625)"/>
      </defs>
      <use xlink:href="#DejaVuSans-44"/>
      <use xlink:href="#DejaVuSans-65" transform="translate(77.001953 0)"/>
      <use xlink:href="#DejaVuSans-6e" transform="translate(138.525391 0)"/>
      <use xlink:href="#DejaVuSans-73" transform="translate(201.904297 0)"/>
      <use xlink:href="#DejaVuSans-69" transform="translate(254.003906 0)"/>
      <use xlink:href="#DejaVuSans-74" transform="translate(281.787109 0)"/>
      <use xlink:href="#DejaVuSans-79" transform="translate(320.996094 0)"/>
     </g>
    </g>
   </g>
   <g id="line2d_25">
    <path d="M 70.81358 313.478125 
L 240.416131 313.381994 
L 251.016291 313.168986 
L 258.587833 312.80862 
L 264.645067 312.280881 
L 269.187993 311.666197 
L 273.730918 310.786133 
L 276.759535 310.008863 
L 279.788152 309.043739 
L 282.816769 307.856487 
L 285.845386 306.409655 
L 288.874003 304.663151 
L 291.90262 302.575031 
L 294.931237 300.102577 
L 297.959854 297.20367 
L 300.988471 293.838443 
L 304.017088 289.971216 
L 307.045705 285.572632 
L 310.074322 280.621954 
L 313.102939 275.109406 
L 316.131556 269.038464 
L 319.160173 262.427946 
L 322.18879 255.313773 
L 325.217407 247.750248 
L 329.760333 235.728069 
L 337.331875 214.747622 
L 341.874801 202.304695 
L 344.903418 194.378936 
L 347.932035 186.931755 
L 350.960652 180.118713 
L 353.989269 174.088406 
L 355.503577 171.409987 
L 357.017886 168.977108 
L 358.532194 166.804038 
L 360.046503 164.903667 
L 361.560811 163.287373 
L 363.07512 161.964916 
L 364.589428 160.944329 
L 366.103737 160.231849 
L 367.618045 159.831843 
L 369.132354 159.74677 
L 370.646662 159.977155 
L 372.160971 160.521579 
L 373.675279 161.3767 
L 375.189588 162.537282 
L 376.703896 163.996251 
L 378.218205 165.744768 
L 379.732513 167.772314 
L 381.246822 170.066799 
L 382.76113 172.61468 
L 385.789747 178.410014 
L 388.818364 185.026253 
L 391.846981 192.317602 
L 394.875598 200.129845 
L 399.418524 212.481313 
L 410.018683 241.668897 
L 414.561609 253.316277 
L 417.590226 260.557722 
L 420.618843 267.308303 
L 423.64746 273.527245 
L 426.676077 279.191274 
L 429.704694 284.292975 
L 432.733311 288.838769 
L 435.761928 292.846669 
L 438.790545 296.343939 
L 441.819162 299.364773 
L 444.847779 301.948108 
L 447.876396 304.135631 
L 450.905013 305.970046 
L 453.93363 307.493625 
L 456.962247 308.747048 
L 459.990864 309.768541 
L 463.019481 310.593273 
L 467.562406 311.529927 
L 472.105332 312.186557 
L 476.648257 312.637552 
L 482.705491 313.017477 
L 490.277034 313.27073 
L 502.391502 313.426136 
L 529.649055 313.476695 
L 675.02267 313.478125 
L 675.02267 313.478125 
" clip-path="url(#pf0554f87f2)" style="fill: none; stroke: #d62728; stroke-width: 2; stroke-linecap: square"/>
   </g>
   <g id="patch_123">
    <path d="M 40.603125 313.478125 
L 40.603125 22.318125 
" style="fill: none; stroke: #000000; stroke-width: 0.8; stroke-linejoin: miter; stroke-linecap: square"/>
   </g>
   <g id="patch_124">
    <path d="M 705.233125 313.478125 
L 705.233125 22.318125 
" style="fill: none; stroke: #000000; stroke-width: 0.8; stroke-linejoin: miter; stroke-linecap: square"/>
   </g>
   <g id="patch_125">
    <path d="M 40.603125 313.478125 
L 705.233125 313.478125 
" style="fill: none; stroke: #000000; stroke-width: 0.8; stroke-linejoin: miter; stroke-linecap: square"/>
   </g>
   <g id="patch_126">
    <path d="M 40.603125 22.318125 
L 705.233125 22.318125 
" style="fill: none; stroke: #000000; stroke-width: 0.8; stroke-linejoin: miter; stroke-linecap: square"/>
   </g>
   <g id="text_15">
    <g id="patch_127">
     <path d="M 573.645788 61.752063 
L 685.294225 61.752063 
Q 689.294225 61.752063 689.294225 57.752063 
L 689.294225 36.876125 
Q 689.294225 32.876125 685.294225 32.876125 
L 573.645788 32.876125 
Q 569.645788 32.876125 569.645788 36.876125 
L 569.645788 57.752063 
Q 569.645788 61.752063 573.645788 61.752063 
z
" style="fill: #ffffff; stroke: #cccccc; stroke-linejoin: miter"/>
    </g>
    <!-- Skewness: -0.148 -->
    <g transform="translate(597.494225 44.474563) scale(0.1 -0.1)">
     <defs>
      <path id="DejaVuSans-53" d="M 3425 4513 
L 3425 3897 
Q 3066 4069 2747 4153 
Q 2428 4238 2131 4238 
Q 1616 4238 1336 4038 
Q 1056 3838 1056 3469 
Q 1056 3159 1242 3001 
Q 1428 2844 1947 2747 
L 2328 2669 
Q 3034 2534 3370 2195 
Q 3706 1856 3706 1288 
Q 3706 609 3251 259 
Q 2797 -91 1919 -91 
Q 1588 -91 1214 -16 
Q 841 59 441 206 
L 441 856 
Q 825 641 1194 531 
Q 1563 422 1919 422 
Q 2459 422 2753 634 
Q 3047 847 3047 1241 
Q 3047 1584 2836 1778 
Q 2625 1972 2144 2069 
L 1759 2144 
Q 1053 2284 737 2584 
Q 422 2884 422 3419 
Q 422 4038 858 4394 
Q 1294 4750 2059 4750 
Q 2388 4750 2728 4690 
Q 3069 4631 3425 4513 
z
" transform="scale(0.015625)"/>
      <path id="DejaVuSans-6b" d="M 581 4863 
L 1159 4863 
L 1159 1991 
L 2875 3500 
L 3609 3500 
L 1753 1863 
L 3688 0 
L 2938 0 
L 1159 1709 
L 1159 0 
L 581 0 
L 581 4863 
z
" transform="scale(0.015625)"/>
      <path id="DejaVuSans-77" d="M 269 3500 
L 844 3500 
L 1563 769 
L 2278 3500 
L 2956 3500 
L 3675 769 
L 4391 3500 
L 4966 3500 
L 4050 0 
L 3372 0 
L 2619 2869 
L 1863 0 
L 1184 0 
L 269 3500 
z
" transform="scale(0.015625)"/>
      <path id="DejaVuSans-3a" d="M 750 794 
L 1409 794 
L 1409 0 
L 750 0 
L 750 794 
z
M 750 3309 
L 1409 3309 
L 1409 2516 
L 750 2516 
L 750 3309 
z
" transform="scale(0.015625)"/>
      <path id="DejaVuSans-2d" d="M 313 2009 
L 1997 2009 
L 1997 1497 
L 313 1497 
L 313 2009 
z
" transform="scale(0.015625)"/>
      <path id="DejaVuSans-38" d="M 2034 2216 
Q 1584 2216 1326 1975 
Q 1069 1734 1069 1313 
Q 1069 891 1326 650 
Q 1584 409 2034 409 
Q 2484 409 2743 651 
Q 3003 894 3003 1313 
Q 3003 1734 2745 1975 
Q 2488 2216 2034 2216 
z
M 1403 2484 
Q 997 2584 770 2862 
Q 544 3141 544 3541 
Q 544 4100 942 4425 
Q 1341 4750 2034 4750 
Q 2731 4750 3128 4425 
Q 3525 4100 3525 3541 
Q 3525 3141 3298 2862 
Q 3072 2584 2669 2484 
Q 3125 2378 3379 2068 
Q 3634 1759 3634 1313 
Q 3634 634 3220 271 
Q 2806 -91 2034 -91 
Q 1263 -91 848 271 
Q 434 634 434 1313 
Q 434 1759 690 2068 
Q 947 2378 1403 2484 
z
M 1172 3481 
Q 1172 3119 1398 2916 
Q 1625 2713 2034 2713 
Q 2441 2713 2670 2916 
Q 2900 3119 2900 3481 
Q 2900 3844 2670 4047 
Q 2441 4250 2034 4250 
Q 1625 4250 1398 4047 
Q 1172 3844 1172 3481 
z
" transform="scale(0.015625)"/>
     </defs>
     <use xlink:href="#DejaVuSans-53"/>
     <use xlink:href="#DejaVuSans-6b" transform="translate(63.476562 0)"/>
     <use xlink:href="#DejaVuSans-65" transform="translate(117.761719 0)"/>
     <use xlink:href="#DejaVuSans-77" transform="translate(179.285156 0)"/>
     <use xlink:href="#DejaVuSans-6e" transform="translate(261.072266 0)"/>
     <use xlink:href="#DejaVuSans-65" transform="translate(324.451172 0)"/>
     <use xlink:href="#DejaVuSans-73" transform="translate(385.974609 0)"/>
     <use xlink:href="#DejaVuSans-73" transform="translate(438.074219 0)"/>
     <use xlink:href="#DejaVuSans-3a" transform="translate(490.173828 0)"/>
     <use xlink:href="#DejaVuSans-20" transform="translate(523.865234 0)"/>
     <use xlink:href="#DejaVuSans-2d" transform="translate(555.652344 0)"/>
     <use xlink:href="#DejaVuSans-30" transform="translate(591.736328 0)"/>
     <use xlink:href="#DejaVuSans-2e" transform="translate(655.359375 0)"/>
     <use xlink:href="#DejaVuSans-31" transform="translate(687.146484 0)"/>
     <use xlink:href="#DejaVuSans-34" transform="translate(750.769531 0)"/>
     <use xlink:href="#DejaVuSans-38" transform="translate(814.392578 0)"/>
    </g>
    <!-- Excess kurtosis: 8.987 -->
    <g transform="translate(573.645788 55.672375) scale(0.1 -0.1)">
     <defs>
      <path id="DejaVuSans-45" d="M 628 4666 
L 3578 4666 
L 3578 4134 
L 1259 4134 
L 1259 2753 
L 3481 2753 
L 3481 2222 
L 1259 2222 
L 1259 531 
L 3634 531 
L 3634 0 
L 628 0 
L 628 4666 
z
" transform="scale(0.015625)"/>
      <path id="DejaVuSans-78" d="M 3513 3500 
L 2247 1797 
L 3578 0 
L 2900 0 
L 1881 1375 
L 863 0 
L 184 0 
L 1544 1831 
L 300 3500 
L 978 3500 
L 1906 2253 
L 2834 3500 
L 3513 3500 
z
" transform="scale(0.015625)"/>
      <path id="DejaVuSans-63" d="M 3122 3366 
L 3122 2828 
Q 2878 2963 2633 3030 
Q 2388 3097 2138 3097 
Q 1578 3097 1268 2742 
Q 959 2388 959 1747 
Q 959 1106 1268 751 
Q 1578 397 2138 397 
Q 2388 397 2633 464 
Q 2878 531 3122 666 
L 3122 134 
Q 2881 22 2623 -34 
Q 2366 -91 2075 -91 
Q 1284 -91 818 406 
Q 353 903 353 1747 
Q 353 2603 823 3093 
Q 1294 3584 2113 3584 
Q 2378 3584 2631 3529 
Q 2884 3475 3122 3366 
z
" transform="scale(0.015625)"/>
      <path id="DejaVuSans-6f" d="M 1959 3097 
Q 1497 3097 1228 2736 
Q 959 2375 959 1747 
Q 959 1119 1226 758 
Q 1494 397 1959 397 
Q 2419 397 2687 759 
Q 2956 1122 2956 1747 
Q 2956 2369 2687 2733 
Q 2419 3097 1959 3097 
z
M 1959 3584 
Q 2709 3584 3137 3096 
Q 3566 2609 3566 1747 
Q 3566 888 3137 398 
Q 2709 -91 1959 -91 
Q 1206 -91 779 398 
Q 353 888 353 1747 
Q 353 2609 779 3096 
Q 1206 3584 1959 3584 
z
" transform="scale(0.015625)"/>
      <path id="DejaVuSans-39" d="M 703 97 
L 703 672 
Q 941 559 1184 500 
Q 1428 441 1663 441 
Q 2288 441 2617 861 
Q 2947 1281 2994 2138 
Q 2813 1869 2534 1725 
Q 2256 1581 1919 1581 
Q 1219 1581 811 2004 
Q 403 2428 403 3163 
Q 403 3881 828 4315 
Q 1253 4750 1959 4750 
Q 2769 4750 3195 4129 
Q 3622 3509 3622 2328 
Q 3622 1225 3098 567 
Q 2575 -91 1691 -91 
Q 1453 -91 1209 -44 
Q 966 3 703 97 
z
M 1959 2075 
Q 2384 2075 2632 2365 
Q 2881 2656 2881 3163 
Q 2881 3666 2632 3958 
Q 2384 4250 1959 4250 
Q 1534 4250 1286 3958 
Q 1038 3666 1038 3163 
Q 1038 2656 1286 2365 
Q 1534 2075 1959 2075 
z
" transform="scale(0.015625)"/>
      <path id="DejaVuSans-37" d="M 525 4666 
L 3525 4666 
L 3525 4397 
L 1831 0 
L 1172 0 
L 2766 4134 
L 525 4134 
L 525 4666 
z
" transform="scale(0.015625)"/>
     </defs>
     <use xlink:href="#DejaVuSans-45"/>
     <use xlink:href="#DejaVuSans-78" transform="translate(63.183594 0)"/>
     <use xlink:href="#DejaVuSans-63" transform="translate(120.613281 0)"/>
     <use xlink:href="#DejaVuSans-65" transform="translate(175.59375 0)"/>
     <use xlink:href="#DejaVuSans-73" transform="translate(237.117188 0)"/>
     <use xlink:href="#DejaVuSans-73" transform="translate(289.216797 0)"/>
     <use xlink:href="#DejaVuSans-20" transform="translate(341.316406 0)"/>
     <use xlink:href="#DejaVuSans-6b" transform="translate(373.103516 0)"/>
     <use xlink:href="#DejaVuSans-75" transform="translate(427.888672 0)"/>
     <use xlink:href="#DejaVuSans-72" transform="translate(491.267578 0)"/>
     <use xlink:href="#DejaVuSans-74" transform="translate(532.380859 0)"/>
     <use xlink:href="#DejaVuSans-6f" transform="translate(571.589844 0)"/>
     <use xlink:href="#DejaVuSans-73" transform="translate(632.771484 0)"/>
     <use xlink:href="#DejaVuSans-69" transform="translate(684.871094 0)"/>
     <use xlink:href="#DejaVuSans-73" transform="translate(712.654297 0)"/>
     <use xlink:href="#DejaVuSans-3a" transform="translate(764.753906 0)"/>
     <use xlink:href="#DejaVuSans-20" transform="translate(798.445312 0)"/>
     <use xlink:href="#DejaVuSans-38" transform="translate(830.232422 0)"/>
     <use xlink:href="#DejaVuSans-2e" transform="translate(893.855469 0)"/>
     <use xlink:href="#DejaVuSans-39" transform="translate(925.642578 0)"/>
     <use xlink:href="#DejaVuSans-38" transform="translate(989.265625 0)"/>
     <use xlink:href="#DejaVuSans-37" transform="translate(1052.888672 0)"/>
    </g>
   </g>
   <g id="text_16">
    <!-- SPY Daily Return Distribution -->
    <g transform="translate(286.146875 16.318125) scale(0.12 -0.12)">
     <defs>
      <path id="DejaVuSans-50" d="M 1259 4147 
L 1259 2394 
L 2053 2394 
Q 2494 2394 2734 2622 
Q 2975 2850 2975 3272 
Q 2975 3691 2734 3919 
Q 2494 4147 2053 4147 
L 1259 4147 
z
M 628 4666 
L 2053 4666 
Q 2838 4666 3239 4311 
Q 3641 3956 3641 3272 
Q 3641 2581 3239 2228 
Q 2838 1875 2053 1875 
L 1259 1875 
L 1259 0 
L 628 0 
L 628 4666 
z
" transform="scale(0.015625)"/>
      <path id="DejaVuSans-59" d="M -13 4666 
L 666 4666 
L 1959 2747 
L 3244 4666 
L 3922 4666 
L 2272 2222 
L 2272 0 
L 1638 0 
L 1638 2222 
L -13 4666 
z
" transform="scale(0.015625)"/>
      <path id="DejaVuSans-62" d="M 3116 1747 
Q 3116 2381 2855 2742 
Q 2594 3103 2138 3103 
Q 1681 3103 1420 2742 
Q 1159 2381 1159 1747 
Q 1159 1113 1420 752 
Q 1681 391 2138 391 
Q 2594 391 2855 752 
Q 3116 1113 3116 1747 
z
M 1159 2969 
Q 1341 3281 1617 3432 
Q 1894 3584 2278 3584 
Q 2916 3584 3314 3078 
Q 3713 2572 3713 1747 
Q 3713 922 3314 415 
Q 2916 -91 2278 -91 
Q 1894 -91 1617 61 
Q 1341 213 1159 525 
L 1159 0 
L 581 0 
L 581 4863 
L 1159 4863 
L 1159 2969 
z
" transform="scale(0.015625)"/>
     </defs>
     <use xlink:href="#DejaVuSans-53"/>
     <use xlink:href="#DejaVuSans-50" transform="translate(63.476562 0)"/>
     <use xlink:href="#DejaVuSans-59" transform="translate(121.529297 0)"/>
     <use xlink:href="#DejaVuSans-20" transform="translate(182.613281 0)"/>
     <use xlink:href="#DejaVuSans-44" transform="translate(214.400391 0)"/>
     <use xlink:href="#DejaVuSans-61" transform="translate(291.402344 0)"/>
     <use xlink:href="#DejaVuSans-69" transform="translate(352.681641 0)"/>
     <use xlink:href="#DejaVuSans-6c" transform="translate(380.464844 0)"/>
     <use xlink:href="#DejaVuSans-79" transform="translate(408.248047 0)"/>
     <use xlink:href="#DejaVuSans-20" transform="translate(467.427734 0)"/>
     <use xlink:href="#DejaVuSans-52" transform="translate(499.214844 0)"/>
     <use xlink:href="#DejaVuSans-65" transform="translate(564.197266 0)"/>
     <use xlink:href="#DejaVuSans-74" transform="translate(625.720703 0)"/>
     <use xlink:href="#DejaVuSans-75" transform="translate(664.929688 0)"/>
     <use xlink:href="#DejaVuSans-72" transform="translate(728.308594 0)"/>
     <use xlink:href="#DejaVuSans-6e" transform="translate(767.671875 0)"/>
     <use xlink:href="#DejaVuSans-20" transform="translate(831.050781 0)"/>
     <use xlink:href="#DejaVuSans-44" transform="translate(862.837891 0)"/>
     <use xlink:href="#DejaVuSans-69" transform="translate(939.839844 0)"/>
     <use xlink:href="#DejaVuSans-73" transform="translate(967.623047 0)"/>
     <use xlink:href="#DejaVuSans-74" transform="translate(1019.722656 0)"/>
     <use xlink:href="#DejaVuSans-72" transform="translate(1058.931641 0)"/>
     <use xlink:href="#DejaVuSans-69" transform="translate(1100.044922 0)"/>
     <use xlink:href="#DejaVuSans-62" transform="translate(1127.828125 0)"/>
     <use xlink:href="#DejaVuSans-75" transform="translate(1191.304688 0)"/>
     <use xlink:href="#DejaVuSans-74" transform="translate(1254.683594 0)"/>
     <use xlink:href="#DejaVuSans-69" transform="translate(1293.892578 0)"/>
     <use xlink:href="#DejaVuSans-6f" transform="translate(1321.675781 0)"/>
     <use xlink:href="#DejaVuSans-6e" transform="translate(1382.857422 0)"/>
    </g>
   </g>
   <g id="axes_2">
    <g id="patch_128">
     <path d="M 452.673725 240.688125 
L 685.294225 240.688125 
L 685.294225 106.754525 
L 452.673725 106.754525 
z
" style="fill: #ffffff"/>
    </g>
    <g id="patch_129">
     <path d="M 463.473787 240.688125 
L 474.036126 240.688125 
L 474.036126 113.132315 
L 463.473787 113.132315 
z
" clip-path="url(#pb086648f60)" style="fill: #1f77b4; opacity: 0.65"/>
    </g>
    <g id="patch_130">
     <path d="M 474.036126 240.688125 
L 484.598465 240.688125 
L 484.598465 131.354574 
L 474.036126 131.354574 
z
" clip-path="url(#pb086648f60)" style="fill: #1f77b4; opacity: 0.65"/>
    </g>
    <g id="patch_131">
     <path d="M 484.598465 240.688125 
L 495.160804 240.688125 
L 495.160804 164.154639 
L 484.598465 164.154639 
z
" clip-path="url(#pb086648f60)" style="fill: #1f77b4; opacity: 0.65"/>
    </g>
    <g id="patch_132">
     <path d="M 495.160804 240.688125 
L 505.723143 240.688125 
L 505.723143 196.954705 
L 495.160804 196.954705 
z
" clip-path="url(#pb086648f60)" style="fill: #1f77b4; opacity: 0.65"/>
    </g>
    <g id="patch_133">
     <path d="M 505.723143 240.688125 
L 516.285482 240.688125 
L 516.285482 207.88806 
L 505.723143 207.88806 
z
" clip-path="url(#pb086648f60)" style="fill: #1f77b4; opacity: 0.65"/>
    </g>
    <g id="patch_134">
     <path d="M 516.285482 240.688125 
L 526.847821 240.688125 
L 526.847821 226.110318 
L 516.285482 226.110318 
z
" clip-path="url(#pb086648f60)" style="fill: #1f77b4; opacity: 0.65"/>
    </g>
    <g id="patch_135">
     <path d="M 526.847821 240.688125 
L 537.41016 240.688125 
L 537.41016 226.110318 
L 526.847821 226.110318 
z
" clip-path="url(#pb086648f60)" style="fill: #1f77b4; opacity: 0.65"/>
    </g>
    <g id="patch_136">
     <path d="M 537.41016 240.688125 
L 547.972499 240.688125 
L 547.972499 222.465866 
L 537.41016 222.465866 
z
" clip-path="url(#pb086648f60)" style="fill: #1f77b4; opacity: 0.65"/>
    </g>
    <g id="patch_137">
     <path d="M 547.972499 240.688125 
L 558.534838 240.688125 
L 558.534838 237.043673 
L 547.972499 237.043673 
z
" clip-path="url(#pb086648f60)" style="fill: #1f77b4; opacity: 0.65"/>
    </g>
    <g id="patch_138">
     <path d="M 558.534838 240.688125 
L 569.097177 240.688125 
L 569.097177 237.043673 
L 558.534838 237.043673 
z
" clip-path="url(#pb086648f60)" style="fill: #1f77b4; opacity: 0.65"/>
    </g>
    <g id="patch_139">
     <path d="M 569.097177 240.688125 
L 579.659515 240.688125 
L 579.659515 237.043673 
L 569.097177 237.043673 
z
" clip-path="url(#pb086648f60)" style="fill: #1f77b4; opacity: 0.65"/>
    </g>
    <g id="patch_140">
     <path d="M 579.659515 240.688125 
L 590.221854 240.688125 
L 590.221854 240.688125 
L 579.659515 240.688125 
z
" clip-path="url(#pb086648f60)" style="fill: #1f77b4; opacity: 0.65"/>
    </g>
    <g id="patch_141">
     <path d="M 590.221854 240.688125 
L 600.784193 240.688125 
L 600.784193 240.688125 
L 590.221854 240.688125 
z
" clip-path="url(#pb086648f60)" style="fill: #1f77b4; opacity: 0.65"/>
    </g>
    <g id="patch_142">
     <path d="M 600.784193 240.688125 
L 611.346532 240.688125 
L 611.346532 237.043673 
L 600.784193 237.043673 
z
" clip-path="url(#pb086648f60)" style="fill: #1f77b4; opacity: 0.65"/>
    </g>
    <g id="patch_143">
     <path d="M 611.346532 240.688125 
L 621.908871 240.688125 
L 621.908871 237.043673 
L 611.346532 237.043673 
z
" clip-path="url(#pb086648f60)" style="fill: #1f77b4; opacity: 0.65"/>
    </g>
    <g id="patch_144">
     <path d="M 621.908871 240.688125 
L 632.47121 240.688125 
L 632.47121 240.688125 
L 621.908871 240.688125 
z
" clip-path="url(#pb086648f60)" style="fill: #1f77b4; opacity: 0.65"/>
    </g>
    <g id="patch_145">
     <path d="M 632.47121 240.688125 
L 643.033549 240.688125 
L 643.033549 240.688125 
L 632.47121 240.688125 
z
" clip-path="url(#pb086648f60)" style="fill: #1f77b4; opacity: 0.65"/>
    </g>
    <g id="patch_146">
     <path d="M 643.033549 240.688125 
L 653.595888 240.688125 
L 653.595888 240.688125 
L 643.033549 240.688125 
z
" clip-path="url(#pb086648f60)" style="fill: #1f77b4; opacity: 0.65"/>
    </g>
    <g id="patch_147">
     <path d="M 653.595888 240.688125 
L 664.158227 240.688125 
L 664.158227 237.043673 
L 653.595888 237.043673 
z
" clip-path="url(#pb086648f60)" style="fill: #1f77b4; opacity: 0.65"/>
    </g>
    <g id="patch_148">
     <path d="M 664.158227 240.688125 
L 674.720566 240.688125 
L 674.720566 237.043673 
L 664.158227 237.043673 
z
" clip-path="url(#pb086648f60)" style="fill: #1f77b4; opacity: 0.65"/>
    </g>
    <g id="matplotlib.axis_3">
     <g id="xtick_6">
      <g id="line2d_26">
       <path d="M 499.388638 240.688125 
L 499.388638 106.754525 
" clip-path="url(#pb086648f60)" style="fill: none; stroke: #b0b0b0; stroke-width: 0.8; stroke-linecap: square"/>
      </g>
      <g id="line2d_27">
       <g>
        <use xlink:href="#m7df53c8c3b" x="499.388638" y="240.688125" style="stroke: #000000; stroke-width: 0.8"/>
       </g>
      </g>
      <g id="text_17">
       <!-- 0.04 -->
       <g transform="translate(491.595669 253.007031) scale(0.07 -0.07)">
        <use xlink:href="#DejaVuSans-30"/>
        <use xlink:href="#DejaVuSans-2e" transform="translate(63.623047 0)"/>
        <use xlink:href="#DejaVuSans-30" transform="translate(95.410156 0)"/>
        <use xlink:href="#DejaVuSans-34" transform="translate(159.033203 0)"/>
       </g>
      </g>
     </g>
     <g id="xtick_7">
      <g id="line2d_28">
       <path d="M 547.358308 240.688125 
L 547.358308 106.754525 
" clip-path="url(#pb086648f60)" style="fill: none; stroke: #b0b0b0; stroke-width: 0.8; stroke-linecap: square"/>
      </g>
      <g id="line2d_29">
       <g>
        <use xlink:href="#m7df53c8c3b" x="547.358308" y="240.688125" style="stroke: #000000; stroke-width: 0.8"/>
       </g>
      </g>
      <g id="text_18">
       <!-- 0.06 -->
       <g transform="translate(539.565339 253.007031) scale(0.07 -0.07)">
        <use xlink:href="#DejaVuSans-30"/>
        <use xlink:href="#DejaVuSans-2e" transform="translate(63.623047 0)"/>
        <use xlink:href="#DejaVuSans-30" transform="translate(95.410156 0)"/>
        <use xlink:href="#DejaVuSans-36" transform="translate(159.033203 0)"/>
       </g>
      </g>
     </g>
     <g id="xtick_8">
      <g id="line2d_30">
       <path d="M 595.327978 240.688125 
L 595.327978 106.754525 
" clip-path="url(#pb086648f60)" style="fill: none; stroke: #b0b0b0; stroke-width: 0.8; stroke-linecap: square"/>
      </g>
      <g id="line2d_31">
       <g>
        <use xlink:href="#m7df53c8c3b" x="595.327978" y="240.688125" style="stroke: #000000; stroke-width: 0.8"/>
       </g>
      </g>
      <g id="text_19">
       <!-- 0.08 -->
       <g transform="translate(587.535009 253.007031) scale(0.07 -0.07)">
        <use xlink:href="#DejaVuSans-30"/>
        <use xlink:href="#DejaVuSans-2e" transform="translate(63.623047 0)"/>
        <use xlink:href="#DejaVuSans-30" transform="translate(95.410156 0)"/>
        <use xlink:href="#DejaVuSans-38" transform="translate(159.033203 0)"/>
       </g>
      </g>
     </g>
     <g id="xtick_9">
      <g id="line2d_32">
       <path d="M 643.297648 240.688125 
L 643.297648 106.754525 
" clip-path="url(#pb086648f60)" style="fill: none; stroke: #b0b0b0; stroke-width: 0.8; stroke-linecap: square"/>
      </g>
      <g id="line2d_33">
       <g>
        <use xlink:href="#m7df53c8c3b" x="643.297648" y="240.688125" style="stroke: #000000; stroke-width: 0.8"/>
       </g>
      </g>
      <g id="text_20">
       <!-- 0.10 -->
       <g transform="translate(635.504679 253.007031) scale(0.07 -0.07)">
        <use xlink:href="#DejaVuSans-30"/>
        <use xlink:href="#DejaVuSans-2e" transform="translate(63.623047 0)"/>
        <use xlink:href="#DejaVuSans-31" transform="translate(95.410156 0)"/>
        <use xlink:href="#DejaVuSans-30" transform="translate(159.033203 0)"/>
       </g>
      </g>
     </g>
     <g id="text_21">
      <!-- Daily return -->
      <g transform="translate(548.315928 261.781719) scale(0.07 -0.07)">
       <use xlink:href="#DejaVuSans-44"/>
       <use xlink:href="#DejaVuSans-61" transform="translate(77.001953 0)"/>
       <use xlink:href="#DejaVuSans-69" transform="translate(138.28125 0)"/>
       <use xlink:href="#DejaVuSans-6c" transform="translate(166.064453 0)"/>
       <use xlink:href="#DejaVuSans-79" transform="translate(193.847656 0)"/>
       <use xlink:href="#DejaVuSans-20" transform="translate(253.027344 0)"/>
       <use xlink:href="#DejaVuSans-72" transform="translate(284.814453 0)"/>
       <use xlink:href="#DejaVuSans-65" transform="translate(323.677734 0)"/>
       <use xlink:href="#DejaVuSans-74" transform="translate(385.201172 0)"/>
       <use xlink:href="#DejaVuSans-75" transform="translate(424.410156 0)"/>
       <use xlink:href="#DejaVuSans-72" transform="translate(487.789062 0)"/>
       <use xlink:href="#DejaVuSans-6e" transform="translate(527.152344 0)"/>
      </g>
     </g>
    </g>
    <g id="matplotlib.axis_4">
     <g id="ytick_8">
      <g id="line2d_34">
       <path d="M 452.673725 240.688125 
L 685.294225 240.688125 
" clip-path="url(#pb086648f60)" style="fill: none; stroke: #b0b0b0; stroke-width: 0.8; stroke-linecap: square"/>
      </g>
      <g id="line2d_35">
       <g>
        <use xlink:href="#ma245dd7c87" x="452.673725" y="240.688125" style="stroke: #000000; stroke-width: 0.8"/>
       </g>
      </g>
      <g id="text_22">
       <!-- 0 -->
       <g transform="translate(441.219975 243.347578) scale(0.07 -0.07)">
        <use xlink:href="#DejaVuSans-30"/>
       </g>
      </g>
     </g>
     <g id="ytick_9">
      <g id="line2d_36">
       <path d="M 452.673725 220.305539 
L 685.294225 220.305539 
" clip-path="url(#pb086648f60)" style="fill: none; stroke: #b0b0b0; stroke-width: 0.8; stroke-linecap: square"/>
      </g>
      <g id="line2d_37">
       <g>
        <use xlink:href="#ma245dd7c87" x="452.673725" y="220.305539" style="stroke: #000000; stroke-width: 0.8"/>
       </g>
      </g>
      <g id="text_23">
       <!-- 1 -->
       <g transform="translate(441.219975 222.964992) scale(0.07 -0.07)">
        <use xlink:href="#DejaVuSans-31"/>
       </g>
      </g>
     </g>
     <g id="ytick_10">
      <g id="line2d_38">
       <path d="M 452.673725 199.922953 
L 685.294225 199.922953 
" clip-path="url(#pb086648f60)" style="fill: none; stroke: #b0b0b0; stroke-width: 0.8; stroke-linecap: square"/>
      </g>
      <g id="line2d_39">
       <g>
        <use xlink:href="#ma245dd7c87" x="452.673725" y="199.922953" style="stroke: #000000; stroke-width: 0.8"/>
       </g>
      </g>
      <g id="text_24">
       <!-- 2 -->
       <g transform="translate(441.219975 202.582406) scale(0.07 -0.07)">
        <use xlink:href="#DejaVuSans-32"/>
       </g>
      </g>
     </g>
     <g id="ytick_11">
      <g id="line2d_40">
       <path d="M 452.673725 179.540367 
L 685.294225 179.540367 
" clip-path="url(#pb086648f60)" style="fill: none; stroke: #b0b0b0; stroke-width: 0.8; stroke-linecap: square"/>
      </g>
      <g id="line2d_41">
       <g>
        <use xlink:href="#ma245dd7c87" x="452.673725" y="179.540367" style="stroke: #000000; stroke-width: 0.8"/>
       </g>
      </g>
      <g id="text_25">
       <!-- 3 -->
       <g transform="translate(441.219975 182.19982) scale(0.07 -0.07)">
        <use xlink:href="#DejaVuSans-33"/>
       </g>
      </g>
     </g>
     <g id="ytick_12">
      <g id="line2d_42">
       <path d="M 452.673725 159.157781 
L 685.294225 159.157781 
" clip-path="url(#pb086648f60)" style="fill: none; stroke: #b0b0b0; stroke-width: 0.8; stroke-linecap: square"/>
      </g>
      <g id="line2d_43">
       <g>
        <use xlink:href="#ma245dd7c87" x="452.673725" y="159.157781" style="stroke: #000000; stroke-width: 0.8"/>
       </g>
      </g>
      <g id="text_26">
       <!-- 4 -->
       <g transform="translate(441.219975 161.817234) scale(0.07 -0.07)">
        <use xlink:href="#DejaVuSans-34"/>
       </g>
      </g>
     </g>
     <g id="ytick_13">
      <g id="line2d_44">
       <path d="M 452.673725 138.775195 
L 685.294225 138.775195 
" clip-path="url(#pb086648f60)" style="fill: none; stroke: #b0b0b0; stroke-width: 0.8; stroke-linecap: square"/>
      </g>
      <g id="line2d_45">
       <g>
        <use xlink:href="#ma245dd7c87" x="452.673725" y="138.775195" style="stroke: #000000; stroke-width: 0.8"/>
       </g>
      </g>
      <g id="text_27">
       <!-- 5 -->
       <g transform="translate(441.219975 141.434648) scale(0.07 -0.07)">
        <use xlink:href="#DejaVuSans-35"/>
       </g>
      </g>
     </g>
     <g id="ytick_14">
      <g id="line2d_46">
       <path d="M 452.673725 118.392609 
L 685.294225 118.392609 
" clip-path="url(#pb086648f60)" style="fill: none; stroke: #b0b0b0; stroke-width: 0.8; stroke-linecap: square"/>
      </g>
      <g id="line2d_47">
       <g>
        <use xlink:href="#ma245dd7c87" x="452.673725" y="118.392609" style="stroke: #000000; stroke-width: 0.8"/>
       </g>
      </g>
      <g id="text_28">
       <!-- 6 -->
       <g transform="translate(441.219975 121.052062) scale(0.07 -0.07)">
        <use xlink:href="#DejaVuSans-36"/>
       </g>
      </g>
     </g>
     <g id="text_29">
      <!-- Density -->
      <g transform="translate(437.764194 187.027341) rotate(-90) scale(0.07 -0.07)">
       <use xlink:href="#DejaVuSans-44"/>
       <use xlink:href="#DejaVuSans-65" transform="translate(77.001953 0)"/>
       <use xlink:href="#DejaVuSans-6e" transform="translate(138.525391 0)"/>
       <use xlink:href="#DejaVuSans-73" transform="translate(201.904297 0)"/>
       <use xlink:href="#DejaVuSans-69" transform="translate(254.003906 0)"/>
       <use xlink:href="#DejaVuSans-74" transform="translate(281.787109 0)"/>
       <use xlink:href="#DejaVuSans-79" transform="translate(320.996094 0)"/>
      </g>
     </g>
     <g id="text_30">
      <!-- 1e1 -->
      <g transform="translate(452.673725 103.754525) scale(0.1 -0.1)">
       <use xlink:href="#DejaVuSans-31"/>
       <use xlink:href="#DejaVuSans-65" transform="translate(63.623047 0)"/>
       <use xlink:href="#DejaVuSans-31" transform="translate(125.146484 0)"/>
      </g>
     </g>
    </g>
    <g id="line2d_48">
     <path d="M 463.247384 231.746868 
L 466.076457 233.340234 
L 468.905529 234.704862 
L 471.734602 235.860597 
L 475.270943 237.043952 
L 478.807284 237.976431 
L 482.343625 238.699055 
L 486.587234 239.342529 
L 491.538111 239.857229 
L 497.196256 240.225412 
L 504.976206 240.493281 
L 516.999765 240.643473 
L 544.583223 240.687313 
L 674.720566 240.688125 
L 674.720566 240.688125 
" clip-path="url(#pb086648f60)" style="fill: none; stroke: #d62728; stroke-width: 1.5; stroke-linecap: square"/>
    </g>
    <g id="patch_149">
     <path d="M 452.673725 240.688125 
L 452.673725 106.754525 
" style="fill: none; stroke: #000000; stroke-width: 0.8; stroke-linejoin: miter; stroke-linecap: square"/>
    </g>
    <g id="patch_150">
     <path d="M 685.294225 240.688125 
L 685.294225 106.754525 
" style="fill: none; stroke: #000000; stroke-width: 0.8; stroke-linejoin: miter; stroke-linecap: square"/>
    </g>
    <g id="patch_151">
     <path d="M 452.673725 240.688125 
L 685.294225 240.688125 
" style="fill: none; stroke: #000000; stroke-width: 0.8; stroke-linejoin: miter; stroke-linecap: square"/>
    </g>
    <g id="patch_152">
     <path d="M 452.673725 106.754525 
L 685.294225 106.754525 
" style="fill: none; stroke: #000000; stroke-width: 0.8; stroke-linejoin: miter; stroke-linecap: square"/>
    </g>
    <g id="text_31">
     <!-- Tail detail (|r| &gt; 2σ) -->
     <g transform="translate(530.3071 103.754525) scale(0.08 -0.08)">
      <defs>
       <path id="DejaVuSans-54" d="M -19 4666 
L 3928 4666 
L 3928 4134 
L 2272 4134 
L 2272 0 
L 1638 0 
L 1638 4134 
L -19 4134 
L -19 4666 
z
" transform="scale(0.015625)"/>
       <path id="DejaVuSans-64" d="M 2906 2969 
L 2906 4863 
L 3481 4863 
L 3481 0 
L 2906 0 
L 2906 525 
Q 2725 213 2448 61 
Q 2172 -91 1784 -91 
Q 1150 -91 751 415 
Q 353 922 353 1747 
Q 353 2572 751 3078 
Q 1150 3584 1784 3584 
Q 2172 3584 2448 3432 
Q 2725 3281 2906 2969 
z
M 947 1747 
Q 947 1113 1208 752 
Q 1469 391 1925 391 
Q 2381 391 2643 752 
Q 2906 1113 2906 1747 
Q 2906 2381 2643 2742 
Q 2381 3103 1925 3103 
Q 1469 3103 1208 2742 
Q 947 2381 947 1747 
z
" transform="scale(0.015625)"/>
       <path id="DejaVuSans-28" d="M 1984 4856 
Q 1566 4138 1362 3434 
Q 1159 2731 1159 2009 
Q 1159 1288 1364 580 
Q 1569 -128 1984 -844 
L 1484 -844 
Q 1016 -109 783 600 
Q 550 1309 550 2009 
Q 550 2706 781 3412 
Q 1013 4119 1484 4856 
L 1984 4856 
z
" transform="scale(0.015625)"/>
       <path id="DejaVuSans-7c" d="M 1344 4891 
L 1344 -1509 
L 813 -1509 
L 813 4891 
L 1344 4891 
z
" transform="scale(0.015625)"/>
       <path id="DejaVuSans-3e" d="M 678 3150 
L 678 3719 
L 4684 2266 
L 4684 1747 
L 678 294 
L 678 863 
L 3897 2003 
L 678 3150 
z
" transform="scale(0.015625)"/>
       <path id="DejaVuSans-3c3" d="M 1959 3044 
Q 1484 3044 1228 2700 
Q 959 2341 959 1747 
Q 959 1119 1226 758 
Q 1494 397 1959 397 
Q 2419 397 2687 759 
Q 2956 1122 2956 1747 
Q 2956 2319 2688 2700 
Q 2441 3044 1959 3044 
z
M 1959 3500 
L 3869 3500 
L 3869 2925 
L 3225 2925 
Q 3566 2438 3566 1747 
Q 3566 888 3138 400 
Q 2709 -91 1959 -91 
Q 1206 -91 781 400 
Q 353 888 353 1747 
Q 353 2613 781 3097 
Q 1134 3500 1959 3500 
z
" transform="scale(0.015625)"/>
       <path id="DejaVuSans-29" d="M 513 4856 
L 1013 4856 
Q 1481 4119 1714 3412 
Q 1947 2706 1947 2009 
Q 1947 1309 1714 600 
Q 1481 -109 1013 -844 
L 513 -844 
Q 928 -128 1133 580 
Q 1338 1288 1338 2009 
Q 1338 2731 1133 3434 
Q 928 4138 513 4856 
z
" transform="scale(0.015625)"/>
      </defs>
      <use xlink:href="#DejaVuSans-54"/>
      <use xlink:href="#DejaVuSans-61" transform="translate(44.583984 0)"/>
      <use xlink:href="#DejaVuSans-69" transform="translate(105.863281 0)"/>
      <use xlink:href="#DejaVuSans-6c" transform="translate(133.646484 0)"/>
      <use xlink:href="#DejaVuSans-20" transform="translate(161.429688 0)"/>
      <use xlink:href="#DejaVuSans-64" transform="translate(193.216797 0)"/>
      <use xlink:href="#DejaVuSans-65" transform="translate(256.693359 0)"/>
      <use xlink:href="#DejaVuSans-74" transform="translate(318.216797 0)"/>
      <use xlink:href="#DejaVuSans-61" transform="translate(357.425781 0)"/>
      <use xlink:href="#DejaVuSans-69" transform="translate(418.705078 0)"/>
      <use xlink:href="#DejaVuSans-6c" transform="translate(446.488281 0)"/>
      <use xlink:href="#DejaVuSans-20" transform="translate(474.271484 0)"/>
      <use xlink:href="#DejaVuSans-28" transform="translate(506.058594 0)"/>
      <use xlink:href="#DejaVuSans-7c" transform="translate(545.072266 0)"/>
      <use xlink:href="#DejaVuSans-72" transform="translate(578.763672 0)"/>
      <use xlink:href="#DejaVuSans-7c" transform="translate(619.876953 0)"/>
      <use xlink:href="#DejaVuSans-20" transform="translate(653.568359 0)"/>
      <use xlink:href="#DejaVuSans-3e" transform="translate(685.355469 0)"/>
      <use xlink:href="#DejaVuSans-20" transform="translate(769.144531 0)"/>
      <use xlink:href="#DejaVuSans-32" transform="translate(800.931641 0)"/>
      <use xlink:href="#DejaVuSans-3c3" transform="translate(864.554688 0)"/>
      <use xlink:href="#DejaVuSans-29" transform="translate(927.933594 0)"/>
     </g>
    </g>
   </g>
   <g id="legend_1">
    <g id="patch_153">
     <path d="M 47.603125 59.674375 
L 165.040625 59.674375 
Q 167.040625 59.674375 167.040625 57.674375 
L 167.040625 29.318125 
Q 167.040625 27.318125 165.040625 27.318125 
L 47.603125 27.318125 
Q 45.603125 27.318125 45.603125 29.318125 
L 45.603125 57.674375 
Q 45.603125 59.674375 47.603125 59.674375 
z
" style="fill: #ffffff; opacity: 0.8; stroke: #cccccc; stroke-linejoin: miter"/>
    </g>
    <g id="patch_154">
     <path d="M 49.603125 38.916562 
L 69.603125 38.916562 
L 69.603125 31.916562 
L 49.603125 31.916562 
z
" style="fill: #1f77b4; opacity: 0.65"/>
    </g>
    <g id="text_32">
     <!-- Empirical returns -->
     <g transform="translate(77.603125 38.916562) scale(0.1 -0.1)">
      <defs>
       <path id="DejaVuSans-6d" d="M 3328 2828 
Q 3544 3216 3844 3400 
Q 4144 3584 4550 3584 
Q 5097 3584 5394 3201 
Q 5691 2819 5691 2113 
L 5691 0 
L 5113 0 
L 5113 2094 
Q 5113 2597 4934 2840 
Q 4756 3084 4391 3084 
Q 3944 3084 3684 2787 
Q 3425 2491 3425 1978 
L 3425 0 
L 2847 0 
L 2847 2094 
Q 2847 2600 2669 2842 
Q 2491 3084 2119 3084 
Q 1678 3084 1418 2786 
Q 1159 2488 1159 1978 
L 1159 0 
L 581 0 
L 581 3500 
L 1159 3500 
L 1159 2956 
Q 1356 3278 1631 3431 
Q 1906 3584 2284 3584 
Q 2666 3584 2933 3390 
Q 3200 3197 3328 2828 
z
" transform="scale(0.015625)"/>
       <path id="DejaVuSans-70" d="M 1159 525 
L 1159 -1331 
L 581 -1331 
L 581 3500 
L 1159 3500 
L 1159 2969 
Q 1341 3281 1617 3432 
Q 1894 3584 2278 3584 
Q 2916 3584 3314 3078 
Q 3713 2572 3713 1747 
Q 3713 922 3314 415 
Q 2916 -91 2278 -91 
Q 1894 -91 1617 61 
Q 1341 213 1159 525 
z
M 3116 1747 
Q 3116 2381 2855 2742 
Q 2594 3103 2138 3103 
Q 1681 3103 1420 2742 
Q 1159 2381 1159 1747 
Q 1159 1113 1420 752 
Q 1681 391 2138 391 
Q 2594 391 2855 752 
Q 3116 1113 3116 1747 
z
" transform="scale(0.015625)"/>
      </defs>
      <use xlink:href="#DejaVuSans-45"/>
      <use xlink:href="#DejaVuSans-6d" transform="translate(63.183594 0)"/>
      <use xlink:href="#DejaVuSans-70" transform="translate(160.595703 0)"/>
      <use xlink:href="#DejaVuSans-69" transform="translate(224.072266 0)"/>
      <use xlink:href="#DejaVuSans-72" transform="translate(251.855469 0)"/>
      <use xlink:href="#DejaVuSans-69" transform="translate(292.96875 0)"/>
      <use xlink:href="#DejaVuSans-63" transform="translate(320.751953 0)"/>
      <use xlink:href="#DejaVuSans-61" transform="translate(375.732422 0)"/>
      <use xlink:href="#DejaVuSans-6c" transform="translate(437.011719 0)"/>
      <use xlink:href="#DejaVuSans-20" transform="translate(464.794922 0)"/>
      <use xlink:href="#DejaVuSans-72" transform="translate(496.582031 0)"/>
      <use xlink:href="#DejaVuSans-65" transform="translate(535.445312 0)"/>
      <use xlink:href="#DejaVuSans-74" transform="translate(596.96875 0)"/>
      <use xlink:href="#DejaVuSans-75" transform="translate(636.177734 0)"/>
      <use xlink:href="#DejaVuSans-72" transform="translate(699.556641 0)"/>
      <use xlink:href="#DejaVuSans-6e" transform="translate(738.919922 0)"/>
      <use xlink:href="#DejaVuSans-73" transform="translate(802.298828 0)"/>
     </g>
    </g>
    <g id="line2d_49">
     <path d="M 49.603125 50.094688 
L 59.603125 50.094688 
L 69.603125 50.094688 
" style="fill: none; stroke: #d62728; stroke-width: 2; stroke-linecap: square"/>
    </g>
    <g id="text_33">
     <!-- Normal fit -->
     <g transform="translate(77.603125 53.594688) scale(0.1 -0.1)">
      <defs>
       <path id="DejaVuSans-4e" d="M 628 4666 
L 1478 4666 
L 3547 763 
L 3547 4666 
L 4159 4666 
L 4159 0 
L 3309 0 
L 1241 3903 
L 1241 0 
L 628 0 
L 628 4666 
z
" transform="scale(0.015625)"/>
       <path id="DejaVuSans-66" d="M 2375 4863 
L 2375 4384 
L 1825 4384 
Q 1516 4384 1395 4259 
Q 1275 4134 1275 3809 
L 1275 3500 
L 2222 3500 
L 2222 3053 
L 1275 3053 
L 1275 0 
L 697 0 
L 697 3053 
L 147 3053 
L 147 3500 
L 697 3500 
L 697 3744 
Q 697 4328 969 4595 
Q 1241 4863 1831 4863 
L 2375 4863 
z
" transform="scale(0.015625)"/>
      </defs>
      <use xlink:href="#DejaVuSans-4e"/>
      <use xlink:href="#DejaVuSans-6f" transform="translate(74.804688 0)"/>
      <use xlink:href="#DejaVuSans-72" transform="translate(135.986328 0)"/>
      <use xlink:href="#DejaVuSans-6d" transform="translate(175.349609 0)"/>
      <use xlink:href="#DejaVuSans-61" transform="translate(272.761719 0)"/>
      <use xlink:href="#DejaVuSans-6c" transform="translate(334.041016 0)"/>
      <use xlink:href="#DejaVuSans-20" transform="translate(361.824219 0)"/>
      <use xlink:href="#DejaVuSans-66" transform="translate(393.611328 0)"/>
      <use xlink:href="#DejaVuSans-69" transform="translate(428.816406 0)"/>
      <use xlink:href="#DejaVuSans-74" transform="translate(456.599609 0)"/>
     </g>
    </g>
   </g>
  </g>
 </g>
 <defs>
  <clipPath id="pf0554f87f2">
   <rect x="40.603125" y="22.318125" width="664.63" height="291.16"/>
  </clipPath>
  <clipPath id="pb086648f60">
   <rect x="452.673725" y="106.754525" width="232.6205" height="133.9336"/>
  </clipPath>
 </defs>
</svg>
